<?xml version="1.0" standalone="no"?>
<!DOCTYPE svg PUBLIC "-//W3C//DTD SVG 1.1//EN" "http://www.w3.org/Graphics/SVG/1.1/DTD/svg11.dtd" >
<svg xmlns="http://www.w3.org/2000/svg">
<metadata></metadata>
<defs>
<font id="alright_sansextra_thin" horiz-adv-x="442" >
<font-face units-per-em="2048" ascent="1556" descent="-492" />
<missing-glyph horiz-adv-x="532" />
<glyph unicode="&#xfb01;" horiz-adv-x="1116" d="M55 981v45h201v139q0 108 26.5 185t77 121.5t115 64.5t148.5 20q174 0 323 -110l-28 -35q-135 100 -295 100q-152 0 -235 -79.5t-83 -266.5v-139h307v-45h-307v-981h-49v981h-201zM870 0v1026h50v-1026h-50z" />
<glyph unicode="&#xfb02;" horiz-adv-x="1157" d="M55 981v45h201v150q0 192 95.5 286t256.5 94t257 -94t96 -286v-1176h-50v1176q0 170 -82 252.5t-221 82.5t-221 -82.5t-82 -252.5v-150h307v-45h-307v-981h-49v981h-201z" />
<glyph unicode="&#xfb03;" horiz-adv-x="1679" d="M55 981v45h201v129q0 108 26.5 185t77 121.5t115 64.5t148.5 20q152 0 286 -88q90 98 277 98q174 0 323 -110l-28 -35q-135 100 -295 100q-152 0 -235 -79.5t-83 -266.5v-139h308v-45h-308v-981h-49v981h-514v-981h-49v981h-201zM305 1026h514v139q0 165 64 260 q-124 76 -260 76q-152 0 -235 -79.5t-83 -266.5v-129zM1434 0v1026h49v-1026h-49z" />
<glyph unicode="&#xfb04;" horiz-adv-x="1720" d="M55 981v45h201v129q0 108 26.5 185t77 121.5t115 64.5t148.5 20q154 0 288 -88q91 98 260 98q161 0 257 -94t96 -286v-1176h-49v1176q0 170 -82.5 252.5t-221.5 82.5t-221 -82.5t-82 -252.5v-150h308v-45h-308v-981h-49v981h-514v-981h-49v981h-201zM305 1026h514v150 q0 155 66 249q-124 76 -262 76q-152 0 -235 -79.5t-83 -266.5v-129z" />
<glyph horiz-adv-x="0" />
<glyph horiz-adv-x="682" />
<glyph unicode=" "  horiz-adv-x="532" />
<glyph unicode="&#x09;" horiz-adv-x="532" />
<glyph unicode="&#xa0;" horiz-adv-x="532" />
<glyph unicode="!" horiz-adv-x="460" d="M199 874v560h61v-560l-16 -471h-31zM205 0v182h49v-182h-49z" />
<glyph unicode="&#x22;" horiz-adv-x="768" d="M174 983v451h62l-27 -457zM532 983v451h62l-27 -457z" />
<glyph unicode="#" horiz-adv-x="1292" d="M82 309v45h295l63 389h-290v45h296l50 289h49l-49 -289h360l49 289h49l-49 -289h305v-45h-313l-66 -389h308v-45h-316l-51 -309h-47l51 309h-358l-51 -309h-48l50 309h-287zM424 354h360l66 389h-361z" />
<glyph unicode="$" horiz-adv-x="1040" d="M119 76l24 39q61 -39 157.5 -66.5t205.5 -28.5v506q-38 8 -62.5 13t-59 14.5t-57.5 18t-51.5 22t-47 28.5t-38 35.5t-30.5 44.5t-18 55t-7 66q0 119 98.5 197.5t272.5 81.5v227h47v-227q176 -5 326 -70l-21 -41q-137 61 -305 66v-494q49 -10 80 -17t75 -20.5t71.5 -27.5 t58.5 -37t49 -50t29.5 -65t11.5 -84q0 -126 -96 -203.5t-279 -83.5v-247h-47v247q-117 3 -218.5 31.5t-168.5 69.5zM184 823q0 -50 18.5 -89.5t45.5 -64t73.5 -44.5t85.5 -30.5t99 -23.5v486q-150 -3 -236 -68.5t-86 -165.5zM553 20q162 4 244 70t82 172q0 51 -19 91 t-46 64.5t-74.5 45t-86.5 30.5t-100 23v-496z" />
<glyph unicode="%" horiz-adv-x="1431" d="M123 838q0 109 76.5 185.5t185.5 76.5t185.5 -76.5t76.5 -185.5t-76.5 -186t-185.5 -77t-185.5 77t-76.5 186zM168 838q0 -91 63.5 -154t155.5 -63q91 0 154 63t63 154t-63 154t-154 63q-92 0 -155.5 -63t-63.5 -154zM279 0l798 1077h60l-801 -1077h-57zM784 238 q0 109 77 185.5t186 76.5t185.5 -76.5t76.5 -185.5t-76.5 -186t-185.5 -77t-186 77t-77 186zM829 238q0 -91 64 -154.5t156 -63.5q91 0 154 63.5t63 154.5t-63 154t-154 63q-92 0 -156 -63t-64 -154z" />
<glyph unicode="&#x26;" horiz-adv-x="1513" d="M102 389q0 141 88.5 258.5t231.5 194.5q-115 149 -115 299q0 131 92 224t240 93q200 0 317 -131l-34 -31q-45 54 -117.5 85.5t-165.5 31.5q-126 0 -204.5 -80t-78.5 -192q0 -144 138 -307q122 -145 270.5 -275.5t337.5 -271.5q137 174 137 387h47q0 -224 -145 -416 q45 -34 305 -219l-31 -39q-35 26 -96 69.5t-112.5 80.5t-96.5 71q-100 -114 -240.5 -180t-294.5 -66q-114 0 -206 34.5t-149 93t-87.5 132t-30.5 154.5zM152 389q0 -72 27 -137t78 -117.5t133.5 -83.5t184.5 -31q142 0 272 61.5t224 168.5q-187 141 -337 272.5t-281 282.5 q-2 0 -2 2q-134 -70 -216.5 -178t-82.5 -240z" />
<glyph unicode="'" horiz-adv-x="409" d="M174 983v451h62l-27 -457z" />
<glyph unicode="(" horiz-adv-x="712" d="M133 567q0 540 412 979h59q-68 -69 -126.5 -143.5t-114.5 -169.5t-95 -195.5t-62.5 -222t-23.5 -248.5q0 -539 422 -977h-59q-89 97 -158 195t-129 219.5t-92.5 264.5t-32.5 298z" />
<glyph unicode=")" horiz-adv-x="712" d="M109 -410q421 437 421 977q0 157 -34.5 304.5t-96.5 269.5t-133 220t-157 185h59q412 -439 412 -979q0 -155 -32.5 -298t-92.5 -264.5t-129 -219.5t-158 -195h-59z" />
<glyph unicode="*" horiz-adv-x="851" d="M102 1153l310 -4v4l-121 281l61 20l92 -289l5 -2l229 203l39 -49l-248 -178v-4l266 -156l-37 -57l-243 180l-4 -2l-72 -299l-62 18l99 295l-2 4l-310 -28z" />
<glyph unicode="+" horiz-adv-x="1251" d="M113 489v50h489v487h49v-487h488v-50h-488v-489h-49v489h-489z" />
<glyph unicode="," horiz-adv-x="397" d="M63 -238q64 38 87.5 92.5t23.5 145.5v182h49v-182q0 -105 -33.5 -170t-105.5 -100z" />
<glyph unicode="-" horiz-adv-x="749" d="M102 500v49h545v-49h-545z" />
<glyph unicode="." horiz-adv-x="397" d="M174 0v182h49v-182h-49z" />
<glyph unicode="/" horiz-adv-x="933" d="M-20 -410l919 1956h55l-919 -1956h-55z" />
<glyph unicode="0" horiz-adv-x="1302" d="M119 539q0 121 42 226.5t113.5 178.5t169 114.5t207.5 41.5t208.5 -41.5t170 -114.5t113 -178.5t41.5 -226.5q0 -162 -71 -291.5t-193 -201t-269 -71.5t-268 71.5t-192.5 201t-71.5 291.5zM168 539q0 -222 138.5 -370.5t344.5 -148.5q209 0 346.5 148t137.5 371 t-137.5 369.5t-346.5 146.5q-206 0 -344.5 -147t-138.5 -369z" />
<glyph unicode="1" horiz-adv-x="862" d="M184 940l301 137h50v-1077h-50v1026l-280 -127z" />
<glyph unicode="2" horiz-adv-x="1187" d="M152 0v45q0 80 29 144.5t78 108.5t112 80t133 63.5t140.5 52.5t133.5 53.5t112 61t78 80t29 106.5q0 87 -55.5 147.5t-137.5 86.5t-181 26q-120 0 -237 -49t-187 -125l-37 32q78 81 208 134t251 53q112 0 206 -31t157 -101.5t63 -170.5q0 -84 -47 -148t-121.5 -103.5 t-165 -73.5t-181 -70t-165 -79.5t-121.5 -114t-47 -163.5h860v-45h-907z" />
<glyph unicode="3" horiz-adv-x="1142" d="M82 918q79 83 200 134.5t240 51.5q212 0 341.5 -100.5t129.5 -253.5q0 -141 -86 -230.5t-229 -118.5q72 -6 137.5 -30.5t120 -66t87 -106t32.5 -143.5q0 -136 -77.5 -235.5t-207.5 -149t-295 -49.5q-217 0 -381 76l21 45q164 -76 360 -76q150 0 269.5 45t190.5 134.5 t71 209.5q0 81 -39 144.5t-103.5 100.5t-141.5 56t-161 19h-174v45h172q70 0 136.5 21t123 60t91 104t34.5 145q0 132 -115.5 220.5t-304.5 88.5q-118 0 -225.5 -48t-179.5 -126z" />
<glyph unicode="4" horiz-adv-x="1247" d="M68 57l784 1022h70v-1034h264v-45h-264v-354h-50v354h-790zM125 45h747v985z" />
<glyph unicode="5" horiz-adv-x="1132" d="M113 -301l20 45q160 -80 338 -80q224 0 369 115.5t145 308.5q0 175 -130 282t-343 107q-114 0 -297 -61l-41 28l19 633h749l2 -45h-706l-19 -573q167 63 293 63q235 0 378.5 -119t143.5 -317q0 -143 -74 -250t-200.5 -162t-286.5 -55q-207 0 -360 80z" />
<glyph unicode="6" horiz-adv-x="1261" d="M137 668q0 168 33.5 304t90.5 225t134.5 149t162 86t177.5 26q176 0 307 -57l-20 -45q-138 57 -287 57q-85 0 -163 -25t-150.5 -83.5t-125 -146t-83 -222.5t-27.5 -303q77 101 212.5 168t277.5 67q201 0 333 -121t132 -317q0 -90 -32 -171.5t-90.5 -145t-149.5 -101 t-201 -37.5q-139 0 -243 54t-166 150.5t-92 219t-30 269.5zM188 580q9 -121 41 -220t89 -176.5t146 -120.5t204 -43q98 0 179.5 34t134 91t81.5 130.5t29 154.5q0 176 -118 284.5t-298 108.5q-143 0 -283 -71t-205 -172z" />
<glyph unicode="7" horiz-adv-x="1163" d="M98 1032v45h957v-35l-641 -1398h-56l646 1388h-906z" />
<glyph unicode="8" horiz-adv-x="1310" d="M123 358q0 106 59.5 188t154 129t218.5 68q-163 27 -261.5 117t-98.5 230q0 165 130 266.5t330 101.5t330.5 -101.5t130.5 -266.5q0 -140 -98.5 -230t-261.5 -117q124 -21 218.5 -68t154 -129t59.5 -188q0 -118 -70 -206t-190 -132.5t-273 -44.5t-273 44.5t-189.5 132.5 t-69.5 206zM172 358q0 -154 136 -246t347 -92t347.5 92t136.5 246q0 81 -40.5 146.5t-110 108t-153.5 69t-180 37.5q-76 -8 -145 -26t-131.5 -48.5t-107.5 -70.5t-72 -95.5t-27 -120.5zM244 1090q0 -137 114 -221.5t297 -104.5q183 20 297.5 104.5t114.5 221.5 q0 144 -118 233.5t-294 89.5t-293.5 -89.5t-117.5 -233.5z" />
<glyph unicode="9" horiz-adv-x="1251" d="M113 645q0 90 32 171.5t91 145t150.5 101t203.5 37.5q139 0 244 -54t167 -150t92.5 -218.5t30.5 -269.5q0 -169 -34 -304.5t-91 -225t-135.5 -149.5t-164 -86t-179.5 -26q-197 5 -332 86l25 41q132 -82 307 -82q86 0 164.5 25t151.5 83t126 145.5t84 222t29 302.5 q-79 -100 -215 -166.5t-278 -66.5q-204 0 -336.5 120.5t-132.5 317.5zM160 645q0 -176 119.5 -284.5t302.5 -108.5q144 0 284.5 71.5t204.5 172.5q-7 95 -28.5 177.5t-60.5 153.5t-93 121t-130.5 78.5t-168.5 28.5q-100 0 -182.5 -34t-136 -91t-82.5 -130.5t-29 -154.5z" />
<glyph unicode=":" horiz-adv-x="397" d="M174 0v182h49v-182h-49zM174 844v182h49v-182h-49z" />
<glyph unicode=";" horiz-adv-x="397" d="M63 -238q64 38 87.5 92.5t23.5 145.5v182h49v-182q0 -105 -33.5 -170t-105.5 -100zM174 844v182h49v-182h-49z" />
<glyph unicode="&#x3c;" horiz-adv-x="1323" d="M92 485v56l1088 485v-57l-1033 -455l1033 -457v-57z" />
<glyph unicode="=" horiz-adv-x="1251" d="M113 246v49h1026v-49h-1026zM113 735v49h1026v-49h-1026z" />
<glyph unicode="&#x3e;" horiz-adv-x="1323" d="M143 0v57l1033 457l-1033 455v57l1088 -485v-56z" />
<glyph unicode="?" horiz-adv-x="1007" d="M92 1294q157 164 377 164q189 0 304.5 -98t115.5 -250q0 -76 -25 -137t-65 -103t-88 -78.5t-96.5 -72t-88.5 -75t-65 -96t-25 -126.5v-19h-45v19q0 77 25 139.5t64.5 105t87.5 79.5t95.5 72.5t87 74t64.5 94t25 123.5q0 130 -103 216.5t-268 86.5q-193 0 -340 -151z M389 0v182h49v-182h-49z" />
<glyph unicode="@" horiz-adv-x="1720" d="M143 567q0 152 59 289.5t158.5 237.5t238.5 158.5t292 58.5q203 0 360 -86.5t241.5 -237t84.5 -340.5q0 -114 -33 -210t-87 -157.5t-122 -95.5t-139 -34q-90 0 -137 54t-41 136q-49 -73 -124 -117.5t-161 -44.5q-107 0 -169 73t-62 195q0 70 18.5 143t55.5 141 t87.5 121.5t120.5 85.5t148 32q129 0 215 -111l24 90h48l-146 -516q-18 -69 -14 -122t39.5 -85t99.5 -32q61 0 120 32t106.5 88.5t76.5 144t29 189.5q0 273 -176 445t-463 172q-190 0 -351.5 -93.5t-255.5 -254t-94 -349.5q0 -187 94 -347t255.5 -253.5t351.5 -93.5 q183 0 348 92l27 -41q-173 -98 -375 -98q-153 0 -292 58.5t-238.5 158t-158.5 236.5t-59 288zM551 449q0 -104 48.5 -166t137.5 -62q97 0 181.5 66t119.5 188l97 338q-79 113 -207 113q-67 0 -128 -30t-105.5 -80t-77.5 -112t-49.5 -128t-16.5 -127z" />
<glyph unicode="A" horiz-adv-x="1357" d="M82 0l563 1434h70l561 -1434h-57l-164 426h-752l-164 -426h-57zM319 471h719l-356 928h-4z" />
<glyph unicode="B" horiz-adv-x="1374" d="M197 0v1434h536q110 0 195.5 -28.5t137.5 -78.5t78.5 -113t26.5 -135q0 -134 -74 -223.5t-192 -118.5q148 -27 237 -117t89 -231q0 -186 -116 -287.5t-327 -101.5h-591zM246 45h542q190 0 292 89t102 255q0 149 -111.5 234.5t-284.5 85.5h-540v-664zM246 754h487 q192 0 290.5 92.5t98.5 232.5q0 134 -98.5 222t-290.5 88h-487v-635z" />
<glyph unicode="C" horiz-adv-x="1462" d="M135 737q0 323 194.5 522t508.5 199q121 0 235.5 -34t198.5 -97l-29 -41q-80 60 -186.5 93.5t-218.5 33.5q-292 0 -473 -187t-181 -489q0 -323 179 -520t475 -197q126 0 241 41t193 113l33 -37q-86 -78 -208.5 -120t-258.5 -42q-318 0 -510.5 209t-192.5 553z" />
<glyph unicode="D" horiz-adv-x="1437" d="M197 0v1434h364q360 0 551 -184.5t191 -512.5q0 -352 -186.5 -544.5t-555.5 -192.5h-364zM246 45h315q345 0 518.5 181t173.5 511q0 306 -178 479t-514 173h-315v-1344z" />
<glyph unicode="E" horiz-adv-x="1296" d="M197 0v1434h927v-45h-878v-635h794v-45h-794v-664h893v-45h-942z" />
<glyph unicode="F" horiz-adv-x="1253" d="M197 0v1434h909v-45h-860v-637h776v-45h-776v-707h-49z" />
<glyph unicode="G" horiz-adv-x="1476" d="M135 737q0 323 194.5 522t508.5 199q258 0 436 -106l-25 -41q-166 102 -411 102q-292 0 -473 -187t-181 -489q0 -330 175.5 -523.5t478.5 -193.5q125 0 234 29t183 80v530h-469v46h517v-601q-91 -61 -212.5 -95t-252.5 -34q-325 0 -514 205.5t-189 556.5z" />
<glyph unicode="H" horiz-adv-x="1417" d="M197 0v1434h49v-680h925v680h50v-1434h-50v709h-925v-709h-49z" />
<glyph unicode="I" d="M197 0v1434h49v-1434h-49z" />
<glyph unicode="J" horiz-adv-x="1148" d="M123 281l49 12q15 -50 41.5 -95t68.5 -87t106 -66.5t142 -24.5q97 0 170.5 33t118.5 92.5t67.5 139t22.5 176.5v973h49v-973q0 -109 -25.5 -196.5t-76.5 -153t-134 -101t-192 -35.5q-89 0 -162 27.5t-120.5 74t-77.5 97t-47 107.5z" />
<glyph unicode="K" horiz-adv-x="1339" d="M197 0v1434h49v-940l844 940h69l-475 -527l537 -907h-64l-504 870l-407 -450v-420h-49z" />
<glyph unicode="L" horiz-adv-x="1232" d="M197 0v1434h49v-1389h880v-45h-929z" />
<glyph unicode="M" horiz-adv-x="1720" d="M197 0v1434h82l581 -869l582 869h82v-1434h-49v1393l-615 -914l-614 918v-1397h-49z" />
<glyph unicode="N" horiz-adv-x="1454" d="M197 0v1434h71l940 -1387v1387h49v-1434h-73l-938 1384v-1384h-49z" />
<glyph unicode="O" horiz-adv-x="1650" d="M135 729q0 162 54.5 300t148 231t219.5 145.5t268 52.5t268 -52.5t219.5 -145.5t148.5 -231t55 -300q0 -173 -53.5 -316t-147 -238.5t-219.5 -147.5t-271 -52t-271 52t-219 147.5t-146.5 238.5t-53.5 316zM184 729q0 -162 50 -296.5t136.5 -224.5t203.5 -139t251 -49 t251 49t203.5 139t136.5 224.5t50 296.5q0 151 -51 280t-138 217t-204 137.5t-248 49.5t-248 -49.5t-204 -137.5t-138 -217t-51 -280z" />
<glyph unicode="P" horiz-adv-x="1329" d="M197 0v1434h542q97 0 174.5 -23.5t127.5 -62t83.5 -91.5t47.5 -109t14 -118q0 -58 -14.5 -114t-48.5 -109.5t-84.5 -94t-128.5 -65t-175 -24.5h-489v-623h-49zM246 668h489q107 0 188 32.5t126 87t66.5 115.5t21.5 127q0 68 -21 129t-65 114t-124.5 84.5t-187.5 31.5 h-493v-721z" />
<glyph unicode="Q" horiz-adv-x="1671" d="M135 729q0 162 54.5 300t148 231t219.5 145.5t268 52.5t268 -52.5t219.5 -145.5t148.5 -231t55 -300q0 -328 -185 -536l207 -181l-33 -37l-207 183q-189 -183 -473 -183q-145 0 -271 52t-219 147.5t-146.5 238.5t-53.5 316zM184 729q0 -162 50 -296.5t136.5 -224.5 t203.5 -139t251 -49q264 0 437 170l-291 254l35 39l288 -260q172 196 172 506q0 151 -51 280t-138 217t-204 137.5t-248 49.5t-248 -49.5t-204 -137.5t-138 -217t-51 -280z" />
<glyph unicode="R" horiz-adv-x="1355" d="M197 0v1434h563q119 0 208 -35t139.5 -94t74.5 -128t24 -147q0 -66 -19.5 -128.5t-59.5 -119t-110.5 -97.5t-162.5 -56l340 -629h-59l-332 625q-14 -2 -47 -2h-510v-623h-49zM246 668h510q86 0 155.5 22t114.5 57.5t75 83.5t43 97.5t13 101.5q0 68 -21 129t-65.5 114 t-124 84.5t-186.5 31.5h-514v-721z" />
<glyph unicode="S" horiz-adv-x="1222" d="M127 113l29 41q75 -55 198.5 -94.5t261.5 -39.5q212 0 321.5 90.5t109.5 237.5q0 81 -30.5 140t-82.5 94t-119.5 59.5t-142 42t-148.5 36t-141.5 46.5t-119.5 67.5t-82.5 106t-30.5 156.5q0 158 122.5 260t333.5 102q244 0 432 -96l-24 -45q-188 96 -408 96 q-188 0 -297.5 -88.5t-109.5 -228.5q0 -72 27.5 -128t58 -87.5t103 -61.5t111 -40t131.5 -32t140 -35t120.5 -44.5t110.5 -69t66 -102t29 -148.5q0 -167 -122 -270t-358 -103q-147 0 -277.5 40t-211.5 98z" />
<glyph unicode="T" horiz-adv-x="1302" d="M68 1389v45h1167v-45h-559v-1389h-49v1389h-559z" />
<glyph unicode="U" horiz-adv-x="1449" d="M190 516v918h50v-918q0 -118 38 -213.5t104.5 -156.5t154 -93.5t188.5 -32.5t188.5 32.5t154 93.5t104.5 156.5t38 213.5v918h50v-918q0 -130 -42 -234t-115 -170.5t-169.5 -101.5t-208.5 -35t-208.5 35t-169.5 101.5t-115 170.5t-42 234z" />
<glyph unicode="V" horiz-adv-x="1314" d="M82 1434h55l518 -1389h4l519 1389h55l-545 -1434h-61z" />
<glyph unicode="W" horiz-adv-x="2068" d="M82 1434h55l438 -1387h5l419 1387h70l420 -1387h4l438 1387h56l-463 -1434h-68l-420 1384h-4l-420 -1384h-67z" />
<glyph unicode="X" horiz-adv-x="1339" d="M98 0l541 733l-516 701h63l484 -666l483 666h64l-517 -701l541 -733h-65l-506 696l-506 -696h-66z" />
<glyph unicode="Y" horiz-adv-x="1290" d="M82 1434h61l500 -799h4l500 799h61l-538 -842v-592h-49v592z" />
<glyph unicode="Z" horiz-adv-x="1312" d="M133 0v63l979 1326h-979v45h1026v-64l-977 -1325h998v-45h-1047z" />
<glyph unicode="[" horiz-adv-x="696" d="M184 -410v1956h369v-45h-320v-1866h320v-45h-369z" />
<glyph unicode="\" horiz-adv-x="933" d="M-20 1546h55l919 -1956h-55z" />
<glyph unicode="]" horiz-adv-x="696" d="M143 -365h320v1866h-320v45h369v-1956h-369v45z" />
<glyph unicode="^" horiz-adv-x="1028" d="M205 1151l287 344h45l286 -344h-61l-248 268l-250 -268h-59z" />
<glyph unicode="_" horiz-adv-x="1105" d="M0 -25h1106v-49h-1106v49z" />
<glyph unicode="`" horiz-adv-x="1351" d="M512 1434l43 36l285 -329h-41z" />
<glyph unicode="a" horiz-adv-x="1015" d="M113 215q0 312 653 336v219q0 105 -65.5 170.5t-198.5 65.5q-160 0 -324 -88l-24 45q69 37 162.5 62.5t185.5 25.5q157 0 235 -77t78 -204v-598q0 -63 31.5 -97t87.5 -34v-41q-70 0 -114 39t-52 108q-58 -74 -156.5 -123t-212.5 -49q-130 0 -208 65t-78 175zM162 215 q0 -89 64.5 -142t172.5 -53q118 0 218 54t149 131v303q-86 -3 -162 -11.5t-160.5 -29.5t-144 -51.5t-98.5 -82.5t-39 -118z" />
<glyph unicode="b" horiz-adv-x="1163" d="M197 0v1546h49v-674q171 179 354 179q195 0 312.5 -142.5t117.5 -380.5q0 -254 -112 -403.5t-316 -149.5q-195 0 -358 185l-11 -160h-36zM246 219q74 -91 166.5 -145t189.5 -54q180 0 279.5 138t99.5 370q0 217 -104 347.5t-277 130.5q-186 0 -354 -195v-592z" />
<glyph unicode="c" horiz-adv-x="1021" d="M133 528q0 237 126 380t329 143q177 0 295 -88l-29 -41q-116 84 -266 84q-181 0 -293.5 -130.5t-112.5 -347.5q0 -233 110 -370.5t296 -137.5q92 0 158.5 27t130.5 78l32 -37q-67 -56 -142 -84.5t-179 -28.5q-208 0 -331.5 149.5t-123.5 403.5z" />
<glyph unicode="d" horiz-adv-x="1163" d="M133 528q0 238 117.5 380.5t312.5 142.5q184 0 355 -179v674h49v-1546h-35l-12 160q-163 -185 -359 -185q-204 0 -316 149.5t-112 403.5zM182 528q0 -232 99.5 -370t279.5 -138q97 0 189 54t168 145v592q-172 195 -355 195q-173 0 -277 -130.5t-104 -347.5z" />
<glyph unicode="e" horiz-adv-x="1128" d="M133 528q0 236 131 379.5t336 143.5q100 0 176 -33t122 -93t68.5 -138t22.5 -173q0 -29 -4 -57h-803v-29q0 -241 105 -374.5t313 -133.5q86 0 172 30t148 75l28 -41q-63 -47 -157.5 -78t-190.5 -31q-232 0 -349.5 145.5t-117.5 407.5zM186 602h754v17q0 75 -16 139 q-18 71 -57.5 127.5t-107.5 88.5t-159 32q-167 0 -280.5 -109.5t-133.5 -294.5z" />
<glyph unicode="f" horiz-adv-x="690" d="M55 981v45h201v139q0 108 26.5 185t77 121.5t115 64.5t148.5 20q52 0 92 -10l-10 -45q-30 10 -82 10q-152 0 -235 -79.5t-83 -266.5v-139h307v-45h-307v-981h-49v981h-201z" />
<glyph unicode="g" horiz-adv-x="1130" d="M94 -164q0 162 215 236q-106 44 -106 151q0 41 23.5 79t62.5 63q-82 52 -129 134t-47 181q0 158 117 264.5t288 106.5q146 0 256 -80q116 83 264 83q14 0 27 -1v-47h-25q-148 0 -237 -56q125 -109 125 -270t-119 -270t-291 -109q-108 0 -196 45q-33 -21 -54.5 -52.5 t-21.5 -64.5t11 -57.5t39.5 -40.5t50.5 -26t71 -16t72.5 -8.5t82.5 -5.5q10 -1 15 -1q456 -24 456 -244q0 -127 -126.5 -193.5t-362.5 -66.5q-220 0 -340.5 70.5t-120.5 195.5zM143 -164q0 -103 109.5 -162t302.5 -59q209 0 324.5 55t115.5 160q0 182 -422 201 q-122 3 -208 24q-98 -25 -160 -81.5t-62 -137.5zM162 680q0 -141 103.5 -237.5t252.5 -96.5q151 0 256 96.5t105 237.5q0 136 -105 231t-256 95q-149 0 -252.5 -94.5t-103.5 -231.5z" />
<glyph unicode="h" horiz-adv-x="1146" d="M197 0v1546h49v-690q79 90 182 142.5t221 52.5q168 0 241 -86.5t73 -243.5v-721h-50v721q0 285 -264 285q-226 0 -403 -209v-797h-49z" />
<glyph unicode="i" d="M197 0v1026h49v-1026h-49zM197 1372v133h49v-133h-49z" />
<glyph unicode="j" horiz-adv-x="456" d="M-70 -424l9 45q24 -6 55 -6q99 0 158 73t59 228v1110h49v-1110q0 -181 -71.5 -263.5t-194.5 -82.5q-29 0 -64 6zM211 1372v133h49v-133h-49z" />
<glyph unicode="k" horiz-adv-x="1007" d="M197 0v1546h49v-1134l567 614h66l-304 -326l371 -700h-55l-348 668l-297 -320v-348h-49z" />
<glyph unicode="l" d="M197 0v1546h49v-1546h-49z" />
<glyph unicode="m" horiz-adv-x="1779" d="M188 0v1026h41l9 -156q177 181 383 181q226 0 280 -189q182 189 395 189q299 0 299 -330v-721h-49v721q0 285 -250 285q-218 0 -383 -193q7 -51 7 -92v-721h-50v721q0 285 -249 285q-217 0 -383 -197v-809h-50z" />
<glyph unicode="n" horiz-adv-x="1138" d="M188 0v1026h41l9 -168q182 193 403 193q168 0 240.5 -86.5t72.5 -243.5v-721h-49v721q0 136 -61 210.5t-203 74.5q-231 0 -403 -213v-793h-50z" />
<glyph unicode="o" horiz-adv-x="1202" d="M133 528q0 235 132 379t337 144t336 -144t131 -379q0 -252 -128.5 -402.5t-338.5 -150.5q-212 0 -340.5 150.5t-128.5 402.5zM182 528q0 -231 115 -369.5t305 -138.5q188 0 303 138.5t115 369.5q0 215 -117.5 346.5t-300.5 131.5q-184 0 -302 -132t-118 -346z" />
<glyph unicode="p" horiz-adv-x="1163" d="M197 -410v1436h36l11 -156q169 181 356 181q195 0 312.5 -142.5t117.5 -380.5q0 -254 -112 -403.5t-316 -149.5q-195 0 -356 183v-568h-49zM246 219q74 -91 166.5 -145t189.5 -54q180 0 279.5 138t99.5 370q0 217 -104 347.5t-277 130.5q-186 0 -354 -195v-592z" />
<glyph unicode="q" horiz-adv-x="1163" d="M133 528q0 238 117.5 380.5t312.5 142.5q186 0 355 -181l10 156h39v-1436h-49v568q-165 -183 -357 -183q-204 0 -316 149.5t-112 403.5zM182 528q0 -232 99.5 -370t279.5 -138q97 0 189 54t168 145v592q-172 195 -355 195q-173 0 -277 -130.5t-104 -347.5z" />
<glyph unicode="r" horiz-adv-x="743" d="M188 0v1026h41l9 -184q123 209 335 209q72 0 119 -13l-12 -51q-51 14 -107 14q-99 0 -185 -55.5t-150 -163.5v-782h-50z" />
<glyph unicode="s" horiz-adv-x="884" d="M92 66l29 40q51 -34 139 -60t182 -26q148 0 224.5 61.5t76.5 162.5q0 72 -35.5 119.5t-92 72t-124.5 41.5t-136.5 36t-125 47t-92 83.5t-35.5 136.5q0 119 89.5 195t242.5 76q87 0 170.5 -20t140.5 -50l-22 -43q-54 29 -132.5 48.5t-156.5 19.5q-130 0 -206 -64t-76 -162 q0 -72 35.5 -119.5t92 -71t124.5 -40t136.5 -35.5t125 -47t92 -84t35.5 -139q0 -123 -89 -196t-262 -73q-103 0 -198.5 27t-151.5 64z" />
<glyph unicode="t" horiz-adv-x="708" d="M55 981v45h199v348h49v-348h309v-45h-309v-735q0 -113 44 -170.5t147 -57.5q75 0 147 45l23 -38q-83 -50 -170 -50q-127 0 -183.5 69t-56.5 204v733h-199z" />
<glyph unicode="u" horiz-adv-x="1138" d="M184 305v721h49v-721q0 -136 61.5 -210.5t203.5 -74.5q227 0 403 211v795h49v-1026h-37l-12 166q-184 -191 -403 -191q-168 0 -241 86.5t-73 243.5z" />
<glyph unicode="v" horiz-adv-x="950" d="M61 1026h58l354 -969h4l354 969h58l-387 -1026h-53z" />
<glyph unicode="w" horiz-adv-x="1591" d="M61 1026h56l332 -979h2l315 979h57l318 -979h2l330 979h57l-356 -1026h-68l-309 965h-4l-308 -965h-69z" />
<glyph unicode="x" horiz-adv-x="970" d="M74 0l383 520l-359 506h60l327 -469l328 469h61l-358 -506l381 -520h-61l-351 483l-348 -483h-63z" />
<glyph unicode="y" horiz-adv-x="950" d="M49 -408l17 43q45 -20 96 -20q71 0 118 33t80 121l91 239l-390 1018h58l356 -948h4l352 948h58l-483 -1274q-38 -100 -98 -141t-146 -41q-61 0 -113 22z" />
<glyph unicode="z" horiz-adv-x="976" d="M119 0v49l676 932h-660v45h719v-47l-676 -934h699v-45h-758z" />
<glyph unicode="{" horiz-adv-x="833" d="M72 528v50h63q117 0 162 52t45 171v493q0 252 258 252h100v-43h-100q-108 0 -158.5 -51t-50.5 -160v-487q0 -114 -40.5 -175.5t-110.5 -74.5v-2q70 -13 110.5 -74.5t40.5 -175.5v-459q0 -109 50.5 -160t158.5 -51h100v-43h-100q-258 0 -258 252v463q0 119 -45 171 t-162 52h-63z" />
<glyph unicode="|" horiz-adv-x="499" d="M225 -410v1956h49v-1956h-49z" />
<glyph unicode="}" horiz-adv-x="833" d="M133 -367h100q108 0 158.5 51t50.5 160v459q0 113 41 175t111 75v2q-70 13 -111 75t-41 175v487q0 109 -50.5 160t-158.5 51h-100v43h100q259 0 259 -252v-493q0 -119 44.5 -171t161.5 -52h64v-50h-64q-117 0 -161.5 -52t-44.5 -171v-463q0 -252 -259 -252h-100v43z" />
<glyph unicode="~" horiz-adv-x="1163" d="M164 442q0 114 53.5 176t142.5 62q46 0 95.5 -27t93 -65t85.5 -76t86.5 -65t82.5 -27q69 0 111 52.5t34 166.5h49q2 -16 2 -33q0 -114 -53.5 -175.5t-142.5 -61.5q-46 0 -95.5 27t-93 65t-85.5 76t-86.5 65t-82.5 27q-69 0 -111 -52.5t-34 -166.5h-49q-2 14 -2 32z" />
<glyph unicode="&#xa1;" horiz-adv-x="460" d="M199 152l14 471h31l16 -471v-560h-61v560zM205 844v182h49v-182h-49z" />
<glyph unicode="&#xa2;" horiz-adv-x="1157" d="M102 555q0 245 159 396t413 151q9 0 27.5 -1t27.5 -1l51 229h49l-53 -235q143 -18 252 -93l-27 -36q-99 68 -233 86l-225 -1018q67 -13 131 -13q102 0 197 30t157 83l29 -35q-70 -59 -170.5 -91t-212.5 -32q-58 0 -142 15l-59 -262h-49l63 272q-180 51 -282.5 197.5 t-102.5 357.5zM152 555q0 -194 91.5 -328.5t254.5 -181.5l221 1010q-7 0 -22.5 1t-22.5 1q-234 0 -378 -138.5t-144 -363.5z" />
<glyph unicode="&#xa3;" horiz-adv-x="1107" d="M90 150q0 75 55.5 125.5t141.5 50.5q63 0 120 -29.5t125 -83.5q7 28 7 49q0 67 -23 125t-65 127l-19 29h-213v45h184q-46 72 -71 134.5t-25 133.5q0 107 71 175.5t197 68.5q107 0 174 -45.5t97 -104.5l-45 -20q-68 123 -226 123q-104 0 -161.5 -54.5t-57.5 -142.5 q0 -50 16.5 -100.5t34.5 -82.5t52 -85h264v-45h-236q32 -51 50 -86t34.5 -88.5t16.5 -106.5q0 -40 -13 -84q47 -39 71.5 -58t66.5 -45.5t80.5 -38t78.5 -11.5q158 0 164 180h49q-3 -113 -57.5 -171.5t-155.5 -58.5q-58 0 -118.5 25.5t-100 53.5t-98.5 77 q-40 -74 -117.5 -115t-150.5 -41q-90 0 -143.5 50.5t-53.5 124.5zM139 150q0 -51 39 -89t105 -38q64 0 132 37t101 104q-70 56 -123.5 85.5t-109.5 29.5q-62 0 -103 -38.5t-41 -90.5z" />
<glyph unicode="&#xa4;" horiz-adv-x="1318" d="M133 541q0 104 39 198t109 166l-119 127l41 39l119 -129q149 123 337 123q189 0 338 -123l123 129l41 -39l-123 -129q69 -72 108.5 -166t39.5 -196q0 -104 -38.5 -197.5t-107.5 -165.5l121 -127l-41 -39l-123 127q-146 -123 -338 -123q-195 0 -337 123l-119 -127l-41 39 l119 125q-70 72 -109 166.5t-39 198.5zM184 541q0 -97 37.5 -184.5t101.5 -151.5t151.5 -101.5t184.5 -37.5q129 0 238.5 63.5t173.5 173t64 238.5t-64 238.5t-173.5 173t-238.5 63.5q-97 0 -184.5 -37.5t-151.5 -101.5t-101.5 -151.5t-37.5 -184.5z" />
<glyph unicode="&#xa5;" horiz-adv-x="1107" d="M78 1077h61l412 -585l418 585h61l-455 -637h392v-45h-392v-153h392v-45h-392v-197h-49v197h-395v45h395v153h-395v45h395z" />
<glyph unicode="&#xa6;" horiz-adv-x="499" d="M225 334h49v-744h-49v744zM225 694v852h49v-852h-49z" />
<glyph unicode="&#xa7;" horiz-adv-x="1064" d="M154 438q0 68 39.5 128t99.5 96q-88 71 -88 180q0 117 90 181t246 64q203 0 346 -153l-41 -35q-55 63 -134.5 103t-170.5 40q-132 0 -209.5 -51t-77.5 -149q0 -55 28 -98t74.5 -68.5t105.5 -50t120.5 -43t120.5 -47.5t105.5 -63t74.5 -90t28 -128q0 -69 -39.5 -128.5 t-101.5 -96.5q90 -67 90 -179q0 -117 -90 -181t-246 -64q-203 0 -346 153l41 35q55 -63 134.5 -103t170.5 -40q132 0 209.5 51t77.5 149q0 55 -28 98t-74.5 68.5t-105.5 50t-120.5 43t-120.5 47.5t-105.5 63t-74.5 90t-28 128zM203 438q0 -62 27 -110.5t68.5 -78.5t100 -57 t113.5 -45t118 -43t105 -51q53 31 90 84.5t37 116.5q0 74 -36 127.5t-99 87t-128 57t-144 53t-127 58.5q-51 -29 -88 -83t-37 -116z" />
<glyph unicode="&#xa8;" horiz-adv-x="1351" d="M471 1251v97h68v-97h-68zM811 1251v97h68v-97h-68z" />
<glyph unicode="&#xa9;" horiz-adv-x="1802" d="M154 567q0 152 58.5 289.5t158.5 237.5t238.5 158.5t291.5 58.5q204 0 376 -99.5t272 -270.5t100 -374q0 -101 -27 -197t-75 -177.5t-117 -149.5t-151 -116t-179 -74.5t-199 -26.5q-153 0 -291.5 58.5t-238.5 158t-158.5 236.5t-58.5 288zM201 567q0 -140 55.5 -268.5 t149 -221.5t223.5 -148.5t272 -55.5q190 0 351.5 93.5t255.5 253.5t94 347q0 189 -94 349.5t-255.5 254t-351.5 93.5t-351.5 -93.5t-255 -254t-93.5 -349.5zM492 565q0 182 122 302t304 120q143 0 253 -74l-26 -39q-92 68 -227 68q-163 0 -270 -107t-107 -270 q0 -175 104.5 -279t272.5 -104q71 0 135.5 22t107.5 62l29 -33q-47 -45 -119.5 -70.5t-152.5 -25.5q-187 0 -306.5 117t-119.5 311z" />
<glyph unicode="&#xaa;" horiz-adv-x="737" d="M88 864q0 222 455 236v145q0 69 -44.5 112.5t-133.5 43.5q-110 0 -228 -64l-22 43q118 64 250 64q113 0 169 -54.5t56 -144.5v-407q0 -44 21.5 -67t60.5 -23v-39q-53 0 -85.5 25.5t-41.5 72.5q-39 -49 -106.5 -82t-145.5 -33q-93 0 -149 46.5t-56 125.5zM135 864 q0 -60 44 -95.5t116 -35.5q79 0 145.5 35t102.5 86v205q-408 -14 -408 -195z" />
<glyph unicode="&#xab;" horiz-adv-x="1169" d="M113 514l413 512l37 -31l-387 -481l387 -483l-37 -31zM586 514l413 512l37 -31l-387 -481l387 -483l-37 -31z" />
<glyph unicode="&#xac;" horiz-adv-x="1193" d="M133 1028v49h928v-465h-49v416h-879z" />
<glyph unicode="&#xad;" horiz-adv-x="749" d="M102 500v49h545v-49h-545z" />
<glyph unicode="&#xae;" horiz-adv-x="1802" d="M154 567q0 152 58.5 289.5t158.5 237.5t238.5 158.5t291.5 58.5q204 0 376 -99.5t272 -270.5t100 -374q0 -101 -27 -197t-75 -177.5t-117 -149.5t-151 -116t-179 -74.5t-199 -26.5q-153 0 -291.5 58.5t-238.5 158t-158.5 236.5t-58.5 288zM201 567q0 -140 55 -268 t148.5 -221t223 -148t271.5 -55q190 0 351.5 93t255 252.5t93.5 346.5q0 189 -93.5 349.5t-255 254t-351.5 93.5t-351 -93.5t-254 -254t-93 -349.5zM604 160v811h363q148 0 218 -68t70 -168q0 -81 -54.5 -146.5t-164.5 -82.5l209 -346h-61l-199 340h-332v-340h-49zM653 545 h310q65 0 114 17t76 46t40 61t13 66q0 81 -56.5 136t-182.5 55h-314v-381z" />
<glyph unicode="&#xaf;" horiz-adv-x="1351" d="M403 1274v49h545v-49h-545z" />
<glyph unicode="&#xb0;" horiz-adv-x="843" d="M115 1151q0 127 89.5 217t217.5 90t217.5 -90t89.5 -217t-89.5 -217t-217.5 -90t-217.5 90t-89.5 217zM162 1151q0 -107 76.5 -183.5t183.5 -76.5t183.5 76.5t76.5 183.5t-76.5 183.5t-183.5 76.5t-183.5 -76.5t-76.5 -183.5z" />
<glyph unicode="&#xb1;" horiz-adv-x="1251" d="M113 0v49h489v453h-489v49h489v475h49v-475h488v-49h-488v-453h488v-49h-1026z" />
<glyph unicode="&#xb2;" horiz-adv-x="653" d="M80 1024v27q-1 75 23.5 131.5t64 89.5t87 58.5t96 46t88 42.5t64.5 58t25 84q0 66 -52.5 108.5t-147.5 42.5q-57 0 -110.5 -24.5t-90.5 -63.5l-35 29q41 44 105.5 72t130.5 28q118 0 182.5 -53.5t64.5 -138.5q0 -49 -19.5 -87t-50.5 -61.5t-71.5 -45.5t-82.5 -38.5 t-82.5 -40t-71.5 -50.5t-50.5 -71t-19.5 -100h448v-43h-495z" />
<glyph unicode="&#xb3;" horiz-adv-x="653" d="M76 1655q42 43 107 70.5t128 27.5q111 0 178.5 -51.5t67.5 -130.5q0 -65 -38.5 -109t-104.5 -59q75 -11 124.5 -55.5t49.5 -116.5q0 -102 -83.5 -160.5t-211.5 -58.5q-121 0 -205 43l18 41q80 -43 187 -43q108 0 178 48.5t70 131.5q0 72 -59 108.5t-146 36.5h-96v43h94 q75 0 126.5 39.5t51.5 110.5q0 61 -54.5 101t-144.5 40q-58 0 -112 -24t-90 -64z" />
<glyph unicode="&#xb4;" horiz-adv-x="1351" d="M512 1141l285 329l43 -36l-287 -293h-41z" />
<glyph unicode="&#xb5;" horiz-adv-x="1032" d="M133 -410v1487h49v-796q10 -261 264 -261q228 0 404 211v846h49v-1077h-39l-10 168q-182 -193 -404 -193q-116 0 -178.5 42.5t-85.5 123.5l-6 -551h-43z" />
<glyph unicode="&#xb6;" horiz-adv-x="1302" d="M143 1018q0 61 15.5 119t50.5 112.5t87 95t130.5 65t175.5 24.5h494v-1434h-49v1389h-291v-1389h-49v616h-101q-119 0 -212 37t-145.5 97t-79 128.5t-26.5 139.5z" />
<glyph unicode="&#xb7;" horiz-adv-x="397" d="M174 424v182h49v-182h-49z" />
<glyph unicode="&#xb8;" horiz-adv-x="1351" d="M545 -406q215 181 252 406h43q-15 -118 -78.5 -229.5t-163.5 -202.5z" />
<glyph unicode="&#xb9;" horiz-adv-x="524" d="M98 1636l201 105h41v-717h-45v668l-174 -93z" />
<glyph unicode="&#xba;" horiz-adv-x="864" d="M100 1077q0 165 93.5 266t238.5 101q146 0 239 -100.5t93 -266.5q0 -176 -91 -280.5t-241 -104.5t-241 104.5t-91 280.5zM147 1077q0 -156 78 -249t207 -93q128 0 206.5 93t78.5 249q0 145 -80 234.5t-205 89.5q-124 0 -204.5 -89.5t-80.5 -234.5z" />
<glyph unicode="&#xbb;" horiz-adv-x="1169" d="M133 31l387 483l-387 481l37 31l414 -512l-414 -514zM606 31l387 483l-387 481l37 31l414 -512l-414 -514z" />
<glyph unicode="&#xbc;" horiz-adv-x="1400" d="M96 1329l201 105h41v-717h-45v667l-174 -92zM115 0l1179 1434h66l-1180 -1434h-65zM797 207l395 510h59v-510h129v-41h-129v-166h-45v166h-395zM850 207h356v461z" />
<glyph unicode="&#xbd;" horiz-adv-x="1488" d="M96 1329l201 105h41v-717h-45v667l-174 -92zM115 0l1179 1434h66l-1180 -1434h-65zM973 0v27q-1 75 23.5 131.5t64 89.5t87 58.5t96 46t88 42.5t64.5 58t25 84q0 66 -52.5 108.5t-147.5 42.5q-57 0 -110.5 -24.5t-90.5 -63.5l-35 29q41 44 105.5 72t130.5 28 q118 0 182.5 -53.5t64.5 -138.5q0 -49 -19 -87t-51 -61.5t-72 -45.5t-82 -38.5t-82 -40t-72 -50.5t-51 -71t-19 -100h448v-43h-495z" />
<glyph unicode="&#xbe;" horiz-adv-x="1439" d="M16 1348q41 43 107 70.5t129 27.5q111 0 178.5 -51.5t67.5 -130.5q0 -65 -39 -109t-105 -59q75 -11 124.5 -55.5t49.5 -116.5q0 -102 -83.5 -160.5t-211.5 -58.5q-120 0 -204 43l18 40q80 -43 186 -43q108 0 178 49t70 132q0 72 -59 108.5t-146 36.5h-96v43h94 q75 0 127 39.5t52 110.5q0 61 -54.5 101t-144.5 40q-58 0 -112.5 -24t-90.5 -64zM154 0l1179 1434h66l-1180 -1434h-65zM836 207l395 510h59v-510h129v-41h-129v-166h-45v166h-395zM889 207h356v461z" />
<glyph unicode="&#xbf;" horiz-adv-x="960" d="M113 -84q0 76 25 137t65 103t88 78.5t96 72t88 75t65 96t25 126.5v19h45v-19q0 -61 -15.5 -112.5t-41.5 -89.5t-59.5 -71t-70.5 -60.5t-74 -54.5t-70.5 -57t-59.5 -64t-41.5 -79.5t-15.5 -99.5q0 -130 102.5 -216.5t267.5 -86.5q193 0 340 151l37 -32 q-157 -164 -377 -164q-189 0 -304 98t-115 250zM563 844v182h49v-182h-49z" />
<glyph unicode="&#xc0;" horiz-adv-x="1357" d="M82 0l563 1434h70l561 -1434h-57l-164 426h-752l-164 -426h-57zM319 471h719l-356 928h-4zM449 1739l45 41l223 -234h-47z" />
<glyph unicode="&#xc1;" horiz-adv-x="1357" d="M82 0l563 1434h70l561 -1434h-57l-164 426h-752l-164 -426h-57zM319 471h719l-356 928h-4zM639 1546l223 234l45 -41l-221 -193h-47z" />
<glyph unicode="&#xc2;" horiz-adv-x="1357" d="M82 0l563 1434h70l561 -1434h-57l-164 426h-752l-164 -426h-57zM319 471h719l-356 928h-4zM375 1546l268 205h70l268 -205h-45l-256 160h-2l-258 -160h-45z" />
<glyph unicode="&#xc3;" horiz-adv-x="1357" d="M82 0l563 1434h70l561 -1434h-57l-164 426h-752l-164 -426h-57zM319 471h719l-356 928h-4zM420 1573q-9 83 27.5 130.5t97.5 47.5q32 0 62.5 -16.5t55.5 -40t48.5 -47t50 -40t51.5 -16.5q41 0 65 36t17 97h43q9 -83 -27.5 -130.5t-97.5 -47.5q-32 0 -62.5 16.5t-55.5 40 t-48.5 47t-50 40t-51.5 16.5q-41 0 -65 -36t-17 -97h-43z" />
<glyph unicode="&#xc4;" horiz-adv-x="1357" d="M82 0l563 1434h70l561 -1434h-57l-164 426h-752l-164 -426h-57zM319 471h719l-356 928h-4zM465 1602v96h67v-96h-67zM825 1602v96h68v-96h-68z" />
<glyph unicode="&#xc5;" horiz-adv-x="1357" d="M82 0l551 1405q-61 15 -99 64t-38 114q0 75 53.5 128.5t128.5 53.5t128.5 -53.5t53.5 -128.5q0 -64 -38 -112.5t-97 -63.5l551 -1407h-57l-164 426h-752l-164 -426h-57zM319 471h719l-356 928h-4zM530 1583q0 -58 39.5 -101t96.5 -48h12q61 0 104 43.5t43 105.5t-43 105 t-104 43q-62 0 -105 -43.5t-43 -104.5z" />
<glyph unicode="&#xc6;" horiz-adv-x="2033" d="M82 0l661 1434h1119v-50h-1031l189 -628h758v-49h-742l199 -658h641v-49h-682l-127 426h-733l-193 -426h-59zM354 471h701l-271 913h-16z" />
<glyph unicode="&#xc7;" horiz-adv-x="1462" d="M135 737q0 323 194.5 522t508.5 199q121 0 235.5 -34t198.5 -97l-29 -41q-80 60 -186.5 93.5t-218.5 33.5q-292 0 -473 -187t-181 -489q0 -323 179 -520t475 -197q126 0 241 41t193 113l33 -37q-86 -78 -208.5 -120t-258.5 -42q-29 0 -41 2q-41 -231 -238 -409l-53 26 q205 173 248 386q-283 28 -451 232.5t-168 524.5z" />
<glyph unicode="&#xc8;" horiz-adv-x="1296" d="M197 0v1434h927v-45h-878v-635h794v-45h-794v-664h893v-45h-942zM438 1739l45 41l224 -234h-48z" />
<glyph unicode="&#xc9;" horiz-adv-x="1296" d="M197 0v1434h927v-45h-878v-635h794v-45h-794v-664h893v-45h-942zM629 1546l223 234l45 -41l-221 -193h-47z" />
<glyph unicode="&#xca;" horiz-adv-x="1296" d="M197 0v1434h927v-45h-878v-635h794v-45h-794v-664h893v-45h-942zM365 1546l268 205h69l269 -205h-45l-256 160h-2l-258 -160h-45z" />
<glyph unicode="&#xcb;" horiz-adv-x="1296" d="M197 0v1434h927v-45h-878v-635h794v-45h-794v-664h893v-45h-942zM455 1602v96h67v-96h-67zM815 1602v96h68v-96h-68z" />
<glyph unicode="&#xcc;" d="M-8 1739l45 41l223 -234h-47zM197 0v1434h49v-1434h-49z" />
<glyph unicode="&#xcd;" d="M182 1546l224 234l45 -41l-222 -193h-47zM197 0v1434h49v-1434h-49z" />
<glyph unicode="&#xce;" d="M-82 1546l268 205h70l268 -205h-45l-256 160h-2l-258 -160h-45zM197 0v1434h49v-1434h-49z" />
<glyph unicode="&#xcf;" d="M8 1602v96h68v-96h-68zM197 0v1434h49v-1434h-49zM369 1602v96h67v-96h-67z" />
<glyph unicode="&#xd0;" horiz-adv-x="1505" d="M31 696v45h233v693h365q360 0 550.5 -184.5t190.5 -512.5q0 -352 -186 -544.5t-555 -192.5h-365v696h-233zM313 45h316q345 0 518.5 181t173.5 511q0 306 -178 479t-514 173h-316v-648h521v-45h-521v-651z" />
<glyph unicode="&#xd1;" horiz-adv-x="1454" d="M197 0v1434h71l940 -1387v1387h49v-1434h-73l-938 1384v-1384h-49zM469 1573q-9 83 27.5 130.5t97.5 47.5q32 0 62.5 -16.5t55.5 -40t48.5 -47t50 -40t51.5 -16.5q41 0 65 36t17 97h43q9 -83 -27.5 -130.5t-97.5 -47.5q-32 0 -62.5 16.5t-55.5 40t-48.5 47t-50 40 t-51.5 16.5q-41 0 -65 -36t-17 -97h-43z" />
<glyph unicode="&#xd2;" horiz-adv-x="1650" d="M135 729q0 162 54.5 300t148 231t219.5 145.5t268 52.5t268 -52.5t219.5 -145.5t148.5 -231t55 -300q0 -173 -53.5 -316t-147 -238.5t-219.5 -147.5t-271 -52t-271 52t-219 147.5t-146.5 238.5t-53.5 316zM184 729q0 -162 50 -296.5t136.5 -224.5t203.5 -139t251 -49 t251 49t203.5 139t136.5 224.5t50 296.5q0 151 -51 280t-138 217t-204 137.5t-248 49.5t-248 -49.5t-204 -137.5t-138 -217t-51 -280zM596 1739l45 41l223 -234h-47z" />
<glyph unicode="&#xd3;" horiz-adv-x="1650" d="M135 729q0 162 54.5 300t148 231t219.5 145.5t268 52.5t268 -52.5t219.5 -145.5t148.5 -231t55 -300q0 -173 -53.5 -316t-147 -238.5t-219.5 -147.5t-271 -52t-271 52t-219 147.5t-146.5 238.5t-53.5 316zM184 729q0 -162 50 -296.5t136.5 -224.5t203.5 -139t251 -49 t251 49t203.5 139t136.5 224.5t50 296.5q0 151 -51 280t-138 217t-204 137.5t-248 49.5t-248 -49.5t-204 -137.5t-138 -217t-51 -280zM786 1546l224 234l45 -41l-221 -193h-48z" />
<glyph unicode="&#xd4;" horiz-adv-x="1650" d="M135 729q0 162 54.5 300t148 231t219.5 145.5t268 52.5t268 -52.5t219.5 -145.5t148.5 -231t55 -300q0 -173 -53.5 -316t-147 -238.5t-219.5 -147.5t-271 -52t-271 52t-219 147.5t-146.5 238.5t-53.5 316zM184 729q0 -162 50 -296.5t136.5 -224.5t203.5 -139t251 -49 t251 49t203.5 139t136.5 224.5t50 296.5q0 151 -51 280t-138 217t-204 137.5t-248 49.5t-248 -49.5t-204 -137.5t-138 -217t-51 -280zM522 1546l269 205h69l268 -205h-45l-256 160h-2l-258 -160h-45z" />
<glyph unicode="&#xd5;" horiz-adv-x="1650" d="M135 729q0 162 54.5 300t148 231t219.5 145.5t268 52.5t268 -52.5t219.5 -145.5t148.5 -231t55 -300q0 -173 -53.5 -316t-147 -238.5t-219.5 -147.5t-271 -52t-271 52t-219 147.5t-146.5 238.5t-53.5 316zM184 729q0 -162 50 -296.5t136.5 -224.5t203.5 -139t251 -49 t251 49t203.5 139t136.5 224.5t50 296.5q0 151 -51 280t-138 217t-204 137.5t-248 49.5t-248 -49.5t-204 -137.5t-138 -217t-51 -280zM567 1573q-9 83 27.5 130.5t97.5 47.5q39 0 77.5 -25t65.5 -55t61.5 -55t64.5 -25q41 0 64.5 36t16.5 97h43q9 -83 -27 -130.5t-97 -47.5 q-39 0 -77.5 25t-65.5 55t-61.5 55t-64.5 25q-41 0 -65 -36t-17 -97h-43z" />
<glyph unicode="&#xd6;" horiz-adv-x="1650" d="M135 729q0 162 54.5 300t148 231t219.5 145.5t268 52.5t268 -52.5t219.5 -145.5t148.5 -231t55 -300q0 -173 -53.5 -316t-147 -238.5t-219.5 -147.5t-271 -52t-271 52t-219 147.5t-146.5 238.5t-53.5 316zM184 729q0 -162 50 -296.5t136.5 -224.5t203.5 -139t251 -49 t251 49t203.5 139t136.5 224.5t50 296.5q0 151 -51 280t-138 217t-204 137.5t-248 49.5t-248 -49.5t-204 -137.5t-138 -217t-51 -280zM612 1602v96h68v-96h-68zM973 1602v96h67v-96h-67z" />
<glyph unicode="&#xd7;" horiz-adv-x="1165" d="M154 92l395 422l-395 424l36 33l392 -420l393 420l37 -33l-396 -424l396 -422l-37 -33l-393 420l-392 -420z" />
<glyph unicode="&#xd8;" horiz-adv-x="1650" d="M135 729q0 162 54.5 300t148 231t219.5 145.5t268 52.5q237 0 416 -137l139 186l37 -26l-139 -189q112 -98 175 -242.5t63 -320.5q0 -173 -53.5 -316t-147 -238.5t-219.5 -147.5t-271 -52q-238 0 -417 134l-134 -183l-38 27l137 186q-113 99 -175.5 250t-62.5 340z M184 729q0 -350 217 -551l811 1104q-170 131 -387 131q-131 0 -248 -49.5t-204 -137.5t-138 -217t-51 -280zM436 147q164 -127 389 -127q134 0 251 49t203.5 139t136.5 224.5t50 296.5t-57 295.5t-160 226.5z" />
<glyph unicode="&#xd9;" horiz-adv-x="1449" d="M190 516v918h50v-918q0 -118 38 -213.5t104.5 -156.5t154 -93.5t188.5 -32.5t188.5 32.5t154 93.5t104.5 156.5t38 213.5v918h50v-918q0 -130 -42 -234t-115 -170.5t-169.5 -101.5t-208.5 -35t-208.5 35t-169.5 101.5t-115 170.5t-42 234zM496 1739l45 41l223 -234h-47z " />
<glyph unicode="&#xda;" horiz-adv-x="1449" d="M190 516v918h50v-918q0 -118 38 -213.5t104.5 -156.5t154 -93.5t188.5 -32.5t188.5 32.5t154 93.5t104.5 156.5t38 213.5v918h50v-918q0 -130 -42 -234t-115 -170.5t-169.5 -101.5t-208.5 -35t-208.5 35t-169.5 101.5t-115 170.5t-42 234zM686 1546l223 234l45 -41 l-221 -193h-47z" />
<glyph unicode="&#xdb;" horiz-adv-x="1449" d="M190 516v918h50v-918q0 -118 38 -213.5t104.5 -156.5t154 -93.5t188.5 -32.5t188.5 32.5t154 93.5t104.5 156.5t38 213.5v918h50v-918q0 -130 -42 -234t-115 -170.5t-169.5 -101.5t-208.5 -35t-208.5 35t-169.5 101.5t-115 170.5t-42 234zM422 1546l268 205h70l268 -205 h-45l-256 160h-2l-258 -160h-45z" />
<glyph unicode="&#xdc;" horiz-adv-x="1449" d="M190 516v918h50v-918q0 -118 38 -213.5t104.5 -156.5t154 -93.5t188.5 -32.5t188.5 32.5t154 93.5t104.5 156.5t38 213.5v918h50v-918q0 -130 -42 -234t-115 -170.5t-169.5 -101.5t-208.5 -35t-208.5 35t-169.5 101.5t-115 170.5t-42 234zM512 1602v96h68v-96h-68z M872 1602v96h68v-96h-68z" />
<glyph unicode="&#xdd;" horiz-adv-x="1290" d="M82 1434h61l500 -799h4l500 799h61l-538 -842v-592h-49v592zM606 1546l223 234l45 -41l-221 -193h-47z" />
<glyph unicode="&#xde;" horiz-adv-x="1329" d="M197 0v1434h49v-306h514q120 0 209.5 -34.5t139.5 -94t73.5 -128t23.5 -146.5q0 -58 -14.5 -114t-48.5 -110t-84 -94t-128.5 -65t-174.5 -25h-510v-317h-49zM246 362h510q86 0 155.5 22t114.5 58t75 84t43 97.5t13 101.5q0 68 -21 129t-65.5 114t-124 84t-186.5 31h-514 v-721z" />
<glyph unicode="&#xdf;" horiz-adv-x="1257" d="M197 0v1145q0 193 115 303.5t300 110.5q188 0 306 -105.5t118 -288.5q0 -62 -19.5 -119.5t-58 -106.5t-102 -85t-145.5 -51q205 -18 316.5 -133.5t111.5 -272.5q0 -190 -131 -305t-334 -115q-113 0 -203 25l14 49q78 -24 189 -24q179 0 297.5 101t118.5 269 q0 163 -127.5 271t-350.5 108h-86v49h80q82 0 148 20t108.5 53.5t71.5 78t41 91.5t12 97q0 167 -104 257.5t-271 90.5q-164 0 -265 -97t-101 -271v-1145h-49z" />
<glyph unicode="&#xe0;" horiz-adv-x="1015" d="M113 215q0 312 653 336v219q0 105 -65.5 170.5t-198.5 65.5q-160 0 -324 -88l-24 45q69 37 162.5 62.5t185.5 25.5q157 0 235 -77t78 -204v-598q0 -63 31.5 -97t87.5 -34v-41q-70 0 -114 39t-52 108q-58 -74 -156.5 -123t-212.5 -49q-130 0 -208 65t-78 175zM162 215 q0 -89 64.5 -142t172.5 -53q118 0 218 54t149 131v303q-86 -3 -162 -11.5t-160.5 -29.5t-144 -51.5t-98.5 -82.5t-39 -118zM233 1434l43 36l285 -329h-41z" />
<glyph unicode="&#xe1;" horiz-adv-x="1015" d="M113 215q0 312 653 336v219q0 105 -65.5 170.5t-198.5 65.5q-160 0 -324 -88l-24 45q69 37 162.5 62.5t185.5 25.5q157 0 235 -77t78 -204v-598q0 -63 31.5 -97t87.5 -34v-41q-70 0 -114 39t-52 108q-58 -74 -156.5 -123t-212.5 -49q-130 0 -208 65t-78 175zM162 215 q0 -89 64.5 -142t172.5 -53q118 0 218 54t149 131v303q-86 -3 -162 -11.5t-160.5 -29.5t-144 -51.5t-98.5 -82.5t-39 -118zM483 1141l285 329l43 -36l-287 -293h-41z" />
<glyph unicode="&#xe2;" horiz-adv-x="1015" d="M113 215q0 312 653 336v219q0 105 -65.5 170.5t-198.5 65.5q-160 0 -324 -88l-24 45q69 37 162.5 62.5t185.5 25.5q157 0 235 -77t78 -204v-598q0 -63 31.5 -97t87.5 -34v-41q-70 0 -114 39t-52 108q-58 -74 -156.5 -123t-212.5 -49q-130 0 -208 65t-78 175zM162 215 q0 -89 64.5 -142t172.5 -53q118 0 218 54t149 131v303q-86 -3 -162 -11.5t-160.5 -29.5t-144 -51.5t-98.5 -82.5t-39 -118zM227 1141l262 317h68l262 -317h-43l-252 270h-2l-252 -270h-43z" />
<glyph unicode="&#xe3;" horiz-adv-x="1015" d="M113 215q0 312 653 336v219q0 105 -65.5 170.5t-198.5 65.5q-160 0 -324 -88l-24 45q69 37 162.5 62.5t185.5 25.5q157 0 235 -77t78 -204v-598q0 -63 31.5 -97t87.5 -34v-41q-70 0 -114 39t-52 108q-58 -74 -156.5 -123t-212.5 -49q-130 0 -208 65t-78 175zM162 215 q0 -89 64.5 -142t172.5 -53q118 0 218 54t149 131v303q-86 -3 -162 -11.5t-160.5 -29.5t-144 -51.5t-98.5 -82.5t-39 -118zM264 1223q-9 83 27.5 130.5t97.5 47.5q32 0 62.5 -16.5t55.5 -39.5t48.5 -46t50 -39.5t51.5 -16.5q42 0 65.5 35t16.5 96h43q9 -83 -27.5 -130.5 t-97.5 -47.5q-32 0 -62.5 16.5t-55.5 39.5t-48.5 46t-50 39.5t-51.5 16.5q-42 0 -65.5 -35t-16.5 -96h-43z" />
<glyph unicode="&#xe4;" horiz-adv-x="1015" d="M113 215q0 312 653 336v219q0 105 -65.5 170.5t-198.5 65.5q-160 0 -324 -88l-24 45q69 37 162.5 62.5t185.5 25.5q157 0 235 -77t78 -204v-598q0 -63 31.5 -97t87.5 -34v-41q-70 0 -114 39t-52 108q-58 -74 -156.5 -123t-212.5 -49q-130 0 -208 65t-78 175zM162 215 q0 -89 64.5 -142t172.5 -53q118 0 218 54t149 131v303q-86 -3 -162 -11.5t-160.5 -29.5t-144 -51.5t-98.5 -82.5t-39 -118zM319 1251v97h68v-97h-68zM659 1251v97h68v-97h-68z" />
<glyph unicode="&#xe5;" horiz-adv-x="1015" d="M113 215q0 312 653 336v219q0 105 -65.5 170.5t-198.5 65.5q-160 0 -324 -88l-24 45q69 37 162.5 62.5t185.5 25.5q157 0 235 -77t78 -204v-598q0 -63 31.5 -97t87.5 -34v-41q-70 0 -114 39t-52 108q-58 -74 -156.5 -123t-212.5 -49q-130 0 -208 65t-78 175zM162 215 q0 -89 64.5 -142t172.5 -53q118 0 218 54t149 131v303q-86 -3 -162 -11.5t-160.5 -29.5t-144 -51.5t-98.5 -82.5t-39 -118zM340 1321q0 75 53.5 128.5t128.5 53.5t129 -53.5t54 -128.5q0 -76 -54 -129t-129 -53t-128.5 53t-53.5 129zM375 1321q0 -62 43 -106t104 -44 t104.5 44t43.5 106q0 61 -43 104t-105 43t-104.5 -43t-42.5 -104z" />
<glyph unicode="&#xe6;" horiz-adv-x="1761" d="M113 215q0 312 653 336v219q0 105 -65.5 170.5t-198.5 65.5q-160 0 -324 -88l-24 45q69 37 162.5 62.5t185.5 25.5q154 0 230 -74t81 -203q56 131 166 204t254 73q100 0 176 -33t122 -93t68.5 -138t22.5 -173q0 -29 -4 -57h-803q-4 -273 106 -405t312 -132q86 0 171.5 30 t147.5 75l29 -41q-63 -47 -157.5 -78t-190.5 -31q-303 0 -412 246q-55 -105 -166.5 -175.5t-255.5 -70.5q-130 0 -208 65t-78 175zM162 215q0 -89 64.5 -142t172.5 -53q129 0 243 69.5t157 189.5q-33 112 -33 229q-86 -3 -162 -11.5t-160.5 -29.5t-144 -51.5t-98.5 -82.5 t-39 -118zM819 602h754q2 85 -16 156t-57.5 127.5t-107.5 88.5t-159 32q-167 0 -280.5 -109.5t-133.5 -294.5z" />
<glyph unicode="&#xe7;" horiz-adv-x="1021" d="M133 528q0 237 126 380t329 143q177 0 295 -88l-29 -41q-116 84 -266 84q-181 0 -293.5 -130.5t-112.5 -347.5q0 -233 110 -370.5t296 -137.5q92 0 158.5 27t130.5 78l32 -37q-67 -56 -142 -84.5t-179 -28.5h-17q-20 -112 -81.5 -217t-155.5 -190l-53 26q201 170 247 386 q-183 20 -289 166t-106 382z" />
<glyph unicode="&#xe8;" horiz-adv-x="1128" d="M133 528q0 236 131 379.5t336 143.5q100 0 176 -33t122 -93t68.5 -138t22.5 -173q0 -29 -4 -57h-803v-29q0 -241 105 -374.5t313 -133.5q86 0 172 30t148 75l28 -41q-63 -47 -157.5 -78t-190.5 -31q-232 0 -349.5 145.5t-117.5 407.5zM186 602h754q2 85 -16 156 t-57.5 127.5t-107.5 88.5t-159 32q-167 0 -280.5 -109.5t-133.5 -294.5zM303 1434l43 36l285 -329h-41z" />
<glyph unicode="&#xe9;" horiz-adv-x="1128" d="M133 528q0 236 131 379.5t336 143.5q100 0 176 -33t122 -93t68.5 -138t22.5 -173q0 -29 -4 -57h-803v-29q0 -241 105 -374.5t313 -133.5q86 0 172 30t148 75l28 -41q-63 -47 -157.5 -78t-190.5 -31q-232 0 -349.5 145.5t-117.5 407.5zM186 602h754q2 85 -16 156 t-57.5 127.5t-107.5 88.5t-159 32q-167 0 -280.5 -109.5t-133.5 -294.5zM553 1141l285 329l43 -36l-287 -293h-41z" />
<glyph unicode="&#xea;" horiz-adv-x="1128" d="M133 528q0 236 131 379.5t336 143.5q100 0 176 -33t122 -93t68.5 -138t22.5 -173q0 -29 -4 -57h-803v-29q0 -241 105 -374.5t313 -133.5q86 0 172 30t148 75l28 -41q-63 -47 -157.5 -78t-190.5 -31q-232 0 -349.5 145.5t-117.5 407.5zM186 602h754q2 85 -16 156 t-57.5 127.5t-107.5 88.5t-159 32q-167 0 -280.5 -109.5t-133.5 -294.5zM297 1141l262 317h68l262 -317h-43l-252 270h-2l-252 -270h-43z" />
<glyph unicode="&#xeb;" horiz-adv-x="1128" d="M133 528q0 236 131 379.5t336 143.5q100 0 176 -33t122 -93t68.5 -138t22.5 -173q0 -29 -4 -57h-803v-29q0 -241 105 -374.5t313 -133.5q86 0 172 30t148 75l28 -41q-63 -47 -157.5 -78t-190.5 -31q-232 0 -349.5 145.5t-117.5 407.5zM186 602h754q2 85 -16 156 t-57.5 127.5t-107.5 88.5t-159 32q-167 0 -280.5 -109.5t-133.5 -294.5zM389 1251v97h68v-97h-68zM729 1251v97h68v-97h-68z" />
<glyph unicode="&#xec;" d="M-68 1434l43 36l285 -329h-41zM197 0v1026h49v-1026h-49z" />
<glyph unicode="&#xed;" d="M182 1141l285 329l43 -36l-287 -293h-41zM197 0v1026h49v-1026h-49z" />
<glyph unicode="&#xee;" d="M-74 1141l262 317h68l262 -317h-43l-252 270h-2l-252 -270h-43zM197 0v1026h49v-1026h-49z" />
<glyph unicode="&#xef;" d="M18 1251v97h68v-97h-68zM197 0v1026h49v-1026h-49zM358 1251v97h68v-97h-68z" />
<glyph unicode="&#xf0;" horiz-adv-x="1155" d="M127 465q0 209 116.5 335t315.5 126q112 0 212 -43t173 -121q-46 142 -122.5 263t-198.5 253l-203 -123l-23 39l195 117q-87 90 -246 235h68q155 -143 221 -213l190 115l23 -37q-86 -54 -182 -111q176 -191 269 -383.5t93 -410.5q0 -244 -122.5 -387.5t-327.5 -143.5 t-328 132.5t-123 357.5zM176 465q0 -203 109.5 -321.5t292.5 -118.5t292 129.5t109 351.5q0 75 -21 182q-158 189 -399 189q-178 0 -280.5 -112t-102.5 -300z" />
<glyph unicode="&#xf1;" horiz-adv-x="1138" d="M188 0v1026h41l9 -168q182 193 403 193q168 0 240.5 -86.5t72.5 -243.5v-721h-49v721q0 136 -61 210.5t-203 74.5q-231 0 -403 -213v-793h-50zM313 1223q-9 83 27.5 130.5t97.5 47.5q32 0 63 -16.5t55.5 -39.5t48.5 -46t50.5 -39.5t51.5 -16.5q41 0 64.5 35t16.5 96h43 q9 -83 -27 -130.5t-97 -47.5q-32 0 -63 16.5t-55.5 39.5t-48.5 46t-50.5 39.5t-51.5 16.5q-42 0 -65.5 -35t-16.5 -96h-43z" />
<glyph unicode="&#xf2;" horiz-adv-x="1202" d="M133 528q0 235 132 379t337 144t336 -144t131 -379q0 -252 -128.5 -402.5t-338.5 -150.5q-212 0 -340.5 150.5t-128.5 402.5zM182 528q0 -231 115 -369.5t305 -138.5q188 0 303 138.5t115 369.5q0 215 -117.5 346.5t-300.5 131.5q-184 0 -302 -132t-118 -346zM311 1434 l43 36l285 -329h-41z" />
<glyph unicode="&#xf3;" horiz-adv-x="1202" d="M133 528q0 235 132 379t337 144t336 -144t131 -379q0 -252 -128.5 -402.5t-338.5 -150.5q-212 0 -340.5 150.5t-128.5 402.5zM182 528q0 -231 115 -369.5t305 -138.5q188 0 303 138.5t115 369.5q0 215 -117.5 346.5t-300.5 131.5q-184 0 -302 -132t-118 -346zM561 1141 l285 329l43 -36l-287 -293h-41z" />
<glyph unicode="&#xf4;" horiz-adv-x="1202" d="M133 528q0 235 132 379t337 144t336 -144t131 -379q0 -252 -128.5 -402.5t-338.5 -150.5q-212 0 -340.5 150.5t-128.5 402.5zM182 528q0 -231 115 -369.5t305 -138.5q188 0 303 138.5t115 369.5q0 215 -117.5 346.5t-300.5 131.5q-184 0 -302 -132t-118 -346zM305 1141 l262 317h68l262 -317h-43l-252 270h-2l-252 -270h-43z" />
<glyph unicode="&#xf5;" horiz-adv-x="1202" d="M133 528q0 235 132 379t337 144t336 -144t131 -379q0 -252 -128.5 -402.5t-338.5 -150.5q-212 0 -340.5 150.5t-128.5 402.5zM182 528q0 -231 115 -369.5t305 -138.5q188 0 303 138.5t115 369.5q0 215 -117.5 346.5t-300.5 131.5q-184 0 -302 -132t-118 -346zM342 1223 q-9 83 27.5 130.5t97.5 47.5q32 0 62.5 -16.5t55.5 -39.5t48.5 -46t50 -39.5t51.5 -16.5q42 0 65.5 35t16.5 96h43q9 -83 -27.5 -130.5t-97.5 -47.5q-32 0 -62.5 16.5t-55.5 39.5t-48.5 46t-50 39.5t-51.5 16.5q-42 0 -65.5 -35t-16.5 -96h-43z" />
<glyph unicode="&#xf6;" horiz-adv-x="1202" d="M133 528q0 235 132 379t337 144t336 -144t131 -379q0 -252 -128.5 -402.5t-338.5 -150.5q-212 0 -340.5 150.5t-128.5 402.5zM182 528q0 -231 115 -369.5t305 -138.5q188 0 303 138.5t115 369.5q0 215 -117.5 346.5t-300.5 131.5q-184 0 -302 -132t-118 -346zM397 1251 v97h68v-97h-68zM737 1251v97h68v-97h-68z" />
<glyph unicode="&#xf7;" horiz-adv-x="1251" d="M113 489v50h1026v-50h-1026zM600 57v172h49v-172h-49zM600 799v172h49v-172h-49z" />
<glyph unicode="&#xf8;" horiz-adv-x="1202" d="M127 -82l143 197q-137 149 -137 413q0 235 132 379t337 144q166 0 289 -99l137 189l39 -29l-141 -192q143 -143 143 -392q0 -252 -128.5 -402.5t-338.5 -150.5q-175 0 -295 105l-141 -191zM182 528q0 -236 119 -374l561 759q-110 93 -260 93q-184 0 -302 -132t-118 -346z M334 119q110 -99 268 -99q188 0 303 138.5t115 369.5q0 222 -125 353z" />
<glyph unicode="&#xf9;" horiz-adv-x="1138" d="M184 305v721h49v-721q0 -136 61.5 -210.5t203.5 -74.5q227 0 403 211v795h49v-1026h-37l-12 166q-184 -191 -403 -191q-168 0 -241 86.5t-73 243.5zM279 1434l43 36l284 -329h-41z" />
<glyph unicode="&#xfa;" horiz-adv-x="1138" d="M184 305v721h49v-721q0 -136 61.5 -210.5t203.5 -74.5q227 0 403 211v795h49v-1026h-37l-12 166q-184 -191 -403 -191q-168 0 -241 86.5t-73 243.5zM528 1141l285 329l43 -36l-287 -293h-41z" />
<glyph unicode="&#xfb;" horiz-adv-x="1138" d="M184 305v721h49v-721q0 -136 61.5 -210.5t203.5 -74.5q227 0 403 211v795h49v-1026h-37l-12 166q-184 -191 -403 -191q-168 0 -241 86.5t-73 243.5zM272 1141l263 317h67l262 -317h-43l-252 270h-2l-252 -270h-43z" />
<glyph unicode="&#xfc;" horiz-adv-x="1138" d="M184 305v721h49v-721q0 -136 61.5 -210.5t203.5 -74.5q227 0 403 211v795h49v-1026h-37l-12 166q-184 -191 -403 -191q-168 0 -241 86.5t-73 243.5zM365 1251v97h67v-97h-67zM705 1251v97h67v-97h-67z" />
<glyph unicode="&#xfd;" horiz-adv-x="950" d="M49 -408l17 43q45 -20 96 -20q71 0 118 33t80 121l91 239l-390 1018h58l356 -948h4l352 948h58l-483 -1274q-38 -100 -98 -141t-146 -41q-61 0 -113 22zM438 1141l285 329l43 -36l-287 -293h-41z" />
<glyph unicode="&#xfe;" horiz-adv-x="1163" d="M197 -410v1956h49v-674q171 179 354 179q195 0 312.5 -142.5t117.5 -380.5q0 -254 -112 -403.5t-316 -149.5q-195 0 -356 183v-568h-49zM246 219q74 -91 166.5 -145t189.5 -54q180 0 279.5 138t99.5 370q0 217 -104 347.5t-277 130.5q-186 0 -354 -195v-592z" />
<glyph unicode="&#xff;" horiz-adv-x="950" d="M49 -408l17 43q45 -20 96 -20q71 0 118 33t80 121l91 239l-390 1018h58l356 -948h4l352 948h58l-483 -1274q-38 -100 -98 -141t-146 -41q-61 0 -113 22zM274 1251v97h68v-97h-68zM614 1251v97h68v-97h-68z" />
<glyph unicode="&#x152;" horiz-adv-x="2564" d="M135 731q0 158 54.5 294.5t148 231t220 148t267.5 53.5q220 0 394.5 -129.5t244.5 -345.5v451h928v-45h-879v-635h795v-45h-795v-664h893v-45h-942v457q-69 -224 -241 -353t-398 -129q-144 0 -271 54t-219.5 151t-146 239.5t-53.5 311.5zM184 731q0 -158 50 -292 t136 -225.5t204 -142.5t251 -51t250 51t203 142.5t136 225.5t50 292q0 147 -51.5 275t-138 217t-203.5 139.5t-246 50.5q-130 0 -247.5 -50.5t-204.5 -139.5t-138 -217t-51 -275z" />
<glyph unicode="&#x153;" horiz-adv-x="2015" d="M133 528q0 235 132 379t337 144q167 0 286 -101t156 -274q37 175 155.5 275t287.5 100q100 0 176 -33t122 -93t68.5 -138t22.5 -173q0 -29 -4 -57h-803q-3 -262 102.5 -399.5t315.5 -137.5q86 0 171.5 30t147.5 75l29 -41q-63 -47 -157.5 -78t-190.5 -31q-377 0 -445 385 q-37 -180 -153.5 -282.5t-286.5 -102.5q-212 0 -340.5 150.5t-128.5 402.5zM182 528q0 -231 115 -369.5t305 -138.5q188 0 303 138.5t115 369.5q0 215 -117.5 346.5t-300.5 131.5q-184 0 -302 -132t-118 -346zM1073 602h754q2 85 -16 156t-57.5 127.5t-107.5 88.5t-159 32 q-167 0 -280.5 -109.5t-133.5 -294.5z" />
<glyph unicode="&#x178;" horiz-adv-x="1290" d="M82 1434h61l500 -799h4l500 799h61l-538 -842v-592h-49v592zM432 1602v96h68v-96h-68zM793 1602v96h67v-96h-67z" />
<glyph unicode="&#x2c6;" horiz-adv-x="1351" d="M379 1141l262 317h68l262 -317h-43l-252 270h-2l-252 -270h-43z" />
<glyph unicode="&#x2dc;" horiz-adv-x="1351" d="M416 1223q-9 83 27.5 130.5t97.5 47.5q32 0 62.5 -16.5t55.5 -39.5t48.5 -46t50 -39.5t51.5 -16.5q42 0 65.5 35t16.5 96h43q9 -83 -27.5 -130.5t-97.5 -47.5q-32 0 -62.5 16.5t-55.5 39.5t-48.5 46t-50 39.5t-51.5 16.5q-42 0 -65.5 -35t-16.5 -96h-43z" />
<glyph unicode="&#x2000;" horiz-adv-x="890" />
<glyph unicode="&#x2001;" horiz-adv-x="1780" />
<glyph unicode="&#x2002;" horiz-adv-x="890" />
<glyph unicode="&#x2003;" horiz-adv-x="1780" />
<glyph unicode="&#x2004;" horiz-adv-x="593" />
<glyph unicode="&#x2005;" horiz-adv-x="445" />
<glyph unicode="&#x2006;" horiz-adv-x="296" />
<glyph unicode="&#x2007;" horiz-adv-x="296" />
<glyph unicode="&#x2008;" horiz-adv-x="222" />
<glyph unicode="&#x2009;" horiz-adv-x="356" />
<glyph unicode="&#x200a;" horiz-adv-x="98" />
<glyph unicode="&#x2010;" horiz-adv-x="749" d="M102 500v49h545v-49h-545z" />
<glyph unicode="&#x2011;" horiz-adv-x="749" d="M102 500v49h545v-49h-545z" />
<glyph unicode="&#x2012;" horiz-adv-x="749" d="M102 500v49h545v-49h-545z" />
<glyph unicode="&#x2013;" horiz-adv-x="1132" d="M102 500v49h928v-49h-928z" />
<glyph unicode="&#x2014;" horiz-adv-x="1882" d="M102 500v49h1678v-49h-1678z" />
<glyph unicode="&#x2018;" horiz-adv-x="397" d="M174 981v182q0 106 33.5 171t105.5 100l21 -33q-64 -38 -87.5 -92.5t-23.5 -145.5v-182h-49z" />
<glyph unicode="&#x2019;" horiz-adv-x="397" d="M63 1014q65 38 88 92t23 145v183h49v-183q0 -105 -33.5 -170t-105.5 -100z" />
<glyph unicode="&#x201a;" horiz-adv-x="397" d="M63 -238q64 38 87.5 92.5t23.5 145.5v182h49v-182q0 -105 -33.5 -170t-105.5 -100z" />
<glyph unicode="&#x201c;" horiz-adv-x="763" d="M174 981v182q0 106 33.5 171t105.5 100l21 -33q-64 -38 -87.5 -92.5t-23.5 -145.5v-182h-49zM541 981v182q0 106 33.5 171t105.5 100l20 -33q-64 -38 -87 -92t-23 -146v-182h-49z" />
<glyph unicode="&#x201d;" horiz-adv-x="763" d="M63 1014q65 38 88 92t23 145v183h49v-183q0 -105 -33.5 -170t-105.5 -100zM430 1014q65 38 88 92t23 145v183h49v-183q0 -105 -33.5 -170t-105.5 -100z" />
<glyph unicode="&#x201e;" horiz-adv-x="763" d="M63 -238q64 38 87.5 92.5t23.5 145.5v182h49v-182q0 -105 -33.5 -170t-105.5 -100zM430 -238q64 38 87.5 92.5t23.5 145.5v182h49v-182q0 -105 -33.5 -170t-105.5 -100z" />
<glyph unicode="&#x2022;" horiz-adv-x="1099" d="M307 514q0 101 71.5 171.5t172.5 70.5t171.5 -70.5t70.5 -171.5t-70.5 -171.5t-171.5 -70.5t-172.5 70.5t-71.5 171.5z" />
<glyph unicode="&#x2026;" horiz-adv-x="1269" d="M174 0v182h49v-182h-49zM610 0v182h49v-182h-49zM1047 0v182h49v-182h-49z" />
<glyph unicode="&#x202f;" horiz-adv-x="356" />
<glyph unicode="&#x2039;" horiz-adv-x="696" d="M113 514l413 512l37 -31l-387 -481l387 -483l-37 -31z" />
<glyph unicode="&#x203a;" horiz-adv-x="696" d="M133 31l387 483l-387 481l37 31l414 -512l-414 -514z" />
<glyph unicode="&#x205f;" horiz-adv-x="445" />
<glyph unicode="&#x20ac;" horiz-adv-x="1253" d="M72 352v45h194q-16 75 -16 152q0 63 12 121h-190v45h200q49 176 193 281.5t334 105.5q201 0 354 -119l-29 -37q-140 111 -325 111q-168 0 -297.5 -93t-179.5 -249h475v-45h-486q-12 -58 -12 -121q0 -77 16 -152h482v-45h-467q51 -154 175.5 -241.5t293.5 -87.5 q194 0 336 116l36 -30q-154 -132 -372 -132q-189 0 -329 100t-194 275h-204z" />
<glyph unicode="&#x2122;" horiz-adv-x="1783" d="M76 1386v48h706v-48h-336v-710h-49v710h-321zM924 676v758h67l293 -394l293 394h68v-758h-50v698l-311 -416l-311 416v-698h-49z" />
<glyph unicode="&#x25fc;" horiz-adv-x="1024" d="M0 0v1024h1024v-1024h-1024z" />
</font>
</defs>
</svg>
