<?xml version="1.0" standalone="no"?>
<!DOCTYPE svg PUBLIC "-//W3C//DTD SVG 1.1//EN" "http://www.w3.org/Graphics/SVG/1.1/DTD/svg11.dtd" >
<svg xmlns="http://www.w3.org/2000/svg">
<metadata></metadata>
<defs>
<font id="alright_sansultra" horiz-adv-x="1480" >
<font-face units-per-em="2048" ascent="1556" descent="-492" />
<missing-glyph horiz-adv-x="468" />
<glyph unicode="&#xfb01;" horiz-adv-x="1490" d="M16 827v281h154v16q0 229 136 338t442 109q146 0 303.5 -35t271.5 -96l-147 -275q-75 37 -179 63.5t-192 26.5q-110 0 -150.5 -31.5t-40.5 -109.5v-8h252v-279h-252v-827h-444v827h-154zM963 0v1106h444v-1106h-444z" />
<glyph unicode="&#xfb02;" horiz-adv-x="1501" d="M16 827v281h154v16q0 222 159.5 334.5t473.5 112.5q315 0 462.5 -113.5t147.5 -349.5v-1108h-444v1112q0 77 -37.5 110t-138.5 33t-140 -33t-39 -108v-8h258v-279h-258v-827h-444v827h-154z" />
<glyph unicode="&#xfb03;" horiz-adv-x="2283" d="M16 827v281h154v12q0 430 502 430q221 0 418 -96q138 117 448 117q146 0 304 -35t272 -96l-148 -275q-75 37 -178 63.5t-191 26.5q-111 0 -150.5 -31t-39.5 -110v-8h252v-279h-252v-827h-444v827h-349v-827h-444v827h-154zM614 1106h349v18q0 51 4 76q-100 47 -219 47 q-72 0 -103 -32.5t-31 -81.5v-27zM1753 0v1106h445v-1106h-445z" />
<glyph unicode="&#xfb04;" horiz-adv-x="2291" d="M16 827v281h154v12q0 430 502 430q229 0 432 -104q158 125 489 125q315 0 464 -113.5t149 -349.5v-1108h-445v1112q0 76 -38.5 109.5t-139.5 33.5t-138.5 -33t-37.5 -108v-8h256v-279h-256v-827h-444v827h-349v-827h-444v827h-154zM614 1106h349v18q0 26 4 76 q-100 47 -219 47q-72 0 -103 -32.5t-31 -81.5v-27z" />
<glyph horiz-adv-x="0" />
<glyph horiz-adv-x="682" />
<glyph unicode=" "  horiz-adv-x="468" />
<glyph unicode="&#x09;" horiz-adv-x="468" />
<glyph unicode="&#xa0;" horiz-adv-x="468" />
<glyph unicode="!" horiz-adv-x="581" d="M72 1120v314h438v-314l-109 -645h-221zM88 0v338h401v-338h-401z" />
<glyph unicode="&#x22;" horiz-adv-x="1087" d="M63 688v746h422l-182 -746h-240zM600 688v746h422l-182 -746h-240z" />
<glyph unicode="#" horiz-adv-x="1409" d="M45 233v279h236l28 172h-205v281h250l37 231h324l-39 -231h176l39 231h319l-36 -231h190v-281h-236l-28 -172h207v-279h-250l-37 -233h-324l37 233h-178l-37 -233h-319l37 233h-191zM602 512h176l29 172h-176z" />
<glyph unicode="$" horiz-adv-x="1216" d="M53 115l183 295q168 -92 327 -111v152q-185 42 -262 72q-211 83 -238 250q-4 26 -4 54q0 164 127.5 269.5t348.5 122.5v159h163v-159q215 -13 402 -103l-162 -295q-140 67 -270 84v-137q44 -9 71.5 -15.5t72.5 -19t75.5 -24t70 -30t66 -39t54.5 -49.5t45 -61.5 t27.5 -74.5t10.5 -90q0 -157 -120.5 -262t-342.5 -123v-252h-163v249q-269 18 -482 138zM465 856q0 -22 25 -37t73 -28v118q-55 -3 -76.5 -16t-21.5 -37zM668 297q54 4 75 17.5t21 37.5q0 45 -96 72v-127z" />
<glyph unicode="%" horiz-adv-x="1839" d="M57 870q0 154 107.5 247t273.5 93q168 0 275.5 -93t107.5 -247q0 -160 -105 -254t-278 -94q-169 0 -275 94.5t-106 253.5zM297 0l993 1196h242l-991 -1196h-244zM319 870q0 -68 30.5 -107.5t88.5 -39.5q61 0 92 39.5t31 107.5q0 63 -33 102.5t-90 39.5q-55 0 -87 -39.5 t-32 -102.5zM1018 334q0 154 107.5 247t273.5 93q168 0 275.5 -93t107.5 -247q0 -160 -105 -254t-278 -94q-169 0 -275 94.5t-106 253.5zM1280 334q0 -68 30.5 -108t88.5 -40q61 0 92 40t31 108q0 63 -33 102t-90 39q-55 0 -87 -39t-32 -102z" />
<glyph unicode="&#x26;" horiz-adv-x="1542" d="M53 410q0 122 70 223t190 174q-90 132 -90 268q0 168 132.5 276.5t328.5 108.5q146 0 261 -54.5t220 -156.5l-258 -229q-121 108 -198 108q-39 0 -62.5 -21.5t-23.5 -53.5q0 -28 17.5 -58.5t36 -51t54.5 -54.5q122 -116 297 -258q27 91 27 200h379q0 -230 -103 -428 q125 -90 205 -143l-236 -278q-31 21 -206 143q-211 -152 -492 -152q-245 0 -397 125t-152 312zM444 461q0 -77 56 -113.5t145 -36.5t156 33q-155 121 -291 248q-31 -26 -48.5 -61.5t-17.5 -69.5z" />
<glyph unicode="'" horiz-adv-x="550" d="M63 688v746h422l-182 -746h-240z" />
<glyph unicode="(" horiz-adv-x="892" d="M86 567q0 552 336 977h450q-370 -449 -370 -977q0 -520 370 -977h-446q-340 426 -340 977z" />
<glyph unicode=")" horiz-adv-x="892" d="M20 -410q371 459 371 977q0 527 -371 977h451q336 -425 336 -977q0 -551 -340 -977h-447z" />
<glyph unicode="*" horiz-adv-x="856" d="M72 1010l2 254l202 -27l5 4l-78 186l227 64l43 -197l8 -2l154 119l139 -197l-166 -84v-8l158 -106l-152 -187l-143 140l-10 -2l-62 -201l-217 78l90 184l-4 6z" />
<glyph unicode="+" horiz-adv-x="1257" d="M57 397v348h373v394h399v-394h371v-348h-371v-397h-399v397h-373z" />
<glyph unicode="," horiz-adv-x="567" d="M74 -195q87 21 132.5 74.5t45.5 120.5h-172v408h409v-308q0 -371 -344 -450z" />
<glyph unicode="-" horiz-adv-x="778" d="M59 393v359h660v-359h-660z" />
<glyph unicode="." horiz-adv-x="563" d="M80 0v408h409v-408h-409z" />
<glyph unicode="/" horiz-adv-x="1247" d="M-27 -410l901 1956h400l-901 -1956h-400z" />
<glyph unicode="0" horiz-adv-x="1425" d="M63 600q0 191 87.5 335t234 217t330.5 73q135 0 253 -43t205.5 -121.5t138 -197.5t50.5 -263q0 -145 -50.5 -264.5t-138 -198.5t-205.5 -121.5t-253 -42.5q-137 0 -256 42.5t-207 121.5t-138.5 198.5t-50.5 264.5zM532 600q0 -125 46.5 -196.5t136.5 -71.5 q89 0 134.5 71.5t45.5 196.5q0 123 -45.5 193.5t-134.5 70.5q-90 0 -136.5 -70.5t-46.5 -193.5z" />
<glyph unicode="1" horiz-adv-x="870" d="M-25 1016l474 184h315v-1200h-471v764l-184 -57z" />
<glyph unicode="2" horiz-adv-x="1259" d="M88 1069q285 156 576 156q263 0 412 -101.5t149 -279.5q0 -79 -29.5 -142.5t-79 -105.5t-109.5 -74.5t-125.5 -56t-123 -42.5t-106 -42t-70.5 -47h600v-334h-1082l-2 74q-3 101 18.5 186.5t59.5 145.5t88.5 108.5t107 81t113.5 58.5t108.5 45t91.5 36t63.5 36.5 t23.5 41.5q0 66 -125 66q-178 0 -399 -123z" />
<glyph unicode="3" horiz-adv-x="1292" d="M33 -129l166 311q195 -106 376 -106q101 0 161.5 35.5t60.5 91.5q0 36 -17.5 61t-51 38t-74 18.5t-95.5 5.5h-213v317h203q101 0 154 25.5t53 93.5q0 51 -42 86t-120 35q-31 0 -62 -3.5t-52 -7t-55 -14t-48 -15t-56 -20t-55 -20.5l-166 299q135 62 261 91.5t282 29.5 q261 0 417.5 -107t156.5 -293q0 -107 -45.5 -171.5t-141.5 -125.5q122 -68 174.5 -153t52.5 -195q0 -112 -55.5 -199t-150 -138.5t-210 -78t-245.5 -26.5q-287 0 -563 135z" />
<glyph unicode="4" horiz-adv-x="1425" d="M59 326l758 870h404v-872h133v-322h-133v-240h-443v240h-571zM463 324h315v383z" />
<glyph unicode="5" horiz-adv-x="1292" d="M55 -123l181 324q178 -105 362 -105q81 0 133.5 38.5t52.5 101.5t-41.5 99t-99.5 36q-97 0 -201 -52l-272 160l31 717h932v-317h-519l-10 -228q103 35 234 35q73 0 143 -25.5t130.5 -76t97 -136t36.5 -194.5q0 -124 -56.5 -225t-151 -163.5t-211.5 -96t-244 -33.5 q-143 0 -265.5 34.5t-261.5 106.5z" />
<glyph unicode="6" horiz-adv-x="1329" d="M59 684q0 157 38.5 286.5t105.5 219t158.5 151.5t195 90.5t217.5 28.5q99 0 214.5 -33.5t219.5 -97.5l-176 -287q-120 76 -262 76q-53 0 -93 -15t-64 -38t-40 -57.5t-23 -66t-11 -71.5q51 33 125 55.5t151 22.5q205 0 329 -118t124 -341q0 -106 -43 -200.5t-119.5 -164.5 t-189.5 -110.5t-246 -40.5q-198 0 -337.5 93t-206.5 251.5t-67 366.5zM539 598q0 -293 145 -293q57 0 93 49t36 133q0 170 -131 170q-65 0 -143 -59z" />
<glyph unicode="7" horiz-adv-x="1179" d="M66 840v356h1060v-326l-473 -1108h-483l502 1078h-606z" />
<glyph unicode="8" horiz-adv-x="1429" d="M70 387q0 119 75.5 212t212.5 151q-104 47 -171.5 124.5t-67.5 174.5q0 130 78.5 224.5t212 140.5t305.5 46q265 0 429.5 -108t164.5 -303q0 -97 -68 -174.5t-172 -124.5q138 -58 215.5 -151t77.5 -212q0 -131 -85.5 -226t-230 -141.5t-331.5 -46.5q-186 0 -330 46.5 t-229.5 141.5t-85.5 226zM532 418q0 -60 53.5 -101t129.5 -41q77 0 130.5 41t53.5 101q0 52 -53.5 101.5t-130.5 66.5q-78 -17 -130.5 -66.5t-52.5 -101.5zM582 1044q0 -55 35.5 -94t97.5 -51q61 12 97 51.5t36 93.5q0 46 -38 77.5t-95 31.5q-58 0 -95.5 -31.5t-37.5 -77.5z " />
<glyph unicode="9" horiz-adv-x="1337" d="M59 702q0 106 43 200.5t119.5 164.5t189.5 111t246 41q198 0 337.5 -93t206.5 -251.5t67 -366.5q0 -157 -38.5 -286.5t-105.5 -219t-158.5 -151.5t-195 -90.5t-217.5 -28.5q-99 0 -214.5 33.5t-219.5 97.5l176 287q120 -76 262 -76q53 0 93 15t64 38t40 57.5t23 66 t11 71.5q-51 -33 -125 -55.5t-151 -22.5q-205 0 -329 117.5t-124 340.5zM514 705q0 -170 131 -170q65 0 143 59q0 293 -145 293q-57 0 -93 -49t-36 -133z" />
<glyph unicode=":" horiz-adv-x="563" d="M80 0v408h409v-408h-409zM80 731v408h409v-408h-409z" />
<glyph unicode=";" horiz-adv-x="567" d="M74 -195q87 21 132.5 74.5t45.5 120.5h-172v408h409v-308q0 -371 -344 -450zM80 731v408h409v-408h-409z" />
<glyph unicode="&#x3c;" horiz-adv-x="1138" d="M63 379v389l1002 371v-434l-473 -138l473 -133v-434z" />
<glyph unicode="=" horiz-adv-x="1257" d="M57 135v348h1143v-348h-1143zM57 657v349h1143v-349h-1143z" />
<glyph unicode="&#x3e;" horiz-adv-x="1138" d="M74 0v434l473 133l-473 138v434l1001 -371v-389z" />
<glyph unicode="?" horiz-adv-x="1226" d="M53 1212q123 120 260 184t303 64q246 0 394.5 -104t148.5 -297q0 -70 -22.5 -128.5t-58.5 -99t-80 -74t-88.5 -60.5t-82.5 -52.5t-63 -55.5t-29 -63l-6 -51h-315q-19 74 -19 129q0 54 18.5 99.5t48 76t65 57t71 47.5t65 41t48 44t18.5 51q0 47 -38 72.5t-85 25.5 q-160 0 -303 -129zM373 0v338h401v-338h-401z" />
<glyph unicode="@" horiz-adv-x="1642" d="M100 590q0 151 58.5 288.5t158 237t237 158.5t288.5 59q114 0 221 -34.5t193.5 -98t151.5 -147t100.5 -187.5t35.5 -215q0 -97 -27.5 -178.5t-72 -135t-101.5 -91.5t-114.5 -55t-112.5 -17q-184 0 -256 129q-100 -100 -215 -100q-95 0 -162 78t-67 206q0 65 13.5 132 t42.5 131t70 114t101.5 80.5t132.5 30.5q62 0 108.5 -29.5t73.5 -77.5l43 86h250l-135 -483q-44 -149 72 -149q36 0 75 20.5t75 59t59.5 104t23.5 145.5q0 113 -46 216t-123.5 178t-184 119t-223.5 44q-125 0 -239.5 -49t-197 -132t-131.5 -197.5t-49 -239.5t49 -239.5 t131.5 -197t197 -131.5t239.5 -49q190 0 350 109l70 -102q-190 -132 -422 -132q-202 0 -372.5 99.5t-270 270t-99.5 372.5zM696 504q0 -90 64 -90q33 0 58.5 25t35.5 69l55 211q-26 39 -71 39q-41 0 -75 -43t-50.5 -100t-16.5 -111z" />
<glyph unicode="A" d="M0 0l489 1434h504l488 -1434h-490l-49 174h-403l-47 -174h-492zM631 506h217l-107 385h-4z" />
<glyph unicode="B" horiz-adv-x="1394" d="M98 0v1434h656q271 0 404.5 -102t133.5 -288q0 -207 -215 -303q119 -38 191.5 -120t72.5 -209q0 -197 -156 -304.5t-421 -107.5h-666zM553 348h195q67 0 106 30t39 89q0 61 -39.5 92t-105.5 31h-195v-242zM553 858h149q134 0 134 115q0 56 -36.5 84t-97.5 28h-149v-227z " />
<glyph unicode="C" horiz-adv-x="1431" d="M51 715q0 154 58 291.5t159.5 237.5t246 158t310.5 58q317 0 568 -211l-250 -299q-71 62 -139.5 95.5t-167.5 33.5q-151 0 -238.5 -98t-87.5 -266t86.5 -264.5t239.5 -96.5q174 0 303 129l262 -276q-129 -117 -272 -175.5t-322 -58.5q-163 0 -304.5 57.5t-240.5 156.5 t-155 236t-56 292z" />
<glyph unicode="D" horiz-adv-x="1492" d="M98 0v1434h535q396 0 602.5 -182.5t206.5 -520.5q0 -356 -200.5 -543.5t-608.5 -187.5h-535zM555 356h123q150 0 227.5 98t77.5 271q0 162 -79.5 257t-225.5 95h-123v-721z" />
<glyph unicode="E" horiz-adv-x="1288" d="M98 0v1434h1106v-392h-649v-149h569v-334h-569v-168h655v-391h-1112z" />
<glyph unicode="F" horiz-adv-x="1265" d="M98 0v1434h1092v-392h-633v-180h543v-362h-543v-500h-459z" />
<glyph unicode="G" horiz-adv-x="1503" d="M51 715q0 99 24 193t68.5 176.5t112.5 151.5t152.5 119t191 77.5t225.5 27.5q179 0 317 -56t259 -157l-242 -289q-150 121 -317 121q-151 0 -240.5 -104t-89.5 -262q0 -167 87 -263t243 -96q97 0 166 39v166h-244v277h649v-674q-247 -189 -590 -189q-172 0 -317.5 57.5 t-244.5 157t-154.5 235.5t-55.5 292z" />
<glyph unicode="H" d="M98 0v1434h459v-516h367v516h458v-1434h-458v532h-367v-532h-459z" />
<glyph unicode="I" horiz-adv-x="655" d="M98 0v1434h459v-1434h-459z" />
<glyph unicode="J" horiz-adv-x="1144" d="M20 240l326 229q86 -96 156 -96q39 0 67.5 26.5t28.5 75.5v959h459v-969q0 -100 -26.5 -181.5t-73.5 -138.5t-113 -96t-143 -57.5t-164 -18.5q-318 0 -517 267z" />
<glyph unicode="K" horiz-adv-x="1478" d="M98 0v1434h459v-549l404 549h483l-410 -514l445 -920h-504l-232 553l-186 -234v-319h-459z" />
<glyph unicode="L" horiz-adv-x="1212" d="M98 0v1434h459v-1045h604v-389h-1063z" />
<glyph unicode="M" horiz-adv-x="1783" d="M98 0v1434h455l340 -473l342 473h451v-1434h-429v813l-364 -489l-365 489v-813h-430z" />
<glyph unicode="N" horiz-adv-x="1519" d="M98 0v1434h430l465 -723v723h428v-1434h-428l-467 717v-717h-428z" />
<glyph unicode="O" horiz-adv-x="1640" d="M51 715q0 149 53.5 283.5t150.5 237t244 163.5t322 61t322 -61t243.5 -163.5t149.5 -237t53 -283.5q0 -147 -53 -281t-149 -236.5t-243 -163.5t-323 -61t-323 61t-243.5 163.5t-150 236.5t-53.5 281zM516 715q0 -157 78.5 -261t226.5 -104t226.5 104t78.5 261 q0 102 -31.5 183t-102.5 133t-171 52t-171 -52t-102.5 -133t-31.5 -183z" />
<glyph unicode="P" horiz-adv-x="1427" d="M98 0v1434h637q135 0 242.5 -26.5t177 -71.5t115 -108t65 -131.5t19.5 -146.5q0 -80 -19.5 -149.5t-64.5 -132.5t-114.5 -107.5t-175 -71t-239.5 -26.5h-184v-463h-459zM557 803h178q74 0 117 34t43 107q0 72 -44.5 106.5t-115.5 34.5h-178v-282z" />
<glyph unicode="Q" horiz-adv-x="1640" d="M51 715q0 149 53.5 283.5t150.5 237t244 163.5t322 61t322 -61t243.5 -163.5t149.5 -237t53 -283.5q0 -254 -143 -447l145 -121l-209 -219l-159 144q-174 -99 -402 -99q-176 0 -323 61t-243.5 163.5t-150 236.5t-53.5 281zM516 715q0 -157 78.5 -261t226.5 -104 q51 0 94 12l-165 146l182 203l170 -156q24 73 24 160q0 102 -31.5 183t-102.5 133t-171 52t-171 -52t-102.5 -133t-31.5 -183z" />
<glyph unicode="R" horiz-adv-x="1456" d="M98 0v1434h654q135 0 242 -26.5t176 -71.5t114.5 -108t64.5 -131.5t19 -146.5q0 -126 -56.5 -225.5t-172.5 -159.5l243 -565h-481l-168 489h-176v-489h-459zM557 803h191q74 0 117.5 34t43.5 107t-45 107t-116 34h-191v-282z" />
<glyph unicode="S" horiz-adv-x="1310" d="M39 143l215 353q99 -57 207 -92t192 -35q55 0 88 15.5t33 45.5q0 24 -30 42.5t-79 29.5t-112 27.5t-128 35.5t-128 55t-112 83t-79 123.5t-30 172.5q0 94 38 177.5t107.5 146.5t176.5 100t237 37q260 0 555 -135l-162 -350q-188 92 -366 92q-55 0 -84 -16.5t-29 -44.5 q0 -21 24 -37t64.5 -27t92.5 -22.5t110 -28t116 -38.5t110 -58t92.5 -83t64.5 -118t24 -158q0 -97 -38 -180.5t-110 -147t-185.5 -99.5t-256.5 -36q-160 0 -334 50t-284 120z" />
<glyph unicode="T" horiz-adv-x="1386" d="M41 1032v402h1305v-402h-424v-1032h-457v1032h-424z" />
<glyph unicode="U" d="M92 561v873h461v-875q0 -93 47.5 -148t140.5 -55q91 0 140 55.5t49 147.5v875h459v-873q0 -293 -171.5 -440.5t-476.5 -147.5t-477 147.5t-172 440.5z" />
<glyph unicode="V" horiz-adv-x="1474" d="M0 1434h492l243 -891h4l244 891h492l-488 -1434h-498z" />
<glyph unicode="W" horiz-adv-x="2304" d="M20 1434h474l227 -768h4l223 768h408l225 -768h4l225 768h474l-451 -1434h-444l-234 793h-4l-236 -793h-444z" />
<glyph unicode="X" horiz-adv-x="1519" d="M10 0l457 729l-451 705h549l205 -347l201 347h534l-448 -705l452 -729h-542l-211 373l-215 -373h-531z" />
<glyph unicode="Y" horiz-adv-x="1499" d="M-10 1434h518l242 -406h4l239 406h516l-528 -865v-569h-465v569z" />
<glyph unicode="Z" horiz-adv-x="1337" d="M63 1026v408h1197v-332l-578 -696h606v-406h-1220v328l583 698h-588z" />
<glyph unicode="[" horiz-adv-x="985" d="M129 -410v1956h770v-293h-328v-1366h328v-297h-770z" />
<glyph unicode="\" horiz-adv-x="1247" d="M-27 1546h400l901 -1956h-400z" />
<glyph unicode="]" horiz-adv-x="985" d="M86 -113h328v1366h-328v293h770v-1956h-770v297z" />
<glyph unicode="^" horiz-adv-x="1337" d="M143 1151l310 395h434l307 -395h-403l-119 141l-123 -141h-406z" />
<glyph unicode="_" horiz-adv-x="1136" d="M0 -27h1137v-360h-1137v360z" />
<glyph unicode="`" horiz-adv-x="1064" d="M289 1473l289 165l202 -389h-258z" />
<glyph unicode="a" horiz-adv-x="1236" d="M53 274q0 62 15.5 113.5t58 104.5t112.5 93.5t185.5 72.5t269.5 47v36q0 82 -100 82q-71 0 -152.5 -25.5t-216.5 -88.5l-147 305q286 149 543 149q514 0 514 -440v-389q0 -55 65 -55v-287q-212 0 -306.5 28.5t-156.5 122.5q-78 -91 -158 -130.5t-198 -39.5 q-143 0 -235.5 83t-92.5 218zM494 346q0 -32 22.5 -55t58.5 -23q69 0 119 64v162q-97 -9 -148.5 -48.5t-51.5 -99.5z" />
<glyph unicode="b" horiz-adv-x="1280" d="M84 0v1546h448v-524q51 66 128 101.5t159 35.5q192 0 303 -147.5t111 -438.5q0 -145 -31.5 -260.5t-86 -188t-125 -110t-152.5 -37.5q-107 0 -185 36.5t-149 109.5l-27 -123h-393zM532 354q56 -53 130 -53q46 0 76.5 39t42.5 97.5t12 135.5q0 263 -131 263 q-70 0 -130 -60v-422z" />
<glyph unicode="c" horiz-adv-x="1091" d="M43 569q0 137 47.5 249.5t130 187.5t195.5 116t243 41q239 0 422 -153l-213 -273q-88 76 -192 76q-74 0 -129 -61t-55 -183t55.5 -184.5t128.5 -62.5q90 0 176 67l229 -244q-187 -172 -422 -172q-127 0 -239 40.5t-196 115.5t-132.5 188.5t-48.5 251.5z" />
<glyph unicode="d" horiz-adv-x="1280" d="M47 573q0 292 111.5 439t304.5 147q82 0 159 -35.5t128 -101.5v524h444v-1546h-389l-27 123q-71 -73 -149 -109.5t-185 -36.5q-83 0 -154 37.5t-125.5 110t-86 188t-31.5 260.5zM487 573q0 -77 12 -135.5t42.5 -97.5t76.5 -39q76 0 132 53v422q-60 60 -132 60 q-131 0 -131 -263z" />
<glyph unicode="e" horiz-adv-x="1241" d="M47 569q0 137 49 250.5t131.5 187.5t190 115t225.5 41q248 0 401.5 -139t153.5 -377q0 -101 -18 -186h-676q15 -77 58 -111.5t120 -34.5q154 0 301 84l176 -262q-221 -164 -524 -164q-119 0 -225 40t-187 114.5t-128.5 188.5t-47.5 253zM504 676h282q0 84 -32 134t-97 50 q-55 0 -96 -44.5t-57 -139.5z" />
<glyph unicode="f" horiz-adv-x="907" d="M16 827v283h154v33q0 96 25 170t68.5 122.5t107.5 79t136.5 43.5t160.5 13q166 0 329 -68l-100 -282q-111 34 -188 34q-95 0 -95 -102v-45h252v-281h-252v-827h-444v827h-154z" />
<glyph unicode="g" horiz-adv-x="1263" d="M-4 -139q0 76 35.5 129.5t111.5 93.5q-61 75 -61 164q0 58 31 111t90 87q-160 117 -160 308q0 183 145 296t371 113q200 0 340 -94q135 86 340 86v-248q-108 0 -195 -20q25 -64 25 -133q0 -96 -42.5 -175t-114 -129.5t-162.5 -78t-191 -27.5q-81 0 -147 14 q-25 -12 -25 -41t48.5 -41t189.5 -12q581 -9 581 -346q0 -348 -616 -348q-279 0 -436.5 72t-157.5 219zM397 -127q0 -36 42 -52t153 -16q126 0 172.5 13t46.5 45q0 22 -13 33t-58.5 18t-135.5 8q-98 3 -184 19q-23 -29 -23 -68zM461 752q0 -63 27 -102.5t71 -39.5 q50 0 76.5 38.5t26.5 103.5q0 67 -26.5 106t-76.5 39q-44 0 -71 -39.5t-27 -105.5z" />
<glyph unicode="h" horiz-adv-x="1271" d="M84 0v1546h448v-528q137 141 312 141q188 0 269 -102t81 -314v-743h-444v758q0 90 -84 90q-33 0 -70 -22t-64 -60v-766h-448z" />
<glyph unicode="i" horiz-adv-x="616" d="M84 0v1108h448v-1108h-448zM84 1221v325h448v-325h-448z" />
<glyph unicode="j" horiz-adv-x="647" d="M-211 -369l107 308q77 -23 131 -23q88 0 88 92v1100h446v-1065q0 -473 -448 -473q-147 0 -324 61zM115 1221v325h446v-325h-446z" />
<glyph unicode="k" horiz-adv-x="1308" d="M84 0v1546h448v-839l342 430h431l-351 -414l353 -723h-496l-147 377l-132 -154v-223h-448z" />
<glyph unicode="l" horiz-adv-x="620" d="M86 0v1546h449v-1546h-449z" />
<glyph unicode="m" horiz-adv-x="1871" d="M84 0v1137h428l16 -103q65 56 149 91.5t154 35.5q201 0 277 -145q164 145 346 145q170 0 254 -105.5t84 -301.5v-754h-444v766q0 41 -18.5 61.5t-47.5 20.5q-57 0 -123 -72q0 -12 1 -34t1 -33v-709h-444v766q0 82 -66 82q-30 0 -65.5 -22.5t-55.5 -55.5v-770h-446z" />
<glyph unicode="n" horiz-adv-x="1271" d="M84 0v1137h426l18 -119q143 143 316 143q188 0 269 -103t81 -315v-743h-444v758q0 90 -84 90q-33 0 -70 -22t-66 -60v-766h-446z" />
<glyph unicode="o" horiz-adv-x="1282" d="M47 575q0 171 78 306t213.5 208.5t304.5 73.5q125 0 234 -43.5t188 -120t124.5 -186.5t45.5 -238q0 -277 -162.5 -439.5t-429.5 -162.5q-269 0 -432.5 162.5t-163.5 439.5zM494 573q0 -284 149 -284q145 0 145 284q0 127 -38 201t-107 74q-72 0 -110.5 -74t-38.5 -201z " />
<glyph unicode="p" horiz-adv-x="1277" d="M84 -410v1547h403l35 -133q112 155 293 155q193 0 304.5 -147t111.5 -439q0 -145 -31.5 -260.5t-86 -188t-125 -110t-152.5 -37.5q-181 0 -310 123v-510h-442zM526 354q56 -53 131 -53q68 0 101 77t33 195q0 263 -134 263q-71 0 -131 -60v-422z" />
<glyph unicode="q" horiz-adv-x="1280" d="M47 573q0 292 111.5 439t304.5 147q183 0 295 -155l35 133h401v-1547h-440v510q-129 -123 -310 -123q-83 0 -154 37.5t-125.5 110t-86 188t-31.5 260.5zM487 573q0 -118 34 -195t102 -77q72 0 131 53v422q-64 60 -131 60q-136 0 -136 -263z" />
<glyph unicode="r" horiz-adv-x="980" d="M84 0v1137h418l26 -150q32 58 69 96.5t78.5 57.5t79 26t83.5 7q36 0 112 -13l-45 -405q-77 22 -166 22q-135 0 -209 -147v-631h-446z" />
<glyph unicode="s" horiz-adv-x="1089" d="M39 90l149 299q200 -94 342 -94q54 0 73.5 10t19.5 31q0 22 -31 37.5t-80.5 27t-109 25t-119 39.5t-109 64t-80.5 104t-31 153q0 74 27 136.5t74 106.5t110 74.5t135 45t150 14.5q224 0 451 -106l-146 -283q-80 36 -163.5 53t-131.5 17q-82 0 -82 -41q0 -20 24 -34 t63 -22.5t88.5 -20.5t102 -25.5t102 -41t88.5 -63t63 -95t24 -134.5q0 -184 -140 -289t-361 -105q-262 0 -502 117z" />
<glyph unicode="t" horiz-adv-x="991" d="M16 846v291h156v237h444v-237h299v-291h-299v-432q0 -90 76 -90q64 0 125 45l154 -252q-185 -144 -410 -144q-203 0 -296 102.5t-93 327.5v443h-156z" />
<glyph unicode="u" horiz-adv-x="1269" d="M78 393v744h444v-756q0 -92 82 -92q65 0 137 82v766h445v-1137h-418l-25 119q-57 -61 -142.5 -103.5t-172.5 -42.5q-187 0 -268.5 103.5t-81.5 316.5z" />
<glyph unicode="v" horiz-adv-x="1173" d="M8 1137h422l164 -660h4l164 660h403l-352 -1137h-455z" />
<glyph unicode="w" horiz-adv-x="1769" d="M8 1137h418l147 -564h5l145 564h324l145 -564h4l145 564h420l-346 -1137h-379l-151 516h-4l-150 -516h-379z" />
<glyph unicode="x" horiz-adv-x="1175" d="M2 0l338 578l-338 559h442l144 -258l143 258h440l-335 -559l338 -578h-424l-162 281l-162 -281h-424z" />
<glyph unicode="y" horiz-adv-x="1245" d="M10 1137h436l183 -602h4l186 602h418l-360 -1039q-58 -160 -115 -263t-126 -161.5t-143 -81t-176 -22.5q-154 0 -305 43l109 334q93 -35 158 -35q59 0 87 21t48 83l4 11z" />
<glyph unicode="z" horiz-adv-x="1110" d="M66 0v279l436 538h-422v320h950v-291l-422 -527h443v-319h-985z" />
<glyph unicode="{" horiz-adv-x="1069" d="M51 377v387h105q79 0 102 21.5t23 95.5v274q0 391 505 391h189v-303h-152q-54 0 -77 -20t-23 -74v-264q0 -56 -9.5 -99t-34 -87t-75.5 -76.5t-127 -53.5v-2q62 -18 106.5 -44.5t71 -55t42.5 -65.5t21 -71.5t5 -78.5v-266q0 -54 22.5 -73t77.5 -19h152v-304h-189 q-253 0 -379 96.5t-126 295.5v276q0 75 -23.5 97t-101.5 22h-105z" />
<glyph unicode="|" horiz-adv-x="712" d="M158 -410v1956h397v-1956h-397z" />
<glyph unicode="}" horiz-adv-x="1069" d="M94 -106h152q55 0 77.5 19t22.5 73v266q0 44 5 78.5t21 71.5t42.5 65.5t71 55t106.5 44.5v2q-76 21 -127 53.5t-75.5 76.5t-34 87t-9.5 99v264q0 54 -23 74t-77 20h-152v303h189q505 0 505 -391v-274q0 -74 23 -95.5t102 -21.5h105v-387h-105q-78 0 -101.5 -22t-23.5 -97 v-276q0 -199 -126 -295.5t-379 -96.5h-189v304z" />
<glyph unicode="~" horiz-adv-x="1214" d="M111 412q0 178 79.5 284.5t225.5 106.5q61 0 116.5 -18.5t90 -40t76 -40t77.5 -18.5q37 0 52.5 21.5t17.5 66.5h256q2 -16 2 -53q0 -179 -79 -285t-226 -106q-59 0 -115 18t-91 40t-76 40t-75 18q-69 0 -69 -90h-260q-2 18 -2 56z" />
<glyph unicode="&#xa1;" horiz-adv-x="577" d="M72 18l108 646h221l109 -646v-313h-438v313zM88 801v338h401v-338h-401z" />
<glyph unicode="&#xa2;" horiz-adv-x="1329" d="M70 600q0 124 47 236.5t132.5 198.5t217 137t289.5 51q5 0 15.5 -1t16.5 -1l39 163h185l-47 -192q162 -45 278 -152l-211 -268q-86 79 -172 105l-139 -570q12 -2 41 -2q80 0 141 32.5t123 96.5l240 -237q-222 -222 -510 -222q-16 0 -74 5l-64 -252h-172l68 280 q-140 41 -241.5 130.5t-152 208t-50.5 253.5zM487 600q0 -86 34.5 -153.5t96.5 -104.5l127 551q-114 -6 -186 -87.5t-72 -205.5z" />
<glyph unicode="&#xa3;" horiz-adv-x="1370" d="M45 188q0 95 65 156.5t171 61.5q72 0 188 -44q-12 82 -49 146h-297v207h162q-45 85 -45 188q0 137 121 228.5t333 91.5q165 0 285 -60t188 -168l-293 -143q-30 39 -69.5 61.5t-75.5 22.5t-56 -18t-20 -48q0 -63 62 -157h262v-205h-158q15 -62 15 -107q0 -81 -33 -155 q36 -8 84 -8q68 0 90.5 45t1.5 104h344q56 -176 -27 -295t-272 -119q-184 0 -375 99q-157 -99 -348 -99q-109 0 -181.5 59t-72.5 156zM207 193q0 -36 21 -55t57 -19q99 0 153 82q-94 61 -153 61q-33 0 -55.5 -18t-22.5 -51z" />
<glyph unicode="&#xa4;" horiz-adv-x="1476" d="M94 131l131 137q-94 150 -94 328q0 181 96 332l-133 139l162 150l119 -130q159 121 364 121q201 0 363 -121l121 130l159 -150l-133 -137q101 -159 101 -334t-99 -328l131 -137l-159 -145l-119 123q-162 -121 -365 -121q-204 0 -366 121l-117 -123zM541 598 q0 -83 57.5 -140t140.5 -57q84 0 142.5 57t58.5 140q0 84 -58.5 142.5t-142.5 58.5q-83 0 -140.5 -58t-57.5 -143z" />
<glyph unicode="&#xa5;" horiz-adv-x="1312" d="M0 1196h518l133 -219h4l138 219h520l-434 -586h270v-192h-270v-80h270v-191h-270v-147h-449v147h-274v191h274v80h-274v192h274z" />
<glyph unicode="&#xa6;" horiz-adv-x="712" d="M158 391h397v-801h-397v801zM158 752v794h397v-794h-397z" />
<glyph unicode="&#xa7;" horiz-adv-x="1173" d="M90 451q0 124 117 206q-101 75 -101 220q0 162 138 255t395 93q101 0 216 -27t210 -78l-211 -246q-58 27 -125.5 41.5t-112.5 14.5q-55 0 -78.5 -11.5t-23.5 -35.5q0 -20 24.5 -34t64.5 -22t91 -19t104.5 -22.5t104.5 -34t91 -52.5t64.5 -79.5t24.5 -113.5 q0 -125 -116 -207q100 -76 100 -217q0 -163 -137.5 -256.5t-392.5 -93.5q-102 0 -217 27t-211 77l210 246q57 -27 124.5 -40t113.5 -13q105 0 105 47q0 20 -24.5 34t-65 22t-91.5 18.5t-105 21.5t-105 33.5t-91.5 52.5t-65 79.5t-24.5 113.5zM449 510q0 -28 16.5 -47 t49.5 -31.5t67.5 -20t86.5 -16.5q5 -1 8 -1.5t8 -1t9 -1.5q31 27 31 58q0 21 -11.5 37.5t-30 27.5t-48 19.5t-58 14t-68.5 12.5q-20 3 -30 5q-30 -26 -30 -55z" />
<glyph unicode="&#xa8;" horiz-adv-x="1175" d="M162 1268v295h313v-295h-313zM709 1268v295h307v-295h-307z" />
<glyph unicode="&#xa9;" horiz-adv-x="1648" d="M82 590q0 151 58.5 288.5t157.5 237t236.5 158.5t288.5 59q202 0 373 -99.5t271 -270.5t100 -373q0 -151 -59 -288.5t-159 -237t-237.5 -158t-288.5 -58.5q-202 0 -372.5 99.5t-269.5 270t-99 372.5zM209 590q0 -125 49 -239.5t131.5 -197t196.5 -131.5t239 -49t239.5 49 t197.5 131.5t132.5 197t49.5 239.5t-49.5 239.5t-132.5 197.5t-197.5 132t-239.5 49q-167 0 -309 -83t-224.5 -225.5t-82.5 -309.5zM414 586q0 109 49.5 201t149 150t229.5 58q200 0 340 -129l-172 -192q-39 37 -73 56.5t-77 19.5q-61 0 -99 -45t-38 -119t35.5 -115 t97.5 -41q90 0 156 72l178 -183q-71 -66 -153.5 -101.5t-196.5 -35.5q-100 0 -181.5 32.5t-134.5 88t-81.5 128.5t-28.5 155z" />
<glyph unicode="&#xaa;" horiz-adv-x="845" d="M43 858q0 111 104.5 187.5t341.5 101.5v29q0 59 -83 59q-95 0 -254 -76l-91 197q177 98 357 98q340 0 340 -291v-266q0 -21 12 -30t39 -9v-186q-134 0 -194 18.5t-97 79.5q-54 -60 -110 -86.5t-136 -26.5q-101 0 -165 55.5t-64 145.5zM309 905q0 -23 20 -39t50 -16 q71 0 110 45v113q-79 -6 -129.5 -33.5t-50.5 -69.5z" />
<glyph unicode="&#xab;" horiz-adv-x="1425" d="M57 578l414 561l270 -197l-290 -364l288 -379l-266 -199zM670 578l413 561l271 -197l-291 -364l289 -379l-267 -199z" />
<glyph unicode="&#xac;" horiz-adv-x="1419" d="M94 866v330h1231v-686h-448v356h-783z" />
<glyph unicode="&#xad;" horiz-adv-x="778" d="M59 393v359h660v-359h-660z" />
<glyph unicode="&#xae;" horiz-adv-x="1648" d="M82 590q0 151 58.5 288.5t157.5 237t236.5 158.5t288.5 59q202 0 373 -99.5t271 -270.5t100 -373q0 -151 -59 -288.5t-159 -237t-237.5 -158t-288.5 -58.5q-202 0 -372.5 99.5t-269.5 270t-99 372.5zM209 590q0 -125 49 -239.5t131.5 -197t196.5 -131.5t239 -49t239.5 49 t197.5 131.5t132.5 197t49.5 239.5t-49.5 239.5t-132.5 197.5t-197.5 132t-239.5 49q-167 0 -309 -83t-224.5 -225.5t-82.5 -309.5zM483 215v770h435q78 0 140.5 -24t100 -64t57 -87.5t19.5 -98.5q0 -149 -115 -219q0 -2 53 -139t54 -138h-312l-65 242h-57v-242h-310z M793 641h63q38 0 56 20.5t18 49.5q0 28 -18 50.5t-56 22.5h-63v-143z" />
<glyph unicode="&#xaf;" horiz-adv-x="1148" d="M233 1292v246h756v-246h-756z" />
<glyph unicode="&#xb0;" horiz-adv-x="794" d="M31 1110q0 156 106 254t260 98q155 0 261 -98t106 -254q0 -157 -106 -254.5t-261 -97.5t-260.5 97t-105.5 255zM272 1110q0 -53 37 -88t88 -35t87 35t36 88q0 54 -36 88.5t-87 34.5t-88 -34.5t-37 -88.5z" />
<glyph unicode="&#xb1;" horiz-adv-x="1257" d="M57 0v227h373v254h-373v348h373v310h399v-310h371v-348h-371v-254h371v-227h-1143z" />
<glyph unicode="&#xb2;" horiz-adv-x="718" d="M37 1673q166 125 350 125q137 0 216 -65t79 -162q0 -66 -35 -117t-86 -81.5t-102 -55.5t-90.5 -52t-44.5 -57h325v-184h-581v104q0 73 26.5 132.5t66 95t85.5 65.5t85.5 49t66 41t26.5 45q0 43 -72 43q-39 0 -92 -20.5t-96 -56.5z" />
<glyph unicode="&#xb3;" horiz-adv-x="686" d="M12 1083l88 179q102 -60 193 -60q49 0 78.5 18t29.5 42q0 34 -30 47.5t-88 13.5h-111v170h104q105 0 105 61q0 23 -17.5 38.5t-52.5 15.5q-77 0 -172 -45l-88 163q155 72 283 72q134 0 216.5 -56t82.5 -147q0 -64 -22.5 -99t-73.5 -73q118 -56 118 -170 q0 -65 -29.5 -113.5t-79.5 -76t-109 -40.5t-126 -13q-156 0 -299 73z" />
<glyph unicode="&#xb4;" horiz-adv-x="1064" d="M287 1249l207 389l284 -165l-231 -224h-260z" />
<glyph unicode="&#xb5;" horiz-adv-x="1323" d="M94 -410v1606h455v-815q0 -86 84 -86q73 0 141 78v823h455v-1196h-428l-17 76q-75 -84 -168 -84q-44 0 -102 14l-18 -416h-402z" />
<glyph unicode="&#xb6;" horiz-adv-x="1665" d="M86 983q0 69 18.5 133t60 122t102 101.5t150 69t199.5 25.5h928v-1434h-373v1161h-163v-1161h-375v537h-12q-107 0 -197.5 26.5t-151.5 70.5t-104 102t-62.5 120.5t-19.5 126.5z" />
<glyph unicode="&#xb7;" horiz-adv-x="563" d="M80 369v407h409v-407h-409z" />
<glyph unicode="&#xb8;" horiz-adv-x="1064" d="M299 -328q221 195 244 357h235q-6 -301 -207 -496z" />
<glyph unicode="&#xb9;" horiz-adv-x="628" d="M31 1661l301 125h176v-762h-252v530l-143 -63z" />
<glyph unicode="&#xba;" horiz-adv-x="886" d="M41 1061q0 175 114.5 284t288.5 109t288 -109t114 -284q0 -186 -110 -295t-292 -109q-183 0 -293 109t-110 295zM311 1059q0 -93 33.5 -145t99.5 -52q64 0 99 52.5t35 144.5q0 87 -36.5 139.5t-97.5 52.5q-62 0 -97.5 -52.5t-35.5 -139.5z" />
<glyph unicode="&#xbb;" horiz-adv-x="1425" d="M72 942l270 197l414 -561l-416 -578l-266 199l288 379zM684 942l270 197l414 -561l-416 -578l-266 199l289 379z" />
<glyph unicode="&#xbc;" horiz-adv-x="1673" d="M94 1352l301 125h176v-762h-252v530l-143 -63zM217 0l1223 1434h243l-1220 -1434h-246zM1022 303l371 457h227v-473h68v-166h-68v-121h-240v121h-286zM1219 287h161v213z" />
<glyph unicode="&#xbd;" horiz-adv-x="1818" d="M94 1352l301 125h176v-762h-252v530l-143 -63zM215 0l1223 1434h243l-1220 -1434h-246zM1196 649q166 125 350 125q137 0 216 -65t79 -162q0 -66 -35 -117t-86 -81.5t-102 -55.5t-90.5 -52t-44.5 -57h325v-184h-581v104q0 73 26.5 132.5t66 95t85.5 65.5t85.5 49t66 41 t26.5 45q0 43 -72 43q-39 0 -92 -20.5t-96 -56.5z" />
<glyph unicode="&#xbe;" horiz-adv-x="1581" d="M33 774l88 178q101 -59 192 -59q49 0 79 17.5t30 41.5q0 62 -119 62h-110v170h104q104 0 104 61q0 23 -17 38t-52 15q-77 0 -172 -45l-88 164q76 36 140.5 54t141.5 18q134 0 216.5 -56t82.5 -147q0 -64 -22.5 -99t-73.5 -73q119 -57 119 -170q0 -65 -29.5 -113.5 t-79.5 -76t-109 -41t-126 -13.5q-154 0 -299 74zM133 0l1223 1434h243l-1220 -1434h-246zM930 303l370 457h228v-473h67v-166h-67v-121h-240v121h-287zM1126 287h162v213z" />
<glyph unicode="&#xbf;" horiz-adv-x="1216" d="M104 80q0 70 22.5 128.5t58.5 98.5t80 74t88.5 61t82.5 52t63 55t29 63l7 52h315q18 -70 18 -129q0 -74 -34.5 -131.5t-83.5 -92t-97.5 -63t-83 -61t-34.5 -68.5q0 -47 37.5 -73t84.5 -26q160 0 304 130l249 -224q-123 -120 -260 -184t-303 -64q-246 0 -394.5 104.5 t-148.5 297.5zM489 801v338h402v-338h-402z" />
<glyph unicode="&#xc0;" d="M0 0l489 1434h504l488 -1434h-490l-49 174h-403l-47 -174h-492zM371 1712l352 166l217 -332h-319zM631 506h217l-107 385h-4z" />
<glyph unicode="&#xc1;" d="M0 0l489 1434h504l488 -1434h-490l-49 174h-403l-47 -174h-492zM543 1546l217 332l352 -166l-250 -166h-319zM631 506h217l-107 385h-4z" />
<glyph unicode="&#xc2;" d="M0 0l489 1434h504l488 -1434h-490l-49 174h-403l-47 -174h-492zM305 1546l213 318h443l213 -318h-300l-131 146h-4l-133 -146h-301zM631 506h217l-107 385h-4z" />
<glyph unicode="&#xc3;" d="M0 0l489 1434h504l488 -1434h-490l-49 174h-403l-47 -174h-492zM311 1550q-17 157 61.5 248.5t215.5 91.5q48 0 92 -15.5t71 -33.5t60 -33.5t61 -15.5q77 0 70 70h227q17 -159 -61 -251.5t-215 -92.5q-48 0 -92 15.5t-71.5 33.5t-61 33.5t-62.5 15.5q-37 0 -53.5 -17 t-13.5 -49h-228zM631 506h217l-107 385h-4z" />
<glyph unicode="&#xc4;" d="M0 0l489 1434h504l488 -1434h-490l-49 174h-403l-47 -174h-492zM299 1559v292h313v-292h-313zM631 506h217l-107 385h-4zM874 1559v292h308v-292h-308z" />
<glyph unicode="&#xc5;" d="M0 0l489 1434h15q-35 56 -35 133q0 115 79 190.5t193 75.5t193.5 -75.5t79.5 -190.5q0 -73 -37 -133h16l488 -1434h-490l-49 174h-403l-47 -174h-492zM608 1567q0 -53 35 -91.5t86 -41.5h12q55 0 94 39t39 94q0 59 -38.5 97t-94.5 38t-94.5 -38t-38.5 -97zM631 506h217 l-107 385h-4z" />
<glyph unicode="&#xc6;" horiz-adv-x="2181" d="M-10 0l622 1434h1483v-392h-795l37 -141h678v-350h-590l41 -160h637v-391h-1024l-39 174h-458l-66 -174h-526zM717 526h246l-91 404z" />
<glyph unicode="&#xc7;" horiz-adv-x="1431" d="M51 715q0 154 58 291.5t159.5 237.5t246 158t310.5 58q317 0 568 -211l-250 -299q-71 62 -139.5 95.5t-167.5 33.5q-151 0 -238.5 -98t-87.5 -266t86.5 -264.5t239.5 -96.5q174 0 303 129l262 -276q-230 -208 -514 -230q-20 -262 -205 -444l-272 139q195 173 235 318 q-267 51 -430.5 251t-163.5 474z" />
<glyph unicode="&#xc8;" horiz-adv-x="1288" d="M98 0v1434h1106v-392h-649v-149h569v-334h-569v-168h655v-391h-1112zM285 1712l352 166l217 -332h-319z" />
<glyph unicode="&#xc9;" horiz-adv-x="1288" d="M98 0v1434h1106v-392h-649v-149h569v-334h-569v-168h655v-391h-1112zM457 1546l217 332l352 -166l-250 -166h-319z" />
<glyph unicode="&#xca;" horiz-adv-x="1288" d="M98 0v1434h1106v-392h-649v-149h569v-334h-569v-168h655v-391h-1112zM221 1546l213 318h443l213 -318h-299l-132 146h-4l-133 -146h-301z" />
<glyph unicode="&#xcb;" horiz-adv-x="1288" d="M98 0v1434h1106v-392h-649v-149h569v-334h-569v-168h655v-391h-1112zM215 1559v292h313v-292h-313zM791 1559v292h307v-292h-307z" />
<glyph unicode="&#xcc;" horiz-adv-x="655" d="M-41 1712l352 166l217 -332h-319zM98 0v1434h459v-1434h-459z" />
<glyph unicode="&#xcd;" horiz-adv-x="655" d="M98 0v1434h459v-1434h-459zM131 1546l217 332l352 -166l-249 -166h-320z" />
<glyph unicode="&#xce;" horiz-adv-x="655" d="M-106 1546l212 318h443l213 -318h-299l-131 146h-4l-133 -146h-301zM98 0v1434h459v-1434h-459z" />
<glyph unicode="&#xcf;" horiz-adv-x="655" d="M-113 1559v292h314v-292h-314zM98 0v1434h459v-1434h-459zM463 1559v292h307v-292h-307z" />
<glyph unicode="&#xd0;" horiz-adv-x="1589" d="M27 614v220h168v600h534q396 0 602.5 -182.5t206.5 -520.5q0 -356 -200.5 -543.5t-608.5 -187.5h-534v614h-168zM651 356h123q150 0 227.5 98t77.5 271q0 162 -79.5 257t-225.5 95h-123v-241h217v-224h-217v-256z" />
<glyph unicode="&#xd1;" horiz-adv-x="1519" d="M98 0v1434h430l465 -723v723h428v-1434h-428l-467 717v-717h-428zM330 1550q-17 158 61 249t215 91q48 0 92 -15.5t71.5 -33.5t60.5 -33.5t61 -15.5q77 0 70 70h227q17 -159 -61.5 -251.5t-215.5 -92.5q-48 0 -92 15.5t-71 33.5t-60.5 33.5t-62.5 15.5q-37 0 -54 -17 t-14 -49h-227z" />
<glyph unicode="&#xd2;" horiz-adv-x="1640" d="M51 715q0 149 53.5 283.5t150.5 237t244 163.5t322 61t322 -61t243.5 -163.5t149.5 -237t53 -283.5q0 -147 -53 -281t-149 -236.5t-243 -163.5t-323 -61t-323 61t-243.5 163.5t-150 236.5t-53.5 281zM453 1712l352 166l217 -332h-320zM516 715q0 -157 78.5 -261 t226.5 -104t226.5 104t78.5 261q0 102 -31.5 183t-102.5 133t-171 52t-171 -52t-102.5 -133t-31.5 -183z" />
<glyph unicode="&#xd3;" horiz-adv-x="1640" d="M51 715q0 149 53.5 283.5t150.5 237t244 163.5t322 61t322 -61t243.5 -163.5t149.5 -237t53 -283.5q0 -147 -53 -281t-149 -236.5t-243 -163.5t-323 -61t-323 61t-243.5 163.5t-150 236.5t-53.5 281zM516 715q0 -157 78.5 -261t226.5 -104t226.5 104t78.5 261 q0 102 -31.5 183t-102.5 133t-171 52t-171 -52t-102.5 -133t-31.5 -183zM625 1546l217 332l352 -166l-250 -166h-319z" />
<glyph unicode="&#xd4;" horiz-adv-x="1640" d="M51 715q0 149 53.5 283.5t150.5 237t244 163.5t322 61t322 -61t243.5 -163.5t149.5 -237t53 -283.5q0 -147 -53 -281t-149 -236.5t-243 -163.5t-323 -61t-323 61t-243.5 163.5t-150 236.5t-53.5 281zM385 1546l213 318h442l213 -318h-299l-131 146h-4l-133 -146h-301z M516 715q0 -157 78.5 -261t226.5 -104t226.5 104t78.5 261q0 102 -31.5 183t-102.5 133t-171 52t-171 -52t-102.5 -133t-31.5 -183z" />
<glyph unicode="&#xd5;" horiz-adv-x="1640" d="M51 715q0 149 53.5 283.5t150.5 237t244 163.5t322 61t322 -61t243.5 -163.5t149.5 -237t53 -283.5q0 -147 -53 -281t-149 -236.5t-243 -163.5t-323 -61t-323 61t-243.5 163.5t-150 236.5t-53.5 281zM391 1550q-17 157 61.5 248.5t215.5 91.5q48 0 92 -15.5t71 -33.5 t60 -33.5t61 -15.5q77 0 70 70h227q17 -159 -61 -251.5t-215 -92.5q-48 0 -92 15.5t-71.5 33.5t-61 33.5t-62.5 15.5q-37 0 -54 -17t-14 -49h-227zM516 715q0 -157 78.5 -261t226.5 -104t226.5 104t78.5 261q0 102 -31.5 183t-102.5 133t-171 52t-171 -52t-102.5 -133 t-31.5 -183z" />
<glyph unicode="&#xd6;" horiz-adv-x="1640" d="M51 715q0 149 53.5 283.5t150.5 237t244 163.5t322 61t322 -61t243.5 -163.5t149.5 -237t53 -283.5q0 -147 -53 -281t-149 -236.5t-243 -163.5t-323 -61t-323 61t-243.5 163.5t-150 236.5t-53.5 281zM379 1559v292h313v-292h-313zM516 715q0 -157 78.5 -261t226.5 -104 t226.5 104t78.5 261q0 102 -31.5 183t-102.5 133t-171 52t-171 -52t-102.5 -133t-31.5 -183zM954 1559v292h308v-292h-308z" />
<glyph unicode="&#xd7;" horiz-adv-x="1208" d="M98 317l254 256l-252 252l248 250l258 -264l258 264l246 -250l-252 -252l252 -256l-246 -245l-258 262l-258 -262z" />
<glyph unicode="&#xd8;" horiz-adv-x="1640" d="M51 715q0 149 53.5 283.5t150.5 237t244 163.5t322 61q235 0 418 -108l131 155l139 -118l-127 -150q100 -103 153.5 -239t53.5 -285q0 -147 -53 -281t-149 -236.5t-243 -163.5t-323 -61q-240 0 -422 111l-135 -158l-135 113l129 154q-100 103 -153.5 238t-53.5 284z M516 715q0 -109 37 -193l434 512q-68 49 -166 49q-100 0 -171 -52t-102.5 -133t-31.5 -183zM649 399q71 -49 172 -49q148 0 226.5 104t78.5 261q0 113 -39 198z" />
<glyph unicode="&#xd9;" d="M92 561v873h461v-875q0 -93 47.5 -148t140.5 -55q91 0 140 55.5t49 147.5v875h459v-873q0 -293 -171.5 -440.5t-476.5 -147.5t-477 147.5t-172 440.5zM369 1712l352 166l217 -332h-320z" />
<glyph unicode="&#xda;" d="M92 561v873h461v-875q0 -93 47.5 -148t140.5 -55q91 0 140 55.5t49 147.5v875h459v-873q0 -293 -171.5 -440.5t-476.5 -147.5t-477 147.5t-172 440.5zM543 1546l217 332l352 -166l-250 -166h-319z" />
<glyph unicode="&#xdb;" d="M92 561v873h461v-875q0 -93 47.5 -148t140.5 -55q91 0 140 55.5t49 147.5v875h459v-873q0 -293 -171.5 -440.5t-476.5 -147.5t-477 147.5t-172 440.5zM307 1546l213 318h443l213 -318h-299l-132 146h-4l-133 -146h-301z" />
<glyph unicode="&#xdc;" d="M92 561v873h461v-875q0 -93 47.5 -148t140.5 -55q91 0 140 55.5t49 147.5v875h459v-873q0 -293 -171.5 -440.5t-476.5 -147.5t-477 147.5t-172 440.5zM301 1559v292h313v-292h-313zM877 1559v292h307v-292h-307z" />
<glyph unicode="&#xdd;" horiz-adv-x="1499" d="M-10 1434h518l242 -406h4l239 406h516l-528 -865v-569h-465v569zM553 1546l217 332l352 -166l-250 -166h-319z" />
<glyph unicode="&#xde;" horiz-adv-x="1433" d="M98 0v1434h459v-228h184q135 0 242.5 -26t177 -70.5t115 -106.5t65 -130.5t19.5 -147.5q0 -65 -14 -123t-43 -113t-78 -98.5t-115.5 -76t-159.5 -50.5t-205 -18h-188v-246h-459zM557 588h184q72 0 116 34t44 103q0 71 -45 105t-115 34h-184v-276z" />
<glyph unicode="&#xdf;" horiz-adv-x="1443" d="M82 0v1067q0 124 48 221.5t132.5 158.5t195.5 92.5t240 31.5q275 0 443 -126.5t168 -322.5q0 -115 -63 -195t-169 -128v-2q89 -25 158 -71t113.5 -122.5t44.5 -171.5q0 -85 -27.5 -158.5t-74 -126t-108.5 -90.5t-132.5 -56.5t-143.5 -18.5q-158 0 -276 34l59 328 q55 -20 121 -20q63 0 99 36t36 105q0 143 -174 143h-70v342h23q63 0 101 37.5t38 106.5q0 78 -43.5 120.5t-124.5 42.5t-124.5 -47.5t-43.5 -132.5v-1077h-446z" />
<glyph unicode="&#xe0;" horiz-adv-x="1236" d="M53 274q0 62 15.5 113.5t58 104.5t112.5 93.5t185.5 72.5t269.5 47v36q0 82 -100 82q-71 0 -152.5 -25.5t-216.5 -88.5l-147 305q286 149 543 149q514 0 514 -440v-389q0 -55 65 -55v-287q-212 0 -306.5 28.5t-156.5 122.5q-78 -91 -158 -130.5t-198 -39.5 q-143 0 -235.5 83t-92.5 218zM301 1473l289 165l203 -389h-258zM494 346q0 -32 22.5 -55t58.5 -23q69 0 119 64v162q-97 -9 -148.5 -48.5t-51.5 -99.5z" />
<glyph unicode="&#xe1;" horiz-adv-x="1236" d="M53 274q0 62 15.5 113.5t58 104.5t112.5 93.5t185.5 72.5t269.5 47v36q0 82 -100 82q-71 0 -152.5 -25.5t-216.5 -88.5l-147 305q286 149 543 149q514 0 514 -440v-389q0 -55 65 -55v-287q-212 0 -306.5 28.5t-156.5 122.5q-78 -91 -158 -130.5t-198 -39.5 q-143 0 -235.5 83t-92.5 218zM434 1249l207 389l285 -165l-232 -224h-260zM494 346q0 -32 22.5 -55t58.5 -23q69 0 119 64v162q-97 -9 -148.5 -48.5t-51.5 -99.5z" />
<glyph unicode="&#xe2;" horiz-adv-x="1236" d="M53 274q0 62 15.5 113.5t58 104.5t112.5 93.5t185.5 72.5t269.5 47v36q0 82 -100 82q-71 0 -152.5 -25.5t-216.5 -88.5l-147 305q286 149 543 149q514 0 514 -440v-389q0 -55 65 -55v-287q-212 0 -306.5 28.5t-156.5 122.5q-78 -91 -158 -130.5t-198 -39.5 q-143 0 -235.5 83t-92.5 218zM137 1249l215 328h529l219 -328h-344l-133 158h-11l-135 -158h-340zM494 346q0 -32 22.5 -55t58.5 -23q69 0 119 64v162q-97 -9 -148.5 -48.5t-51.5 -99.5z" />
<glyph unicode="&#xe3;" horiz-adv-x="1236" d="M53 274q0 62 15.5 113.5t58 104.5t112.5 93.5t185.5 72.5t269.5 47v36q0 82 -100 82q-71 0 -152.5 -25.5t-216.5 -88.5l-147 305q286 149 543 149q514 0 514 -440v-389q0 -55 65 -55v-287q-212 0 -306.5 28.5t-156.5 122.5q-78 -91 -158 -130.5t-198 -39.5 q-143 0 -235.5 83t-92.5 218zM197 1249q-15 169 60.5 261t211.5 92q46 0 89 -16t70 -35.5t59.5 -35.5t60.5 -16q74 0 65 82h225q17 -168 -59 -260t-213 -92q-46 0 -88 15.5t-69 33.5t-59.5 33.5t-60.5 15.5q-39 0 -54.5 -18t-14.5 -60h-223zM494 346q0 -32 22.5 -55 t58.5 -23q69 0 119 64v162q-97 -9 -148.5 -48.5t-51.5 -99.5z" />
<glyph unicode="&#xe4;" horiz-adv-x="1236" d="M53 274q0 62 15.5 113.5t58 104.5t112.5 93.5t185.5 72.5t269.5 47v36q0 82 -100 82q-71 0 -152.5 -25.5t-216.5 -88.5l-147 305q286 149 543 149q514 0 514 -440v-389q0 -55 65 -55v-287q-212 0 -306.5 28.5t-156.5 122.5q-78 -91 -158 -130.5t-198 -39.5 q-143 0 -235.5 83t-92.5 218zM190 1268v295h314v-295h-314zM494 346q0 -32 22.5 -55t58.5 -23q69 0 119 64v162q-97 -9 -148.5 -48.5t-51.5 -99.5zM737 1268v295h307v-295h-307z" />
<glyph unicode="&#xe5;" horiz-adv-x="1236" d="M53 274q0 62 15.5 113.5t58 104.5t112.5 93.5t185.5 72.5t269.5 47v36q0 82 -100 82q-71 0 -152.5 -25.5t-216.5 -88.5l-147 305q286 149 543 149q514 0 514 -440v-389q0 -55 65 -55v-287q-212 0 -306.5 28.5t-156.5 122.5q-78 -91 -158 -130.5t-198 -39.5 q-143 0 -235.5 83t-92.5 218zM342 1497q0 115 79 190.5t193 75.5t193.5 -75.5t79.5 -190.5q0 -114 -79.5 -188t-193.5 -74t-193 74t-79 188zM481 1497q0 -55 38.5 -94t94.5 -39t95 39t39 94q0 59 -39 97t-95 38t-94.5 -38t-38.5 -97zM494 346q0 -32 22.5 -55t58.5 -23 q69 0 119 64v162q-97 -9 -148.5 -48.5t-51.5 -99.5z" />
<glyph unicode="&#xe6;" horiz-adv-x="1880" d="M53 274q-1 61 14.5 113t58.5 105t112.5 92.5t185.5 71t270 46.5v39q0 82 -90 82q-75 0 -158.5 -24.5t-220.5 -89.5l-147 305q297 149 536 149q248 0 353 -114q134 114 329 114q239 0 390 -139.5t151 -376.5q0 -80 -18 -186h-674q14 -76 54.5 -111t121.5 -35q154 0 301 84 l176 -262q-120 -92 -242 -128t-266 -36q-140 0 -262.5 52t-206.5 149q-173 -201 -424 -201q-157 0 -249 81.5t-95 219.5zM494 346q0 -32 23 -55t56 -23q76 0 142 99q-13 37 -21 127q-95 -9 -147.5 -48t-52.5 -100zM1141 676h282q0 84 -31.5 134t-97.5 50q-55 0 -96 -44 t-57 -140z" />
<glyph unicode="&#xe7;" horiz-adv-x="1091" d="M43 569q0 137 47.5 249.5t130 187.5t195.5 116t243 41q239 0 422 -153l-213 -273q-88 76 -192 76q-74 0 -129 -61t-55 -183t55.5 -184.5t128.5 -62.5q90 0 176 67l229 -244q-166 -153 -368 -168q-20 -262 -205 -444l-272 139q200 178 237 326q-193 51 -311.5 200.5 t-118.5 370.5z" />
<glyph unicode="&#xe8;" horiz-adv-x="1241" d="M47 569q0 137 49 250.5t131.5 187.5t190 115t225.5 41q248 0 401.5 -139t153.5 -377q0 -101 -18 -186h-676q15 -77 58 -111.5t120 -34.5q154 0 301 84l176 -262q-221 -164 -524 -164q-119 0 -225 40t-187 114.5t-128.5 188.5t-47.5 253zM328 1473l288 165l203 -389h-258z M504 676h282q0 84 -32 134t-97 50q-55 0 -96 -44.5t-57 -139.5z" />
<glyph unicode="&#xe9;" horiz-adv-x="1241" d="M47 569q0 137 49 250.5t131.5 187.5t190 115t225.5 41q248 0 401.5 -139t153.5 -377q0 -101 -18 -186h-676q15 -77 58 -111.5t120 -34.5q154 0 301 84l176 -262q-221 -164 -524 -164q-119 0 -225 40t-187 114.5t-128.5 188.5t-47.5 253zM463 1249l207 389l284 -165 l-231 -224h-260zM504 676h282q0 84 -32 134t-97 50q-55 0 -96 -44.5t-57 -139.5z" />
<glyph unicode="&#xea;" horiz-adv-x="1241" d="M47 569q0 137 49 250.5t131.5 187.5t190 115t225.5 41q248 0 401.5 -139t153.5 -377q0 -101 -18 -186h-676q15 -77 58 -111.5t120 -34.5q154 0 301 84l176 -262q-221 -164 -524 -164q-119 0 -225 40t-187 114.5t-128.5 188.5t-47.5 253zM176 1249l215 328h529l219 -328 h-344l-133 158h-11l-135 -158h-340zM504 676h282q0 84 -32 134t-97 50q-55 0 -96 -44.5t-57 -139.5z" />
<glyph unicode="&#xeb;" horiz-adv-x="1241" d="M47 569q0 137 49 250.5t131.5 187.5t190 115t225.5 41q248 0 401.5 -139t153.5 -377q0 -101 -18 -186h-676q15 -77 58 -111.5t120 -34.5q154 0 301 84l176 -262q-221 -164 -524 -164q-119 0 -225 40t-187 114.5t-128.5 188.5t-47.5 253zM225 1268v295h314v-295h-314z M504 676h282q0 84 -32 134t-97 50q-55 0 -96 -44.5t-57 -139.5zM772 1268v295h307v-295h-307z" />
<glyph unicode="&#xec;" horiz-adv-x="616" d="M-10 1473l289 165l202 -389h-258zM84 0v1108h448v-1108h-448z" />
<glyph unicode="&#xed;" horiz-adv-x="616" d="M84 0v1108h448v-1108h-448zM125 1249l207 389l284 -165l-231 -224h-260z" />
<glyph unicode="&#xee;" horiz-adv-x="616" d="M-174 1249l215 328h528l219 -328h-344l-133 158h-10l-135 -158h-340zM84 0v1108h448v-1108h-448z" />
<glyph unicode="&#xef;" horiz-adv-x="616" d="M-121 1268v295h314v-295h-314zM84 0v1108h448v-1108h-448zM426 1268v295h307v-295h-307z" />
<glyph unicode="&#xf0;" horiz-adv-x="1302" d="M49 504q0 216 135 346.5t340 130.5q114 0 201 -47q-53 103 -145 217l-322 -121l-86 187l264 94q-93 93 -256 235h512q83 -74 109 -100l192 78l80 -195l-129 -47q139 -175 218 -366t79 -365q0 -280 -160 -427t-436 -147q-145 0 -260 40.5t-187.5 112.5t-110.5 167t-38 207 zM492 504q0 -97 41 -159t112 -62q70 0 118 69.5t48 188.5q0 67 -8 116q-79 52 -164 52q-29 0 -52 -7.5t-46 -27.5t-36 -63.5t-13 -106.5z" />
<glyph unicode="&#xf1;" horiz-adv-x="1271" d="M84 0v1137h426l18 -119q143 143 316 143q188 0 269 -103t81 -315v-743h-444v758q0 90 -84 90q-33 0 -70 -22t-66 -60v-766h-446zM213 1249q-15 169 60.5 261t211.5 92q46 0 89 -16t70 -35.5t59.5 -35.5t60.5 -16q74 0 65 82h226q17 -168 -59.5 -260t-213.5 -92 q-46 0 -88 15.5t-68.5 33.5t-59 33.5t-60.5 15.5q-39 0 -55 -18t-15 -60h-223z" />
<glyph unicode="&#xf2;" horiz-adv-x="1282" d="M47 575q0 171 78 306t213.5 208.5t304.5 73.5q125 0 234 -43.5t188 -120t124.5 -186.5t45.5 -238q0 -277 -162.5 -439.5t-429.5 -162.5q-269 0 -432.5 162.5t-163.5 439.5zM319 1473l289 165l203 -389h-258zM494 573q0 -284 149 -284q145 0 145 284q0 127 -38 201 t-107 74q-72 0 -110.5 -74t-38.5 -201z" />
<glyph unicode="&#xf3;" horiz-adv-x="1282" d="M47 575q0 171 78 306t213.5 208.5t304.5 73.5q125 0 234 -43.5t188 -120t124.5 -186.5t45.5 -238q0 -277 -162.5 -439.5t-429.5 -162.5q-269 0 -432.5 162.5t-163.5 439.5zM455 1249l207 389l284 -165l-231 -224h-260zM494 573q0 -284 149 -284q145 0 145 284 q0 127 -38 201t-107 74q-72 0 -110.5 -74t-38.5 -201z" />
<glyph unicode="&#xf4;" horiz-adv-x="1282" d="M47 575q0 171 78 306t213.5 208.5t304.5 73.5q125 0 234 -43.5t188 -120t124.5 -186.5t45.5 -238q0 -277 -162.5 -439.5t-429.5 -162.5q-269 0 -432.5 162.5t-163.5 439.5zM158 1249l215 328h528l219 -328h-344l-133 158h-10l-135 -158h-340zM494 573q0 -284 149 -284 q145 0 145 284q0 127 -38 201t-107 74q-72 0 -110.5 -74t-38.5 -201z" />
<glyph unicode="&#xf5;" horiz-adv-x="1282" d="M47 575q0 171 78 306t213.5 208.5t304.5 73.5q125 0 234 -43.5t188 -120t124.5 -186.5t45.5 -238q0 -277 -162.5 -439.5t-429.5 -162.5q-269 0 -432.5 162.5t-163.5 439.5zM217 1249q-15 169 60.5 261t211.5 92q46 0 89 -16t70 -35.5t59.5 -35.5t60.5 -16q75 0 66 82h225 q17 -168 -59.5 -260t-213.5 -92q-46 0 -88 15.5t-68.5 33.5t-59 33.5t-60.5 15.5q-39 0 -55 -18t-15 -60h-223zM494 573q0 -284 149 -284q145 0 145 284q0 127 -38 201t-107 74q-72 0 -110.5 -74t-38.5 -201z" />
<glyph unicode="&#xf6;" horiz-adv-x="1282" d="M47 575q0 171 78 306t213.5 208.5t304.5 73.5q125 0 234 -43.5t188 -120t124.5 -186.5t45.5 -238q0 -277 -162.5 -439.5t-429.5 -162.5q-269 0 -432.5 162.5t-163.5 439.5zM211 1268v295h313v-295h-313zM494 573q0 -284 149 -284q145 0 145 284q0 127 -38 201t-107 74 q-72 0 -110.5 -74t-38.5 -201zM758 1268v295h307v-295h-307z" />
<glyph unicode="&#xf7;" horiz-adv-x="1257" d="M57 397v348h1143v-348h-1143zM467 2v274h326v-274h-326zM467 866v273h326v-273h-326z" />
<glyph unicode="&#xf8;" horiz-adv-x="1282" d="M47 575q0 171 78 306t213.5 208.5t304.5 73.5q147 0 275 -61l106 139l147 -115l-104 -129q168 -168 168 -422q0 -277 -162.5 -439.5t-429.5 -162.5q-173 0 -315 74l-117 -158l-150 109l127 160q-141 160 -141 417zM494 526l225 291q-34 31 -76 31q-72 0 -110.5 -74 t-38.5 -201v-47zM539 346q39 -57 104 -57q145 0 145 284q0 45 -6 86z" />
<glyph unicode="&#xf9;" horiz-adv-x="1269" d="M78 393v744h444v-756q0 -92 82 -92q65 0 137 82v766h445v-1137h-418l-25 119q-57 -61 -142.5 -103.5t-172.5 -42.5q-187 0 -268.5 103.5t-81.5 316.5zM270 1473l289 165l203 -389h-258z" />
<glyph unicode="&#xfa;" horiz-adv-x="1269" d="M78 393v744h444v-756q0 -92 82 -92q65 0 137 82v766h445v-1137h-418l-25 119q-57 -61 -142.5 -103.5t-172.5 -42.5q-187 0 -268.5 103.5t-81.5 316.5zM473 1249l207 389l285 -165l-232 -224h-260z" />
<glyph unicode="&#xfb;" horiz-adv-x="1269" d="M78 393v744h444v-756q0 -92 82 -92q65 0 137 82v766h445v-1137h-418l-25 119q-57 -61 -142.5 -103.5t-172.5 -42.5q-187 0 -268.5 103.5t-81.5 316.5zM154 1249l215 328h528l219 -328h-344l-133 158h-10l-135 -158h-340z" />
<glyph unicode="&#xfc;" horiz-adv-x="1269" d="M78 393v744h444v-756q0 -92 82 -92q65 0 137 82v766h445v-1137h-418l-25 119q-57 -61 -142.5 -103.5t-172.5 -42.5q-187 0 -268.5 103.5t-81.5 316.5zM207 1268v295h313v-295h-313zM754 1268v295h307v-295h-307z" />
<glyph unicode="&#xfd;" horiz-adv-x="1245" d="M10 1137h436l183 -602h4l186 602h418l-360 -1039q-58 -160 -115 -263t-126 -161.5t-143 -81t-176 -22.5q-154 0 -305 43l109 334q93 -35 158 -35q59 0 87 21t48 83l4 11zM446 1249l207 389l285 -165l-231 -224h-261z" />
<glyph unicode="&#xfe;" horiz-adv-x="1284" d="M88 -410v1956h444v-536q112 149 289 149q193 0 304.5 -147t111.5 -439q0 -145 -31.5 -260.5t-86 -188t-125 -110t-152.5 -37.5q-181 0 -310 123v-510h-444zM532 354q56 -53 132 -53q45 0 76 38.5t44 98t13 135.5q0 263 -133 263q-72 0 -132 -60v-422z" />
<glyph unicode="&#xff;" horiz-adv-x="1245" d="M10 1137h436l183 -602h4l186 602h418l-360 -1039q-58 -160 -115 -263t-126 -161.5t-143 -81t-176 -22.5q-154 0 -305 43l109 334q93 -35 158 -35q59 0 87 21t48 83l4 11zM195 1268v295h313v-295h-313zM741 1268v295h308v-295h-308z" />
<glyph unicode="&#x152;" horiz-adv-x="2322" d="M51 729q0 111 32.5 217.5t96.5 199t152 163t207 111t254 40.5q192 0 340 -106v80h1103v-392h-645v-141h566v-350h-566v-160h654v-391h-1112v76q-137 -103 -340 -103q-173 0 -315.5 61t-234.5 165t-142 240.5t-50 289.5zM516 729q0 -107 30 -189.5t101.5 -135t177.5 -52.5 q80 0 141 30t96.5 83t53 119t17.5 145q0 69 -19 130.5t-55.5 112t-97 80t-136.5 29.5q-77 0 -137.5 -29.5t-97 -80t-55.5 -112t-19 -130.5z" />
<glyph unicode="&#x153;" horiz-adv-x="1974" d="M47 578q0 172 78 306t214.5 206.5t307.5 72.5q232 0 361 -151q139 151 370 151q247 0 400 -139t153 -377q0 -111 -16 -186h-676q13 -77 55.5 -111.5t120.5 -34.5q154 0 301 84l178 -262q-120 -91 -242 -127.5t-263 -36.5q-241 0 -377 148q-135 -148 -365 -148 q-270 0 -435 164.5t-165 440.5zM496 575q0 -286 147 -286q143 0 143 286q0 127 -37 200t-106 73q-72 0 -109.5 -73t-37.5 -200zM1235 676h283q0 84 -31.5 134t-97.5 50q-53 0 -95.5 -45t-58.5 -139z" />
<glyph unicode="&#x178;" horiz-adv-x="1499" d="M-10 1434h518l242 -406h4l239 406h516l-528 -865v-569h-465v569zM309 1559v292h314v-292h-314zM885 1559v292h307v-292h-307z" />
<glyph unicode="&#x2c6;" horiz-adv-x="1210" d="M166 1249l215 328h528l219 -328h-344l-133 158h-10l-135 -158h-340z" />
<glyph unicode="&#x2dc;" horiz-adv-x="1177" d="M186 1249q-15 169 61 261t212 92q46 0 89 -16t69.5 -35.5t59 -35.5t60.5 -16q75 0 66 82h225q17 -168 -59 -260t-213 -92q-46 0 -88 15.5t-69 33.5t-59.5 33.5t-60.5 15.5q-39 0 -54.5 -18t-14.5 -60h-224z" />
<glyph unicode="&#x2000;" horiz-adv-x="945" />
<glyph unicode="&#x2001;" horiz-adv-x="1890" />
<glyph unicode="&#x2002;" horiz-adv-x="945" />
<glyph unicode="&#x2003;" horiz-adv-x="1890" />
<glyph unicode="&#x2004;" horiz-adv-x="630" />
<glyph unicode="&#x2005;" horiz-adv-x="472" />
<glyph unicode="&#x2006;" horiz-adv-x="315" />
<glyph unicode="&#x2007;" horiz-adv-x="315" />
<glyph unicode="&#x2008;" horiz-adv-x="236" />
<glyph unicode="&#x2009;" horiz-adv-x="378" />
<glyph unicode="&#x200a;" horiz-adv-x="105" />
<glyph unicode="&#x2010;" horiz-adv-x="778" d="M59 393v359h660v-359h-660z" />
<glyph unicode="&#x2011;" horiz-adv-x="778" d="M59 393v359h660v-359h-660z" />
<glyph unicode="&#x2012;" horiz-adv-x="778" d="M59 393v359h660v-359h-660z" />
<glyph unicode="&#x2013;" horiz-adv-x="1343" d="M55 393v359h1231v-359h-1231z" />
<glyph unicode="&#x2014;" horiz-adv-x="1820" d="M72 393v359h1677v-359h-1677z" />
<glyph unicode="&#x2018;" horiz-adv-x="567" d="M78 688v307q0 372 344 451l72 -156q-87 -21 -133 -74.5t-46 -119.5h172v-408h-409z" />
<glyph unicode="&#x2019;" horiz-adv-x="567" d="M74 831q87 21 132.5 74.5t45.5 120.5h-172v408h409v-308q0 -371 -344 -450z" />
<glyph unicode="&#x201a;" horiz-adv-x="567" d="M74 -195q87 21 132.5 74.5t45.5 120.5h-172v408h409v-308q0 -371 -344 -450z" />
<glyph unicode="&#x201c;" horiz-adv-x="1148" d="M78 688v307q0 372 344 451l72 -156q-87 -21 -133 -74.5t-46 -119.5h172v-408h-409zM659 688v307q0 372 345 451l71 -156q-87 -21 -132.5 -74t-45.5 -120h172v-408h-410z" />
<glyph unicode="&#x201d;" horiz-adv-x="1148" d="M74 831q87 21 132.5 74.5t45.5 120.5h-172v408h409v-308q0 -371 -344 -450zM655 831q87 21 133 74.5t46 120.5h-172v408h409v-308q0 -371 -344 -450z" />
<glyph unicode="&#x201e;" horiz-adv-x="1148" d="M74 -195q87 21 132.5 74.5t45.5 120.5h-172v408h409v-308q0 -371 -344 -450zM655 -195q87 21 133 74.5t46 120.5h-172v408h409v-308q0 -371 -344 -450z" />
<glyph unicode="&#x2022;" horiz-adv-x="1146" d="M215 573q0 148 105 253.5t253 105.5q149 0 254 -105.5t105 -253.5q0 -149 -105 -254.5t-254 -105.5q-148 0 -253 105.5t-105 254.5z" />
<glyph unicode="&#x2026;" horiz-adv-x="1849" d="M80 0v408h409v-408h-409zM723 0v408h410v-408h-410zM1366 0v408h410v-408h-410z" />
<glyph unicode="&#x202f;" horiz-adv-x="378" />
<glyph unicode="&#x2039;" horiz-adv-x="813" d="M57 578l414 561l270 -197l-290 -364l288 -379l-266 -199z" />
<glyph unicode="&#x203a;" horiz-adv-x="813" d="M72 942l270 197l414 -561l-416 -578l-266 199l288 379z" />
<glyph unicode="&#x205f;" horiz-adv-x="472" />
<glyph unicode="&#x20ac;" horiz-adv-x="1312" d="M39 371v190h154v27q0 35 2 53h-156v193h192q63 179 212.5 284t361.5 105q291 0 465 -193l-242 -246q-84 95 -194 95q-119 0 -175 -74h191v-164h-244q-2 -16 -2 -53v-27h246v-162h-184q68 -80 188 -80q111 0 172 70l238 -235q-170 -181 -441 -181q-210 0 -367.5 110.5 t-224.5 287.5h-192z" />
<glyph unicode="&#x2122;" horiz-adv-x="1832" d="M57 1229v205h754v-205h-242v-553h-266v553h-246zM893 676v758h244l180 -213l182 213h248v-758h-264v362l-160 -182l-166 186v-366h-264z" />
<glyph unicode="&#x25fc;" horiz-adv-x="1136" d="M0 0v1137h1137v-1137h-1137z" />
</font>
</defs>
</svg>
