<?xml version="1.0" standalone="no"?>
<!DOCTYPE svg PUBLIC "-//W3C//DTD SVG 1.1//EN" "http://www.w3.org/Graphics/SVG/1.1/DTD/svg11.dtd" >
<svg xmlns="http://www.w3.org/2000/svg">
<metadata></metadata>
<defs>
<font id="alright_sansblack" horiz-adv-x="1472" >
<font-face units-per-em="2048" ascent="1556" descent="-492" />
<missing-glyph horiz-adv-x="477" />
<glyph unicode="&#xfb01;" horiz-adv-x="1433" d="M25 846v252h161v28q0 227 130.5 334t412.5 107q138 0 285.5 -35t255.5 -94l-131 -242q-76 39 -176.5 66.5t-188.5 27.5q-115 0 -160 -39.5t-45 -132.5v-22h262v-250h-262v-846h-383v846h-161zM948 0v1096h383v-1096h-383z" />
<glyph unicode="&#xfb02;" horiz-adv-x="1447" d="M25 846v252h161v28q0 220 150 331.5t438 111.5q289 0 429 -112.5t140 -342.5v-1114h-382v1116q0 91 -44 132.5t-151 41.5t-152 -41.5t-45 -130.5v-22h269v-250h-269v-846h-383v846h-161z" />
<glyph unicode="&#xfb03;" horiz-adv-x="2193" d="M25 846v252h161v24q0 428 484 428q207 0 397 -96q131 113 420 113q138 0 285.5 -35t255.5 -94l-134 -242q-74 39 -174 66.5t-188 27.5q-114 0 -158.5 -39.5t-44.5 -132.5v-22h262v-250h-262v-846h-385v846h-375v-846h-383v846h-161zM569 1096h375v30q0 61 8 105 q-105 51 -223 51q-160 0 -160 -149v-37zM1706 0v1096h383v-1096h-383z" />
<glyph unicode="&#xfb04;" horiz-adv-x="2207" d="M25 846v252h161v24q0 428 484 428q215 0 411 -102q148 121 451 121q288 0 429.5 -112.5t141.5 -342.5v-1114h-385v1116q0 91 -43.5 132.5t-150.5 41.5t-151 -41.5t-44 -130.5v-22h264v-250h-264v-846h-385v846h-375v-846h-383v846h-161zM569 1096h375v30q0 61 8 105 q-102 51 -223 51q-160 0 -160 -149v-37z" />
<glyph horiz-adv-x="0" />
<glyph horiz-adv-x="682" />
<glyph unicode=" "  horiz-adv-x="477" />
<glyph unicode="&#x09;" horiz-adv-x="477" />
<glyph unicode="&#xa0;" horiz-adv-x="477" />
<glyph unicode="!" horiz-adv-x="577" d="M96 1137v297h383v-297l-94 -674h-192zM106 0v309h361v-309h-361z" />
<glyph unicode="&#x22;" horiz-adv-x="1021" d="M74 745v689h375l-164 -689h-211zM573 745v689h375l-164 -689h-211z" />
<glyph unicode="#" horiz-adv-x="1400" d="M51 242v247h244l33 201h-215v250h256l39 240h286l-41 -240h207l39 240h283l-39 -240h207v-250h-246l-33 -201h219v-247h-258l-39 -242h-286l38 242h-206l-39 -242h-283l39 242h-205zM580 489h206l33 201h-207z" />
<glyph unicode="$" horiz-adv-x="1196" d="M66 113l161 258q169 -96 328 -111v201q-185 42 -265 77q-201 88 -211 267q-1 11 -1 22q0 157 121 258.5t333 116.5v166h154v-168q209 -13 387 -98l-141 -260q-137 65 -270 82v-187q43 -10 70 -16t70 -18.5t71.5 -24t66 -29.5t61.5 -37.5t50.5 -47t41.5 -58.5t25 -71 t10 -85q0 -151 -114.5 -251.5t-327.5 -118.5v-252h-154v249q-254 15 -466 136zM430 850q0 -58 125 -88v166q-125 -8 -125 -78zM662 260q120 11 120 80q0 32 -30.5 53.5t-89.5 40.5v-174z" />
<glyph unicode="%" horiz-adv-x="1763" d="M70 868q0 146 102 237t258 91q158 0 260.5 -91t102.5 -237q0 -153 -100.5 -244.5t-262.5 -91.5q-160 0 -260 92t-100 244zM293 0l950 1180h219l-946 -1180h-223zM301 868q0 -70 33.5 -111.5t95.5 -41.5q63 0 98 41.5t35 111.5q0 64 -36 105t-97 41q-58 0 -93.5 -41 t-35.5 -105zM971 319q0 146 102.5 237t259.5 91t260 -91t103 -237q0 -152 -101 -243.5t-262 -91.5q-160 0 -261 91.5t-101 243.5zM1202 319q0 -69 34.5 -111t96.5 -42q63 0 97 42t34 111q0 65 -35.5 106.5t-95.5 41.5q-59 0 -95 -42t-36 -106z" />
<glyph unicode="&#x26;" horiz-adv-x="1540" d="M61 408q0 126 73 228.5t196 176.5q-92 130 -92 270q0 162 127.5 269.5t318.5 107.5q252 0 455 -203l-228 -200q-119 112 -211 112q-51 0 -81.5 -29.5t-30.5 -72.5q0 -47 29.5 -90t84.5 -98q142 -137 340 -293q35 100 35 223h332q0 -232 -106 -424q142 -102 221 -154 l-203 -247q-148 101 -223 155q-216 -166 -498 -166q-122 0 -224 34.5t-170.5 93.5t-106.5 138.5t-38 168.5zM406 449q0 -85 63 -131t166 -46q115 0 211 58q-191 148 -342 293q-98 -69 -98 -174z" />
<glyph unicode="'" horiz-adv-x="520" d="M74 745v689h375l-164 -689h-211z" />
<glyph unicode="(" horiz-adv-x="870" d="M96 567q0 555 340 977h398q-79 -91 -142.5 -192t-118 -223t-84.5 -266t-30 -296q0 -537 375 -977h-394q-344 423 -344 977z" />
<glyph unicode=")" horiz-adv-x="870" d="M37 -410q375 440 375 977q0 152 -30 296t-84.5 266t-118 223t-142.5 192h397q340 -422 340 -977q0 -554 -344 -977h-393z" />
<glyph unicode="*" horiz-adv-x="860" d="M78 1020l2 233l219 -30l4 4l-84 200l207 60l45 -213l6 -2l166 131l129 -180l-186 -93v-6l178 -114l-139 -172l-156 153l-8 -2l-66 -217l-196 70l98 200l-4 5z" />
<glyph unicode="+" horiz-adv-x="1259" d="M66 410v307h391v405h346v-405h389v-307h-389v-410h-346v410h-391z" />
<glyph unicode="," horiz-adv-x="540" d="M78 -193q81 23 123.5 74.5t42.5 118.5h-158v369h369v-279q0 -176 -76.5 -278t-235.5 -144z" />
<glyph unicode="-" horiz-adv-x="782" d="M66 408v313h651v-313h-651z" />
<glyph unicode="." horiz-adv-x="536" d="M86 0v369h369v-369h-369z" />
<glyph unicode="/" horiz-adv-x="1202" d="M-25 -410l902 1956h350l-901 -1956h-351z" />
<glyph unicode="0" horiz-adv-x="1411" d="M76 592q0 186 85.5 327.5t228 214t317.5 72.5t316.5 -72.5t226.5 -214t85 -327.5q0 -188 -85 -330.5t-226.5 -215.5t-316.5 -73t-317.5 73t-228 215.5t-85.5 330.5zM481 592q0 -139 60 -222t166 -83t165.5 83t59.5 222q0 137 -59.5 218t-165.5 81t-166 -81t-60 -218z" />
<glyph unicode="1" horiz-adv-x="847" d="M-4 1012l442 176h277v-1188h-404v807l-196 -66z" />
<glyph unicode="2" horiz-adv-x="1259" d="M98 1038q274 168 564 168q254 0 396 -101.5t142 -273.5q0 -78 -31.5 -141.5t-84.5 -105.5t-117 -75.5t-133 -59t-129 -47.5t-108.5 -49.5t-68.5 -57.5h639v-295h-1056l-2 66q-3 97 19 179.5t61.5 139.5t92 104t111 79t117.5 58.5t113 47t95.5 40.5t66 43.5t24.5 51.5 q0 43 -40.5 69.5t-117.5 26.5q-189 0 -401 -135z" />
<glyph unicode="3" horiz-adv-x="1277" d="M49 -152l146 273q201 -103 374 -103q121 0 194 45t73 119q0 83 -68 117.5t-190 34.5h-211v278h200q111 0 168.5 34.5t57.5 115.5q0 62 -52.5 103.5t-146.5 41.5q-60 0 -122 -15.5t-104 -33t-114 -51.5l-154 258q130 70 255.5 105.5t277.5 35.5q252 0 404.5 -107.5 t152.5 -289.5q0 -109 -48.5 -177t-146.5 -124q124 -62 182 -147t58 -199q0 -88 -35.5 -162t-96.5 -125t-144 -87t-177.5 -52.5t-197.5 -16.5q-274 0 -535 129z" />
<glyph unicode="4" horiz-adv-x="1398" d="M66 285l751 895h361v-893h153v-285h-153v-256h-381v256h-604zM424 287h373v469z" />
<glyph unicode="5" horiz-adv-x="1267" d="M63 -147l156 282q83 -47 179 -73.5t184 -26.5q103 0 167 49t64 133q0 77 -52.5 123.5t-131.5 46.5q-111 0 -226 -53l-233 137l31 709h907v-281h-551l-12 -272q115 41 243 41q79 0 153.5 -28t135 -80t97 -137.5t36.5 -191.5q0 -122 -53.5 -221t-143.5 -161.5t-204 -96 t-240 -33.5q-138 0 -258.5 33.5t-247.5 100.5z" />
<glyph unicode="6" horiz-adv-x="1320" d="M74 682q0 159 38 289.5t103 220t154.5 151t190 89.5t210.5 28q211 0 420 -119l-154 -254q-126 72 -268 72q-135 0 -203.5 -85t-81.5 -230q58 43 141.5 70.5t168.5 27.5q206 0 330 -120t124 -341q0 -103 -41 -195.5t-115 -162t-183 -110t-238 -40.5q-148 0 -263.5 54 t-187.5 150.5t-108.5 224t-36.5 280.5zM485 598q3 -332 197 -332q77 0 125.5 59t48.5 154q0 97 -43 151t-125 54q-103 0 -203 -86z" />
<glyph unicode="7" horiz-adv-x="1179" d="M72 866v314h1046v-283l-502 -1151h-417l522 1120h-649z" />
<glyph unicode="8" horiz-adv-x="1411" d="M80 385q0 123 80 216.5t217 148.5q-105 43 -174.5 123.5t-69.5 181.5q0 127 75.5 219.5t204 139t294.5 46.5q253 0 412 -107.5t159 -297.5q0 -102 -70 -182t-176 -123q138 -55 219.5 -148.5t81.5 -216.5q0 -130 -82.5 -224t-222.5 -141t-321 -47t-321.5 46.5t-223 141 t-82.5 224.5zM477 410q0 -73 66 -119.5t164 -46.5t162.5 46.5t64.5 119.5q0 67 -65.5 122t-161.5 72q-99 -17 -164.5 -72t-65.5 -122zM530 1051q0 -67 47.5 -113.5t129.5 -56.5q79 10 126.5 57t47.5 113q0 60 -50 98.5t-124 38.5q-77 0 -127 -38.5t-50 -98.5z" />
<glyph unicode="9" horiz-adv-x="1327" d="M70 694q0 103 41 195.5t115 162t183 110t238 40.5q149 0 264.5 -54t187.5 -150t109 -223.5t37 -280.5q0 -159 -38 -290t-102.5 -220.5t-153.5 -151t-189.5 -89.5t-210.5 -28q-102 0 -214.5 32.5t-211.5 92.5l156 254q125 -78 272 -78q135 0 203.5 85t79.5 229 q-59 -42 -140.5 -69.5t-165.5 -27.5q-208 0 -334 120.5t-126 340.5zM461 696q0 -95 45 -148.5t129 -53.5q103 0 201 84q-6 331 -201 331q-78 0 -126 -59t-48 -154z" />
<glyph unicode=":" horiz-adv-x="536" d="M86 0v369h369v-369h-369zM86 754v368h369v-368h-369z" />
<glyph unicode=";" horiz-adv-x="540" d="M78 -193q81 23 123.5 74.5t42.5 118.5h-158v369h369v-279q0 -176 -76.5 -278t-235.5 -144zM86 754v368h369v-368h-369z" />
<glyph unicode="&#x3c;" horiz-adv-x="1177" d="M68 395v338l1024 389v-377l-570 -184l570 -184v-377z" />
<glyph unicode="=" horiz-adv-x="1259" d="M66 152v307h1126v-307h-1126zM66 666v307h1126v-307h-1126z" />
<glyph unicode="&#x3e;" horiz-adv-x="1177" d="M86 0v377l569 184l-569 184v377l1024 -389v-338z" />
<glyph unicode="?" horiz-adv-x="1193" d="M59 1223q237 237 535 237q238 0 381 -104t143 -291q0 -72 -23 -131.5t-59.5 -100t-81.5 -74.5t-90 -62t-83 -55t-63 -61t-28 -73l-4 -45h-278q-15 73 -15 108q0 70 26 125.5t65 89t84 64.5t84 54.5t65 57t26 72.5q0 58 -46 91.5t-111 33.5q-161 0 -305 -135zM369 0v309 h360v-309h-360z" />
<glyph unicode="@" horiz-adv-x="1662" d="M111 586q0 151 58.5 288.5t157.5 237t236.5 158.5t288.5 59q193 0 354 -90t254.5 -246t93.5 -342q0 -96 -27 -177t-70 -135.5t-99 -93t-113 -56t-112 -17.5q-185 0 -246 133q-97 -104 -219 -104q-98 0 -167 77.5t-69 204.5q0 83 24 167.5t68.5 157.5t118.5 119t164 46 q121 0 184 -103l39 82h221l-137 -483q-21 -82 -1 -120t77 -38q39 0 80.5 22t78 62.5t60 107.5t23.5 148q0 153 -77 280.5t-209.5 201t-291.5 73.5q-167 0 -309.5 -83t-225.5 -226t-83 -311q0 -125 49 -239.5t132 -197t197.5 -131.5t239.5 -49q188 0 348 109l70 -103 q-189 -131 -420 -131q-202 0 -372.5 99.5t-269.5 270t-99 372.5zM684 498q0 -107 78 -107q41 0 73.5 30.5t47.5 86.5l61 227q-34 43 -90 43q-50 0 -90.5 -46.5t-60 -110t-19.5 -123.5z" />
<glyph unicode="A" d="M14 0l502 1434h440l500 -1434h-424l-65 213h-463l-64 -213h-426zM592 506h287l-142 469h-4z" />
<glyph unicode="B" horiz-adv-x="1390" d="M115 0v1434h633q262 0 394 -103t132 -284q0 -209 -215 -306q121 -38 193.5 -120t72.5 -209q0 -196 -151 -304t-408 -108h-651zM508 307h246q84 0 132 37.5t48 110.5q0 71 -49 109t-131 38h-246v-295zM508 848h201q80 0 124 36.5t44 104.5q0 66 -44 101.5t-124 35.5h-201 v-278z" />
<glyph unicode="C" horiz-adv-x="1435" d="M66 719q0 208 97 377t271.5 266.5t392.5 97.5q306 0 549 -198l-217 -265q-76 63 -149.5 97t-173.5 34q-170 0 -271.5 -111t-101.5 -298q0 -191 100 -302.5t273 -111.5q185 0 325 137l230 -241q-248 -228 -578 -228q-217 0 -388.5 97.5t-265 267.5t-93.5 381z" />
<glyph unicode="D" horiz-adv-x="1486" d="M115 0v1434h508q389 0 594.5 -184.5t205.5 -522.5q0 -352 -199 -539.5t-601 -187.5h-508zM510 313h149q181 0 274 108.5t93 301.5q0 184 -96 290.5t-271 106.5h-149v-807z" />
<glyph unicode="E" horiz-adv-x="1292" d="M115 0v1434h1081v-340h-686v-220h606v-294h-606v-240h692v-340h-1087z" />
<glyph unicode="F" horiz-adv-x="1267" d="M115 0v1434h1065v-340h-668v-246h575v-318h-575v-530h-397z" />
<glyph unicode="G" horiz-adv-x="1501" d="M66 719q0 152 53 287t149.5 236t241 159.5t317.5 58.5q169 0 303.5 -52t253.5 -146l-208 -256q-160 122 -334 122q-171 0 -274 -116t-103 -295q0 -190 100 -301t277 -111q115 0 200 49v217h-278v248h633v-665q-240 -181 -572 -181q-170 0 -313 56.5t-240.5 156 t-151.5 236.5t-54 297z" />
<glyph unicode="H" horiz-adv-x="1470" d="M115 0v1434h397v-541h449v541h395v-1434h-395v559h-449v-559h-397z" />
<glyph unicode="I" horiz-adv-x="626" d="M115 0v1434h397v-1434h-397z" />
<glyph unicode="J" horiz-adv-x="1155" d="M39 248l287 196q90 -125 188 -125q62 0 100.5 41.5t38.5 116.5v957h396v-965q0 -243 -139 -369.5t-367 -126.5q-317 0 -504 275z" />
<glyph unicode="K" horiz-adv-x="1452" d="M115 0v1434h397v-600l463 600h424l-426 -523l465 -911h-439l-278 600l-209 -258v-342h-397z" />
<glyph unicode="L" horiz-adv-x="1220" d="M115 0v1434h397v-1096h649v-338h-1046z" />
<glyph unicode="M" horiz-adv-x="1775" d="M115 0v1434h395l379 -533l381 533h389v-1434h-371v889l-399 -545l-400 545v-889h-374z" />
<glyph unicode="N" horiz-adv-x="1513" d="M115 0v1434h374l537 -816v816h373v-1434h-373l-539 811v-811h-372z" />
<glyph unicode="O" horiz-adv-x="1646" d="M66 717q0 205 92 373.5t266 269t399 100.5q170 0 313.5 -58.5t240 -159t150.5 -236.5t54 -289q0 -122 -34 -234.5t-99.5 -205t-156.5 -160.5t-211 -106t-257 -38q-170 0 -313 58.5t-239.5 159.5t-150.5 237t-54 289zM467 717q0 -182 95.5 -298t260.5 -116 q166 0 262.5 116t96.5 298t-95.5 297.5t-263.5 115.5q-166 0 -261 -115.5t-95 -297.5z" />
<glyph unicode="P" horiz-adv-x="1411" d="M115 0v1434h622q129 0 231 -26t168 -70t110 -105t62.5 -127.5t18.5 -142.5t-18.5 -143.5t-62.5 -129.5t-110 -106t-167 -70.5t-228 -26.5h-229v-487h-397zM512 786h225q93 0 144 44.5t51 125.5q0 83 -52 126.5t-143 43.5h-225v-340z" />
<glyph unicode="Q" horiz-adv-x="1650" d="M66 717q0 205 92 373.5t266 269t399 100.5q170 0 313.5 -58.5t240 -159t150.5 -236.5t54 -289q0 -262 -145 -455l151 -127l-186 -196l-162 143q-179 -109 -416 -109q-170 0 -313 58.5t-239.5 159.5t-150.5 237t-54 289zM467 717q0 -182 95.5 -298t260.5 -116q83 0 150 31 l-193 166l166 184l195 -176q41 93 41 209q0 182 -95.5 297.5t-263.5 115.5q-166 0 -261 -115.5t-95 -297.5z" />
<glyph unicode="R" horiz-adv-x="1445" d="M115 0v1434h645q128 0 229.5 -26t168 -70t110 -105t62 -128t18.5 -142q0 -128 -60 -230t-182 -160l256 -573h-420l-188 508h-242v-508h-397zM512 786h244q92 0 143 44t51 126q0 84 -52 127t-142 43h-244v-340z" />
<glyph unicode="S" horiz-adv-x="1302" d="M55 139l187 305q101 -58 209 -92.5t200 -34.5q78 0 123 27.5t45 73.5q0 38 -40.5 64.5t-105 44t-142 36t-155.5 51t-142.5 79t-105 129t-40.5 192.5q0 190 148 318t399 128q255 0 539 -131l-144 -305q-187 94 -375 94q-73 0 -115 -28t-42 -72q0 -30 25 -51.5t67.5 -36.5 t97 -28t115.5 -29.5t121.5 -37.5t115 -56t97 -81t67.5 -116t25 -158q0 -96 -36.5 -177t-107 -142.5t-181.5 -96.5t-251 -35q-157 0 -322.5 48t-275.5 118z" />
<glyph unicode="T" horiz-adv-x="1376" d="M45 1085v349h1286v-349h-446v-1085h-393v1085h-447z" />
<glyph unicode="U" horiz-adv-x="1478" d="M109 555v879h399v-881q0 -114 61 -180t170 -66q108 0 171 66.5t63 179.5v881h397v-879q0 -288 -168.5 -435t-462.5 -147q-292 0 -461 147t-169 435z" />
<glyph unicode="V" horiz-adv-x="1464" d="M14 1434h426l289 -967h4l291 967h426l-500 -1434h-436z" />
<glyph unicode="W" horiz-adv-x="2256" d="M31 1434h411l256 -863h4l250 863h355l249 -863h5l258 863h409l-450 -1434h-394l-251 868h-5l-256 -868h-391z" />
<glyph unicode="X" horiz-adv-x="1501" d="M27 0l471 729l-459 705h475l246 -394l241 394h465l-460 -705l469 -729h-471l-256 422l-259 -422h-462z" />
<glyph unicode="Y" horiz-adv-x="1474" d="M6 1434h451l280 -467h4l279 467h448l-530 -863v-571h-401v571z" />
<glyph unicode="Z" horiz-adv-x="1335" d="M76 1081v353h1169v-291l-637 -791h666v-352h-1196v287l645 794h-647z" />
<glyph unicode="[" horiz-adv-x="946" d="M141 -410v1956h707v-258h-324v-1435h324v-263h-707z" />
<glyph unicode="\" horiz-adv-x="1202" d="M-25 1546h351l901 -1956h-350z" />
<glyph unicode="]" horiz-adv-x="946" d="M98 -147h324v1435h-324v258h707v-1956h-707v263z" />
<glyph unicode="^" horiz-adv-x="1286" d="M156 1151l303 389h372l299 -389h-337l-148 158l-151 -158h-338z" />
<glyph unicode="_" horiz-adv-x="1136" d="M0 -27h1137v-315h-1137v315z" />
<glyph unicode="`" horiz-adv-x="1124" d="M324 1466l254 154l225 -387h-230z" />
<glyph unicode="a" horiz-adv-x="1204" d="M66 270q0 65 20 120t66.5 105t118.5 87t181 64t250 40v62q0 102 -120 102q-72 0 -154.5 -26.5t-208.5 -86.5l-129 271q272 139 512 139q250 0 365.5 -109t115.5 -305v-420q0 -67 76 -67v-252q-187 0 -274 28t-144 115q-74 -86 -155 -125t-195 -39q-142 0 -233.5 82.5 t-91.5 214.5zM446 328q0 -39 28 -65.5t73 -26.5q94 0 155 75v183q-118 -8 -187 -49.5t-69 -116.5z" />
<glyph unicode="b" horiz-adv-x="1265" d="M102 0v1546h387v-542q57 67 135.5 104t163.5 37q194 0 306 -146t112 -430q0 -285 -113 -438.5t-292 -153.5q-193 0 -334 148l-25 -125h-340zM489 338q75 -78 170 -78q84 0 125 84.5t41 224.5q0 291 -166 291q-91 0 -170 -82v-440z" />
<glyph unicode="c" horiz-adv-x="1087" d="M55 563q0 178 78 312t211.5 203t302.5 69q229 0 410 -146l-189 -239q-96 80 -206 80q-90 0 -154 -72.5t-64 -206.5q0 -137 63.5 -210.5t154.5 -73.5q104 0 198 75l203 -213q-183 -168 -416 -168q-166 0 -299.5 69t-213 204.5t-79.5 316.5z" />
<glyph unicode="d" horiz-adv-x="1265" d="M59 569q0 284 113 430t307 146q85 0 164.5 -37t134.5 -104v542h385v-1546h-338l-22 125q-71 -72 -151 -110t-185 -38q-180 0 -294 154t-114 438zM440 569q0 -139 41.5 -224t124.5 -85q100 0 172 78v440q-75 82 -172 82q-166 0 -166 -291z" />
<glyph unicode="e" horiz-adv-x="1222" d="M59 563q0 134 46.5 245.5t125.5 184.5t183.5 113.5t220.5 40.5q243 0 385.5 -138t142.5 -372q0 -89 -14 -164h-698q15 -104 68.5 -152.5t150.5 -48.5q151 0 301 88l155 -231q-210 -156 -493 -156q-120 0 -224.5 40t-182 114t-122.5 186.5t-45 249.5zM455 672h350 q0 95 -38.5 152t-119.5 57q-71 0 -122.5 -52.5t-69.5 -156.5z" />
<glyph unicode="f" horiz-adv-x="884" d="M25 846v252h161v43q0 428 478 428q150 0 297 -60l-89 -252q-101 33 -178 33q-125 0 -125 -141v-51h262v-252h-262v-846h-383v846h-161z" />
<glyph unicode="g" horiz-adv-x="1245" d="M12 -139q0 142 152 223q-64 73 -64 158q0 58 30.5 108.5t88.5 83.5q-160 117 -160 307q0 181 141 293.5t359 112.5q191 0 328 -94q132 90 327 90v-228q-110 0 -194 -20q33 -74 33 -154q0 -126 -71.5 -220.5t-182 -140.5t-240.5 -46q-85 0 -158 18q-30 -18 -30 -49 q0 -23 21.5 -36t78 -20t162.5 -9q275 -6 412 -87t137 -245q0 -336 -594 -336q-272 0 -424 73t-152 218zM362 -129q0 -44 51 -65t175 -21q136 0 193 18t57 58q0 28 -17.5 43.5t-68 24t-146.5 10.5q-112 3 -203 22q-41 -35 -41 -90zM422 739q0 -75 37.5 -120.5t99.5 -45.5 q64 0 100.5 45t36.5 121q0 77 -36.5 123.5t-100.5 46.5q-62 0 -99.5 -47t-37.5 -123z" />
<glyph unicode="h" horiz-adv-x="1253" d="M102 0v1546h387v-547q146 146 320 146q185 0 267.5 -102.5t82.5 -305.5v-737h-385v748q0 122 -108 122q-101 0 -177 -102v-768h-387z" />
<glyph unicode="i" horiz-adv-x="591" d="M102 0v1098h387v-1098h-387zM102 1245v297h387v-297h-387z" />
<glyph unicode="j" horiz-adv-x="620" d="M-186 -377l90 271q72 -21 123 -21q52 0 78 28t26 93v1104h385v-1078q0 -450 -422 -450q-127 0 -280 53zM131 1243v299h385v-299h-385z" />
<glyph unicode="k" horiz-adv-x="1261" d="M102 0v1546h387v-876l367 450h383l-346 -401l358 -719h-430l-180 424l-152 -176v-248h-387z" />
<glyph unicode="l" horiz-adv-x="595" d="M104 0v1546h388v-1546h-388z" />
<glyph unicode="m" horiz-adv-x="1865" d="M100 0v1120h369l14 -108q66 60 151.5 97.5t160.5 37.5q206 0 282 -152q169 152 353 152q170 0 254.5 -105t84.5 -297v-745h-385v756q0 114 -92 114q-82 0 -166 -90q0 -11 1 -34.5t1 -36.5v-709h-385v756q0 114 -92 114q-43 0 -89 -27t-77 -71v-772h-385z" />
<glyph unicode="n" horiz-adv-x="1251" d="M100 0v1120h367l16 -121q148 148 324 148q185 0 267.5 -103.5t82.5 -306.5v-737h-385v748q0 122 -108 122q-100 0 -179 -102v-768h-385z" />
<glyph unicode="o" horiz-adv-x="1271" d="M59 569q0 169 75.5 301.5t207 204.5t295.5 72q163 0 294 -72t206 -204.5t75 -301.5q0 -274 -158 -435t-417 -161q-262 0 -420 160.5t-158 435.5zM446 567q0 -148 49 -231.5t142 -83.5q92 0 140 83.5t48 231.5q0 137 -50.5 219t-137.5 82q-89 0 -140 -81.5t-51 -219.5z " />
<glyph unicode="p" horiz-adv-x="1263" d="M102 -410v1530h349l28 -133q123 158 305 158q194 0 307 -146t113 -430t-113.5 -438t-291.5 -154q-181 0 -316 132v-519h-381zM483 338q75 -78 172 -78q84 0 126 84.5t42 224.5q0 291 -168 291q-93 0 -172 -82v-440z" />
<glyph unicode="q" horiz-adv-x="1265" d="M59 569q0 284 113 430t307 146q184 0 307 -158l29 133h348v-1530h-381v519q-135 -132 -315 -132t-294 154t-114 438zM440 569q0 -139 43 -224t127 -85q97 0 172 78v440q-82 82 -172 82q-170 0 -170 -291z" />
<glyph unicode="r" horiz-adv-x="950" d="M100 0v1120h361l22 -157q60 109 137 150.5t175 41.5q64 0 123 -16l-46 -351q-71 23 -157 23q-145 0 -230 -168v-643h-385z" />
<glyph unicode="s" horiz-adv-x="1069" d="M49 92l135 260q194 -96 340 -96q123 0 123 68q0 25 -24.5 43.5t-65 29.5t-92 25t-105 28t-105 41.5t-92 63.5t-65 95t-24.5 134q0 88 38.5 158.5t104.5 114.5t149.5 67t178.5 23q210 0 434 -103l-131 -251q-77 36 -160.5 54.5t-134.5 18.5q-111 0 -111 -67 q0 -28 31.5 -47t81.5 -31t111 -25.5t122 -38t111 -60t81.5 -99t31.5 -148.5q0 -178 -133.5 -277.5t-346.5 -99.5q-253 0 -483 119z" />
<glyph unicode="t" horiz-adv-x="950" d="M25 862v258h161v254h385v-254h299v-258h-299v-479q0 -54 21 -79t65 -25q72 0 136 47l135 -222q-164 -131 -373 -131q-191 0 -280 96.5t-89 305.5v487h-161z" />
<glyph unicode="u" horiz-adv-x="1251" d="M94 385v735h385v-745q0 -123 107 -123q93 0 180 100v768h385v-1120h-360l-21 123q-60 -64 -147 -107t-179 -43q-184 0 -267 104t-83 308z" />
<glyph unicode="v" horiz-adv-x="1146" d="M16 1120h371l193 -706h4l192 706h354l-358 -1120h-399z" />
<glyph unicode="w" horiz-adv-x="1753" d="M16 1120h367l178 -624h4l168 624h289l168 -624h4l176 624h365l-351 -1120h-333l-174 584h-5l-172 -584h-333z" />
<glyph unicode="x" horiz-adv-x="1153" d="M16 0l342 569l-338 551h388l167 -293l168 293h387l-335 -551l340 -569h-373l-187 311l-184 -311h-375z" />
<glyph unicode="y" horiz-adv-x="1200" d="M14 -387l99 291q99 -35 153 -35q60 0 90 22t50 84l18 45l-406 1100h381l207 -653h4l207 653h367l-381 -1089q-50 -138 -102.5 -228t-114.5 -141.5t-129.5 -71.5t-159.5 -20q-142 0 -283 43z" />
<glyph unicode="z" horiz-adv-x="1093" d="M74 0v244l473 596h-459v280h920v-252l-461 -587h481v-281h-954z" />
<glyph unicode="{" horiz-adv-x="1046" d="M55 399v336h109q80 0 107.5 26.5t27.5 104.5v305q0 375 473 375h172v-266h-143q-66 0 -92.5 -25t-26.5 -90v-293q0 -115 -50 -191.5t-181 -113.5v-2q131 -40 181 -116t50 -189v-291q0 -64 26.5 -88t92.5 -24h143v-267h-172q-237 0 -355 92.5t-118 282.5v303q0 77 -28 104 t-107 27h-109z" />
<glyph unicode="|" horiz-adv-x="690" d="M172 -410v1956h346v-1956h-346z" />
<glyph unicode="}" horiz-adv-x="1046" d="M102 -143h144q66 0 92.5 24t26.5 88v291q0 113 50 189t181 116v2q-131 37 -181 113.5t-50 191.5v293q0 65 -26.5 90t-92.5 25h-144v266h172q474 0 474 -375v-305q0 -78 27.5 -104.5t107.5 -26.5h108v-336h-108q-79 0 -107 -27t-28 -104v-303q0 -375 -474 -375h-172v267z " />
<glyph unicode="~" horiz-adv-x="1200" d="M119 424q0 164 75.5 263t213.5 99q60 0 116 -20.5t91.5 -45t78.5 -45t80 -20.5q76 0 76 103h229q2 -16 2 -53q0 -166 -74.5 -264.5t-213.5 -98.5q-59 0 -114.5 20.5t-91.5 45t-78.5 45t-78.5 20.5q-79 0 -76 -102h-233q-2 18 -2 53z" />
<glyph unicode="&#xa1;" horiz-adv-x="573" d="M96 -14l97 673h192l94 -673v-297h-383v297zM106 813v309h361v-309h-361z" />
<glyph unicode="&#xa2;" horiz-adv-x="1310" d="M78 594q0 125 46 235.5t130 194t211 132t280 48.5h29l41 168h174l-49 -194q156 -41 274 -144l-184 -237q-97 79 -180 102l-154 -631q16 -4 54 -4q83 0 149 33t129 96l211 -209q-212 -209 -494 -209q-19 0 -86 5l-63 -252h-162l70 282q-201 62 -313.5 220.5t-112.5 363.5z M440 594q0 -96 41 -173t113 -118l143 612q-130 -5 -213.5 -94t-83.5 -227z" />
<glyph unicode="&#xa3;" horiz-adv-x="1339" d="M53 186q0 94 65 154.5t169 60.5q82 0 194 -49q-8 79 -55 162h-293v188h166q-49 90 -49 193q0 133 115 222t317 89q159 0 272.5 -59.5t178.5 -161.5l-261 -127q-30 42 -73 67t-88 25q-48 0 -74.5 -22t-26.5 -60q0 -63 66 -168h272v-186h-170q23 -64 23 -127 q0 -84 -35 -156q74 -18 125 -18q69 0 93.5 45.5t6.5 114.5h303q50 -175 -30 -287.5t-260 -112.5q-186 0 -367 105q-145 -105 -336 -105q-107 0 -177.5 59.5t-70.5 153.5zM209 190q0 -37 22 -57t60 -20q98 0 158 88q-99 61 -158 61q-35 0 -58.5 -19t-23.5 -53z" />
<glyph unicode="&#xa4;" horiz-adv-x="1443" d="M106 121l125 131q-100 149 -100 330q0 188 102 333l-127 134l148 135l115 -125q158 119 354 119q194 0 352 -119l117 125l145 -135l-127 -129q107 -156 107 -338t-105 -332l125 -129l-145 -133l-117 121q-155 -117 -352 -117q-199 0 -354 117l-115 -121zM483 584 q0 -100 70 -169t170 -69t171 69.5t71 168.5q0 101 -71 171t-171 70t-170 -70t-70 -171z" />
<glyph unicode="&#xa5;" horiz-adv-x="1290" d="M14 1180h449l178 -265h4l180 265h451l-438 -582h299v-176h-299v-90h299v-176h-299v-156h-387v156h-304v176h304v90h-304v176h304z" />
<glyph unicode="&#xa6;" horiz-adv-x="690" d="M172 383h346v-793h-346v793zM172 743v803h346v-803h-346z" />
<glyph unicode="&#xa7;" horiz-adv-x="1155" d="M100 453q0 118 119 206q-98 75 -98 213q0 156 130.5 245t369.5 89q104 0 215.5 -31.5t199.5 -89.5l-192 -208q-56 32 -123 50.5t-119 18.5q-127 0 -127 -67q0 -28 32 -47.5t83 -32.5t112.5 -27t123 -36t112.5 -53t83 -85.5t32 -126.5q0 -118 -117 -207q98 -75 98 -211 q0 -157 -130 -247.5t-369 -90.5q-101 0 -214 32.5t-204 88.5l194 211q55 -32 122.5 -51t119.5 -19q127 0 127 70q0 28 -32 47.5t-83 32.5t-113 26.5t-124 35.5t-113 53t-83 85t-32 126zM416 504q0 -20 7.5 -37t25.5 -30t34 -22t48.5 -18.5t52.5 -14.5t62 -14t61 -14 q30 30 30 66q0 20 -7.5 37t-26 30t-34 21.5t-48.5 18t-52 14t-62 13.5t-61 13q-30 -30 -30 -63z" />
<glyph unicode="&#xa8;" horiz-adv-x="1212" d="M211 1264v270h283v-270h-283zM725 1264v270h276v-270h-276z" />
<glyph unicode="&#xa9;" horiz-adv-x="1673" d="M94 586q0 151 58.5 288.5t158 237t237 158.5t288.5 59t288.5 -59t237 -158.5t158.5 -237t59 -288.5t-59 -288.5t-158.5 -237t-237 -158t-288.5 -58.5q-202 0 -372.5 99.5t-270 270t-99.5 372.5zM221 586q0 -125 49 -239.5t131.5 -197t197 -131.5t239.5 -49t239.5 49 t197.5 131.5t132 197t49 239.5q0 168 -83 311t-225.5 226t-309.5 83q-125 0 -239.5 -49t-197 -132t-131.5 -198t-49 -241zM428 584q0 110 50.5 201.5t149 148.5t226.5 57q192 0 328 -123l-152 -172q-91 76 -162 76q-73 0 -120.5 -52t-47.5 -136q0 -85 45 -134t119 -49 q96 0 170 74l158 -162q-143 -133 -340 -133q-195 0 -309.5 115t-114.5 289z" />
<glyph unicode="&#xaa;" horiz-adv-x="827" d="M49 862q0 116 110 188.5t333 92.5v43q0 69 -95 69t-247 -73l-82 178q173 92 340 92q165 0 243 -72.5t78 -203.5v-283q0 -26 13 -36.5t42 -10.5v-168q-121 0 -176.5 18.5t-89.5 75.5q-53 -56 -108 -82t-131 -26q-100 0 -165 55.5t-65 142.5zM287 901q0 -28 21.5 -45.5 t56.5 -17.5q79 0 127 51v125q-90 -7 -147.5 -34.5t-57.5 -78.5z" />
<glyph unicode="&#xab;" horiz-adv-x="1388" d="M68 567l411 555l240 -174l-303 -381l301 -391l-238 -176zM655 567l412 555l240 -174l-303 -381l301 -391l-238 -176z" />
<glyph unicode="&#xac;" horiz-adv-x="1386" d="M102 889v291h1182v-658h-391v367h-791z" />
<glyph unicode="&#xad;" horiz-adv-x="782" d="M66 408v313h651v-313h-651z" />
<glyph unicode="&#xae;" horiz-adv-x="1673" d="M94 586q0 151 58.5 288.5t158 237t237 158.5t288.5 59t288.5 -59t237 -158.5t158.5 -237t59 -288.5t-59 -288.5t-158.5 -237t-237 -158t-288.5 -58.5q-202 0 -372.5 99.5t-270 270t-99.5 372.5zM221 586q0 -125 49 -239.5t131.5 -197t197 -131.5t239.5 -49t239.5 49 t197.5 131.5t132 197t49 239.5q0 168 -83 311t-225.5 226t-309.5 83q-125 0 -239.5 -49t-197 -132t-131.5 -198t-49 -241zM506 209v770h416q77 0 138 -23t97.5 -62t55 -85.5t18.5 -97.5q0 -68 -30.5 -126t-92.5 -93q1 -2 58 -137t65 -146h-277l-88 252h-90v-252h-270z M776 631h96q48 0 70.5 24t22.5 56q0 34 -22.5 60t-70.5 26h-96v-166z" />
<glyph unicode="&#xaf;" horiz-adv-x="1189" d="M264 1288v221h721v-221h-721z" />
<glyph unicode="&#xb0;" horiz-adv-x="811" d="M45 1114q0 153 105.5 250.5t255.5 97.5t255 -97.5t105 -250.5q0 -157 -104 -252.5t-256 -95.5q-151 0 -256 95.5t-105 252.5zM260 1114q0 -63 43.5 -103t102.5 -40q60 0 101.5 40t41.5 103t-41.5 103t-101.5 40q-59 0 -102.5 -40t-43.5 -103z" />
<glyph unicode="&#xb1;" horiz-adv-x="1259" d="M66 0v211h391v278h-391v306h391v327h346v-327h389v-306h-389v-278h389v-211h-1126z" />
<glyph unicode="&#xb2;" horiz-adv-x="716" d="M45 1665q158 125 336 125q135 0 212 -64.5t77 -160.5q0 -67 -36 -118t-88.5 -82t-105 -56t-92 -54t-43.5 -63h342v-168h-571v96q-1 64 18.5 116.5t52 87t71 62.5t78 48t71.5 38t52.5 38.5t20.5 43.5q0 26 -22.5 41t-65.5 15q-42 0 -93 -22t-93 -58z" />
<glyph unicode="&#xb3;" horiz-adv-x="690" d="M29 1081l80 162q100 -59 192 -59q55 0 89 21.5t34 51.5q0 70 -121 70h-113v158h105q108 0 108 69q0 26 -21 44t-60 18q-87 0 -179 -53l-86 145q147 82 281 82q129 0 210 -56t81 -145q0 -62 -23 -98.5t-71 -71.5q116 -54 116 -168q0 -62 -28 -110t-76.5 -75.5t-107 -41.5 t-124.5 -14q-150 0 -286 71z" />
<glyph unicode="&#xb4;" horiz-adv-x="1124" d="M322 1233l229 387l250 -154l-248 -233h-231z" />
<glyph unicode="&#xb5;" horiz-adv-x="1282" d="M102 -410v1590h392v-809q3 -113 108 -113q101 0 184 96v826h394v-1180h-369l-14 88q-90 -100 -199 -100q-73 0 -131 30l-18 -428h-347z" />
<glyph unicode="&#xb6;" horiz-adv-x="1609" d="M96 989q0 86 29.5 162.5t89.5 141.5t162.5 103t236.5 38h861v-1434h-326v1190h-172v-1190h-328v545h-31q-106 0 -194.5 26.5t-148 70t-101 101.5t-60 120t-18.5 126z" />
<glyph unicode="&#xb7;" horiz-adv-x="536" d="M86 381v369h369v-369h-369z" />
<glyph unicode="&#xb8;" horiz-adv-x="1124" d="M340 -338q225 186 250 367h209q-12 -298 -215 -492z" />
<glyph unicode="&#xb9;" horiz-adv-x="626" d="M47 1655l283 123h159v-754h-225v543l-141 -66z" />
<glyph unicode="&#xba;" horiz-adv-x="880" d="M45 1065q0 171 112 279t281 108q170 0 280.5 -107.5t110.5 -279.5q0 -186 -107 -293.5t-284 -107.5q-179 0 -286 107.5t-107 293.5zM285 1063q0 -100 39.5 -157.5t113.5 -57.5q71 0 111.5 58t40.5 157q0 92 -41.5 148.5t-110.5 56.5q-70 0 -111.5 -56t-41.5 -149z" />
<glyph unicode="&#xbb;" horiz-adv-x="1388" d="M82 948l240 174l411 -555l-411 -567l-238 176l301 391zM670 948l239 174l412 -555l-412 -567l-237 176l301 391z" />
<glyph unicode="&#xbc;" horiz-adv-x="1652" d="M102 1346l283 122h160v-753h-226v542l-141 -65zM211 0l1219 1434h223l-1219 -1434h-223zM1008 291l364 461h211v-469h76v-154h-76v-129h-215v129h-297zM1194 283h174v235z" />
<glyph unicode="&#xbd;" horiz-adv-x="1792" d="M102 1346l283 122h160v-753h-226v542l-141 -65zM209 0l1218 1434h224l-1219 -1434h-223zM1178 641q158 125 335 125q135 0 212 -64.5t77 -160.5q0 -67 -36 -118t-88 -82t-104.5 -56t-92 -54t-43.5 -63h342v-168h-572v96q-1 64 19 116.5t52 87t71 62.5t78 48t71.5 38 t53 38.5t20.5 43.5q0 26 -22.5 41t-65.5 15q-42 0 -93.5 -22t-93.5 -58z" />
<glyph unicode="&#xbe;" horiz-adv-x="1579" d="M43 772l80 162q102 -60 192 -60q55 0 89 22t34 52q0 70 -121 70h-112v158h104q109 0 109 69q0 26 -21.5 44t-60.5 18q-85 0 -178 -54l-86 146q147 82 280 82q129 0 210 -56t81 -145q0 -62 -23 -98.5t-71 -71.5q117 -54 117 -168q0 -82 -50 -138.5t-123 -80t-163 -23.5 q-149 0 -287 72zM143 0l1219 1434h223l-1218 -1434h-224zM940 291l365 461h211v-469h75v-154h-75v-129h-216v129h-296zM1126 283h174v235z" />
<glyph unicode="&#xbf;" horiz-adv-x="1179" d="M104 57q0 72 23 131.5t59.5 100t81.5 74.5t90 62t83 55t63 61t28 73l5 45h278q14 -68 14 -108q0 -70 -26 -125.5t-65 -89t-84 -64.5t-84 -54.5t-65 -57t-26 -72.5q0 -57 46.5 -91t111.5 -34q161 0 305 135l221 -198q-238 -238 -534 -238q-238 0 -381.5 104t-143.5 291z M494 813v309h360v-309h-360z" />
<glyph unicode="&#xc0;" d="M14 0l502 1434h440l500 -1434h-424l-65 213h-463l-64 -213h-426zM387 1714l301 154l223 -322h-278zM592 506h287l-142 469h-4z" />
<glyph unicode="&#xc1;" d="M14 0l502 1434h440l500 -1434h-424l-65 213h-463l-64 -213h-426zM563 1546l221 322l303 -154l-247 -168h-277zM592 506h287l-142 469h-4z" />
<glyph unicode="&#xc2;" d="M14 0l502 1434h440l500 -1434h-424l-65 213h-463l-64 -213h-426zM322 1546l225 299h379l223 -299h-258l-152 140h-4l-153 -140h-260zM592 506h287l-142 469h-4z" />
<glyph unicode="&#xc3;" d="M14 0l502 1434h440l500 -1434h-424l-65 213h-463l-64 -213h-426zM334 1550q-15 147 56 232.5t198 85.5q59 0 110.5 -26t92 -51.5t73.5 -25.5q78 0 68 78h203q17 -148 -54 -234.5t-198 -86.5q-47 0 -90.5 16t-70 35t-59.5 35t-61 16q-36 0 -53 -20t-12 -54h-203zM592 506 h287l-142 469h-4z" />
<glyph unicode="&#xc4;" d="M14 0l502 1434h440l500 -1434h-424l-65 213h-463l-64 -213h-426zM330 1561v268h280v-268h-280zM592 506h287l-142 469h-4zM866 1561v268h277v-268h-277z" />
<glyph unicode="&#xc5;" d="M14 0l500 1430q-39 58 -39 135q0 109 76.5 181.5t185.5 72.5t184.5 -72.5t75.5 -181.5q0 -77 -39 -138l498 -1427h-424l-65 213h-463l-64 -213h-426zM592 506h287l-142 469h-4zM606 1565q0 -52 35 -90t86 -41h10q54 0 92.5 38t38.5 93q0 57 -38 94t-93 37t-93 -37 t-38 -94z" />
<glyph unicode="&#xc6;" horiz-adv-x="2177" d="M4 0l633 1434h1442v-340h-836l57 -213h699v-308h-619l62 -233h645v-340h-977l-51 213h-518l-84 -213h-453zM666 522h319l-119 500z" />
<glyph unicode="&#xc7;" horiz-adv-x="1435" d="M66 719q0 208 97 377t271.5 266.5t392.5 97.5q306 0 549 -198l-217 -265q-76 63 -149.5 97t-173.5 34q-170 0 -271.5 -111t-101.5 -298q0 -191 100 -302.5t273 -111.5q185 0 325 137l230 -241q-221 -206 -517 -226q-26 -260 -210 -438l-244 125q195 163 239 326 q-268 47 -430.5 248t-162.5 483z" />
<glyph unicode="&#xc8;" horiz-adv-x="1292" d="M115 0v1434h1081v-340h-686v-220h606v-294h-606v-240h692v-340h-1087zM309 1714l301 154l224 -322h-279z" />
<glyph unicode="&#xc9;" horiz-adv-x="1292" d="M115 0v1434h1081v-340h-686v-220h606v-294h-606v-240h692v-340h-1087zM487 1546l222 322l303 -154l-248 -168h-277z" />
<glyph unicode="&#xca;" horiz-adv-x="1292" d="M115 0v1434h1081v-340h-686v-220h606v-294h-606v-240h692v-340h-1087zM246 1546l225 299h379l223 -299h-258l-151 140h-5l-153 -140h-260z" />
<glyph unicode="&#xcb;" horiz-adv-x="1292" d="M115 0v1434h1081v-340h-686v-220h606v-294h-606v-240h692v-340h-1087zM254 1561v268h281v-268h-281zM791 1561v268h276v-268h-276z" />
<glyph unicode="&#xcc;" horiz-adv-x="626" d="M-35 1714l301 154l223 -322h-278zM115 0v1434h397v-1434h-397z" />
<glyph unicode="&#xcd;" horiz-adv-x="626" d="M115 0v1434h397v-1434h-397zM143 1546l222 322l303 -154l-248 -168h-277z" />
<glyph unicode="&#xce;" horiz-adv-x="626" d="M-100 1546l225 299h379l223 -299h-258l-152 140h-4l-153 -140h-260zM115 0v1434h397v-1434h-397z" />
<glyph unicode="&#xcf;" horiz-adv-x="626" d="M-92 1561v268h280v-268h-280zM115 0v1434h397v-1434h-397zM444 1561v268h277v-268h-277z" />
<glyph unicode="&#xd0;" horiz-adv-x="1576" d="M27 623v200h178v611h508q389 0 594.5 -184.5t205.5 -522.5q0 -352 -199 -539.5t-601 -187.5h-508v623h-178zM600 313h150q181 0 273.5 108.5t92.5 301.5q0 184 -95.5 290.5t-270.5 106.5h-150v-295h260v-204h-260v-308z" />
<glyph unicode="&#xd1;" horiz-adv-x="1513" d="M115 0v1434h374l537 -816v816h373v-1434h-373l-539 811v-811h-372zM356 1550q-15 147 56 232.5t198 85.5q59 0 110.5 -26t92.5 -51.5t74 -25.5q77 0 67 78h203q17 -148 -54 -234.5t-198 -86.5q-47 0 -90 16t-70 35t-59.5 35t-60.5 16q-36 0 -53.5 -20t-12.5 -54h-203z " />
<glyph unicode="&#xd2;" horiz-adv-x="1646" d="M66 717q0 205 92 373.5t266 269t399 100.5q170 0 313.5 -58.5t240 -159t150.5 -236.5t54 -289q0 -122 -34 -234.5t-99.5 -205t-156.5 -160.5t-211 -106t-257 -38q-170 0 -313 58.5t-239.5 159.5t-150.5 237t-54 289zM467 717q0 -182 95.5 -298t260.5 -116 q166 0 262.5 116t96.5 298t-95.5 297.5t-263.5 115.5q-166 0 -261 -115.5t-95 -297.5zM475 1714l301 154l223 -322h-278z" />
<glyph unicode="&#xd3;" horiz-adv-x="1646" d="M66 717q0 205 92 373.5t266 269t399 100.5q170 0 313.5 -58.5t240 -159t150.5 -236.5t54 -289q0 -122 -34 -234.5t-99.5 -205t-156.5 -160.5t-211 -106t-257 -38q-170 0 -313 58.5t-239.5 159.5t-150.5 237t-54 289zM467 717q0 -182 95.5 -298t260.5 -116 q166 0 262.5 116t96.5 298t-95.5 297.5t-263.5 115.5q-166 0 -261 -115.5t-95 -297.5zM653 1546l221 322l304 -154l-248 -168h-277z" />
<glyph unicode="&#xd4;" horiz-adv-x="1646" d="M66 717q0 205 92 373.5t266 269t399 100.5q170 0 313.5 -58.5t240 -159t150.5 -236.5t54 -289q0 -122 -34 -234.5t-99.5 -205t-156.5 -160.5t-211 -106t-257 -38q-170 0 -313 58.5t-239.5 159.5t-150.5 237t-54 289zM410 1546l225 299h379l223 -299h-258l-152 140h-4 l-153 -140h-260zM467 717q0 -182 95.5 -298t260.5 -116q166 0 262.5 116t96.5 298t-95.5 297.5t-263.5 115.5q-166 0 -261 -115.5t-95 -297.5z" />
<glyph unicode="&#xd5;" horiz-adv-x="1646" d="M66 717q0 205 92 373.5t266 269t399 100.5q170 0 313.5 -58.5t240 -159t150.5 -236.5t54 -289q0 -122 -34 -234.5t-99.5 -205t-156.5 -160.5t-211 -106t-257 -38q-170 0 -313 58.5t-239.5 159.5t-150.5 237t-54 289zM422 1550q-15 147 56 232.5t198 85.5q59 0 110.5 -26 t92 -51.5t73.5 -25.5q78 0 68 78h203q17 -148 -54 -234.5t-198 -86.5q-47 0 -90.5 16t-70 35t-59.5 35t-61 16q-36 0 -53 -20t-12 -54h-203zM467 717q0 -182 95.5 -298t260.5 -116q166 0 262.5 116t96.5 298t-95.5 297.5t-263.5 115.5q-166 0 -261 -115.5t-95 -297.5z" />
<glyph unicode="&#xd6;" horiz-adv-x="1646" d="M66 717q0 205 92 373.5t266 269t399 100.5q170 0 313.5 -58.5t240 -159t150.5 -236.5t54 -289q0 -122 -34 -234.5t-99.5 -205t-156.5 -160.5t-211 -106t-257 -38q-170 0 -313 58.5t-239.5 159.5t-150.5 237t-54 289zM418 1561v268h280v-268h-280zM467 717 q0 -182 95.5 -298t260.5 -116q166 0 262.5 116t96.5 298t-95.5 297.5t-263.5 115.5q-166 0 -261 -115.5t-95 -297.5zM954 1561v268h277v-268h-277z" />
<glyph unicode="&#xd7;" horiz-adv-x="1210" d="M106 281l279 284l-276 281l217 219l280 -291l281 291l217 -219l-277 -281l277 -284l-217 -218l-281 289l-280 -289z" />
<glyph unicode="&#xd8;" horiz-adv-x="1646" d="M66 717q0 205 92 373.5t266 269t399 100.5q233 0 414 -110l129 157l133 -112l-127 -150q100 -102 154.5 -238t54.5 -290q0 -122 -34 -234.5t-99.5 -205t-156.5 -160.5t-211 -106t-257 -38q-236 0 -415 109l-132 -156l-131 107l129 153q-100 102 -154 239t-54 292z M467 717q0 -139 57 -244l496 600q-82 57 -197 57q-166 0 -261 -115.5t-95 -297.5zM623 362q83 -59 200 -59q166 0 262.5 116t96.5 298q0 142 -62 248z" />
<glyph unicode="&#xd9;" horiz-adv-x="1478" d="M109 555v879h399v-881q0 -114 61 -180t170 -66q108 0 171 66.5t63 179.5v881h397v-879q0 -288 -168.5 -435t-462.5 -147q-292 0 -461 147t-169 435zM389 1714l301 154l223 -322h-278z" />
<glyph unicode="&#xda;" horiz-adv-x="1478" d="M109 555v879h399v-881q0 -114 61 -180t170 -66q108 0 171 66.5t63 179.5v881h397v-879q0 -288 -168.5 -435t-462.5 -147q-292 0 -461 147t-169 435zM567 1546l221 322l304 -154l-248 -168h-277z" />
<glyph unicode="&#xdb;" horiz-adv-x="1478" d="M109 555v879h399v-881q0 -114 61 -180t170 -66q108 0 171 66.5t63 179.5v881h397v-879q0 -288 -168.5 -435t-462.5 -147q-292 0 -461 147t-169 435zM326 1546l225 299h379l223 -299h-258l-152 140h-4l-153 -140h-260z" />
<glyph unicode="&#xdc;" horiz-adv-x="1478" d="M109 555v879h399v-881q0 -114 61 -180t170 -66q108 0 171 66.5t63 179.5v881h397v-879q0 -288 -168.5 -435t-462.5 -147q-292 0 -461 147t-169 435zM334 1561v268h280v-268h-280zM870 1561v268h277v-268h-277z" />
<glyph unicode="&#xdd;" horiz-adv-x="1474" d="M6 1434h451l280 -467h4l279 467h448l-530 -863v-571h-401v571zM567 1546l221 322l304 -154l-248 -168h-277z" />
<glyph unicode="&#xde;" horiz-adv-x="1411" d="M115 0v1434h397v-230h207q130 0 234 -25t173 -68.5t115 -105t66 -131t20 -149.5q0 -102 -33 -186t-102.5 -151t-188.5 -104.5t-280 -37.5h-211v-246h-397zM512 547h207q100 0 156.5 45t56.5 133q0 89 -58 133.5t-155 44.5h-207v-356z" />
<glyph unicode="&#xdf;" horiz-adv-x="1411" d="M98 0v1077q0 159 79 272t208.5 166.5t296.5 53.5q257 0 417.5 -124.5t160.5 -320.5q0 -115 -62.5 -196.5t-169.5 -128.5v-2q142 -36 231 -130.5t89 -238.5q0 -105 -40.5 -191t-108.5 -141t-154.5 -84.5t-180.5 -29.5q-149 0 -264 34l53 287q71 -22 135 -22q78 0 126.5 45 t48.5 127q0 91 -57 134.5t-158 43.5h-76v299h30q78 0 126.5 46t48.5 126q0 89 -52.5 139.5t-144.5 50.5t-143.5 -54.5t-51.5 -152.5v-1085h-387z" />
<glyph unicode="&#xe0;" horiz-adv-x="1204" d="M66 270q0 65 20 120t66.5 105t118.5 87t181 64t250 40v62q0 102 -120 102q-72 0 -154.5 -26.5t-208.5 -86.5l-129 271q272 139 512 139q250 0 365.5 -109t115.5 -305v-420q0 -67 76 -67v-252q-187 0 -274 28t-144 115q-74 -86 -155 -125t-195 -39q-142 0 -233.5 82.5 t-91.5 214.5zM287 1466l254 154l225 -387h-229zM446 328q0 -39 28 -65.5t73 -26.5q94 0 155 75v183q-118 -8 -187 -49.5t-69 -116.5z" />
<glyph unicode="&#xe1;" horiz-adv-x="1204" d="M66 270q0 65 20 120t66.5 105t118.5 87t181 64t250 40v62q0 102 -120 102q-72 0 -154.5 -26.5t-208.5 -86.5l-129 271q272 139 512 139q250 0 365.5 -109t115.5 -305v-420q0 -67 76 -67v-252q-187 0 -274 28t-144 115q-74 -86 -155 -125t-195 -39q-142 0 -233.5 82.5 t-91.5 214.5zM436 1233l230 387l249 -154l-247 -233h-232zM446 328q0 -39 28 -65.5t73 -26.5q94 0 155 75v183q-118 -8 -187 -49.5t-69 -116.5z" />
<glyph unicode="&#xe2;" horiz-adv-x="1204" d="M66 270q0 65 20 120t66.5 105t118.5 87t181 64t250 40v62q0 102 -120 102q-72 0 -154.5 -26.5t-208.5 -86.5l-129 271q272 139 512 139q250 0 365.5 -109t115.5 -305v-420q0 -67 76 -67v-252q-187 0 -274 28t-144 115q-74 -86 -155 -125t-195 -39q-142 0 -233.5 82.5 t-91.5 214.5zM156 1233l225 328h446l228 -328h-293l-154 170h-8l-154 -170h-290zM446 328q0 -39 28 -65.5t73 -26.5q94 0 155 75v183q-118 -8 -187 -49.5t-69 -116.5z" />
<glyph unicode="&#xe3;" horiz-adv-x="1204" d="M66 270q0 65 20 120t66.5 105t118.5 87t181 64t250 40v62q0 102 -120 102q-72 0 -154.5 -26.5t-208.5 -86.5l-129 271q272 139 512 139q250 0 365.5 -109t115.5 -305v-420q0 -67 76 -67v-252q-187 0 -274 28t-144 115q-74 -86 -155 -125t-195 -39q-142 0 -233.5 82.5 t-91.5 214.5zM211 1245q-15 155 54.5 240.5t195.5 85.5q58 0 108 -26.5t90 -52.5t74 -26q75 0 66 88h200q15 -156 -54 -241.5t-195 -85.5q-57 0 -107 25t-90.5 50t-73.5 25q-38 0 -54 -19t-15 -63h-199zM446 328q0 -39 28 -65.5t73 -26.5q94 0 155 75v183 q-118 -8 -187 -49.5t-69 -116.5z" />
<glyph unicode="&#xe4;" horiz-adv-x="1204" d="M66 270q0 65 20 120t66.5 105t118.5 87t181 64t250 40v62q0 102 -120 102q-72 0 -154.5 -26.5t-208.5 -86.5l-129 271q272 139 512 139q250 0 365.5 -109t115.5 -305v-420q0 -67 76 -67v-252q-187 0 -274 28t-144 115q-74 -86 -155 -125t-195 -39q-142 0 -233.5 82.5 t-91.5 214.5zM209 1264v270h283v-270h-283zM446 328q0 -39 28 -65.5t73 -26.5q94 0 155 75v183q-118 -8 -187 -49.5t-69 -116.5zM723 1264v270h276v-270h-276z" />
<glyph unicode="&#xe5;" horiz-adv-x="1204" d="M66 270q0 65 20 120t66.5 105t118.5 87t181 64t250 40v62q0 102 -120 102q-72 0 -154.5 -26.5t-208.5 -86.5l-129 271q272 139 512 139q250 0 365.5 -109t115.5 -305v-420q0 -67 76 -67v-252q-187 0 -274 28t-144 115q-74 -86 -155 -125t-195 -39q-142 0 -233.5 82.5 t-91.5 214.5zM340 1470q0 109 76.5 181.5t185.5 72.5t184.5 -72.5t75.5 -181.5q0 -107 -75.5 -178t-184.5 -71t-185.5 71t-76.5 178zM446 328q0 -39 28 -65.5t73 -26.5q94 0 155 75v183q-118 -8 -187 -49.5t-69 -116.5zM471 1470q0 -54 38 -92.5t93 -38.5q54 0 92.5 38.5 t38.5 92.5q0 58 -38 96t-93 38q-56 0 -93.5 -38t-37.5 -96z" />
<glyph unicode="&#xe6;" horiz-adv-x="1859" d="M66 270q-1 82 32 148t106 121t199.5 91.5t301.5 51.5v66q0 102 -115 102q-74 0 -158.5 -26t-210.5 -87l-131 271q278 139 508 139q248 0 346 -129q136 129 342 129q234 0 375 -138.5t141 -371.5q0 -78 -16 -164h-692q11 -101 63 -151t152 -50q151 0 301 88l155 -231 q-207 -156 -483 -156q-139 0 -257.5 51.5t-199.5 147.5q-79 -93 -187 -146t-232 -53q-154 0 -246 81.5t-94 215.5zM446 328q0 -40 29 -66t72 -26q106 0 182 112q-17 47 -24 146q-118 -10 -188.5 -50.5t-70.5 -115.5zM1092 672h350q0 96 -38 152.5t-120 56.5 q-71 0 -122.5 -52.5t-69.5 -156.5z" />
<glyph unicode="&#xe7;" horiz-adv-x="1087" d="M55 563q0 178 78 312t211.5 203t302.5 69q229 0 410 -146l-189 -239q-96 80 -206 80q-90 0 -154 -72.5t-64 -206.5q0 -137 63.5 -210.5t154.5 -73.5q104 0 198 75l203 -213q-167 -151 -369 -166q-26 -259 -211 -438l-243 125q201 172 241 332q-192 46 -309 195.5 t-117 373.5z" />
<glyph unicode="&#xe8;" horiz-adv-x="1222" d="M59 563q0 134 46.5 245.5t125.5 184.5t183.5 113.5t220.5 40.5q243 0 385.5 -138t142.5 -372q0 -89 -14 -164h-698q15 -104 68.5 -152.5t150.5 -48.5q151 0 301 88l155 -231q-210 -156 -493 -156q-120 0 -224.5 40t-182 114t-122.5 186.5t-45 249.5zM317 1466l254 154 l226 -387h-230zM455 672h350q0 95 -38.5 152t-119.5 57q-71 0 -122.5 -52.5t-69.5 -156.5z" />
<glyph unicode="&#xe9;" horiz-adv-x="1222" d="M59 563q0 134 46.5 245.5t125.5 184.5t183.5 113.5t220.5 40.5q243 0 385.5 -138t142.5 -372q0 -89 -14 -164h-698q15 -104 68.5 -152.5t150.5 -48.5q151 0 301 88l155 -231q-210 -156 -493 -156q-120 0 -224.5 40t-182 114t-122.5 186.5t-45 249.5zM455 672h350 q0 95 -38.5 152t-119.5 57q-71 0 -122.5 -52.5t-69.5 -156.5zM469 1233l229 387l250 -154l-248 -233h-231z" />
<glyph unicode="&#xea;" horiz-adv-x="1222" d="M59 563q0 134 46.5 245.5t125.5 184.5t183.5 113.5t220.5 40.5q243 0 385.5 -138t142.5 -372q0 -89 -14 -164h-698q15 -104 68.5 -152.5t150.5 -48.5q151 0 301 88l155 -231q-210 -156 -493 -156q-120 0 -224.5 40t-182 114t-122.5 186.5t-45 249.5zM197 1233l225 328 h446l228 -328h-293l-154 170h-8l-154 -170h-290zM455 672h350q0 95 -38.5 152t-119.5 57q-71 0 -122.5 -52.5t-69.5 -156.5z" />
<glyph unicode="&#xeb;" horiz-adv-x="1222" d="M59 563q0 134 46.5 245.5t125.5 184.5t183.5 113.5t220.5 40.5q243 0 385.5 -138t142.5 -372q0 -89 -14 -164h-698q15 -104 68.5 -152.5t150.5 -48.5q151 0 301 88l155 -231q-210 -156 -493 -156q-120 0 -224.5 40t-182 114t-122.5 186.5t-45 249.5zM248 1264v270h282 v-270h-282zM455 672h350q0 95 -38.5 152t-119.5 57q-71 0 -122.5 -52.5t-69.5 -156.5zM762 1264v270h276v-270h-276z" />
<glyph unicode="&#xec;" horiz-adv-x="591" d="M-23 1466l254 154l226 -387h-230zM102 0v1098h387v-1098h-387z" />
<glyph unicode="&#xed;" horiz-adv-x="591" d="M102 0v1098h387v-1098h-387zM127 1233l229 387l250 -154l-248 -233h-231z" />
<glyph unicode="&#xee;" horiz-adv-x="591" d="M-156 1233l226 328h446l227 -328h-292l-154 170h-8l-154 -170h-291zM102 0v1098h387v-1098h-387z" />
<glyph unicode="&#xef;" horiz-adv-x="591" d="M-100 1264v270h282v-270h-282zM102 0v1098h387v-1098h-387zM414 1264v270h276v-270h-276z" />
<glyph unicode="&#xf0;" horiz-adv-x="1284" d="M66 496q0 212 131.5 342.5t334.5 130.5q127 0 228 -62q-59 126 -170 260l-299 -118l-80 172q139 51 248 92q-90 90 -254 233h446q65 -56 123 -114l195 81l75 -178l-137 -51q143 -179 223 -369.5t80 -369.5q0 -277 -154.5 -422.5t-418.5 -145.5q-137 0 -246.5 39.5 t-180 110t-107.5 164.5t-37 205zM449 496q0 -110 51 -180t137 -70q89 0 145 76.5t56 209.5q0 66 -9 127q-103 68 -202 68q-78 0 -128 -52.5t-50 -178.5z" />
<glyph unicode="&#xf1;" horiz-adv-x="1251" d="M100 0v1120h367l16 -121q148 148 324 148q185 0 267.5 -103.5t82.5 -306.5v-737h-385v748q0 122 -108 122q-100 0 -179 -102v-768h-385zM231 1245q-15 155 54.5 240.5t195.5 85.5q46 0 88 -16.5t68 -36t58 -36t59 -16.5q74 0 65 88h201q15 -156 -54.5 -241.5 t-195.5 -85.5q-45 0 -86.5 15.5t-67.5 34.5t-57.5 34.5t-58.5 15.5q-39 0 -55 -19t-15 -63h-199z" />
<glyph unicode="&#xf2;" horiz-adv-x="1271" d="M59 569q0 169 75.5 301.5t207 204.5t295.5 72q163 0 294 -72t206 -204.5t75 -301.5q0 -274 -158 -435t-417 -161q-262 0 -420 160.5t-158 435.5zM313 1466l254 154l226 -387h-230zM446 567q0 -148 49 -231.5t142 -83.5q92 0 140 83.5t48 231.5q0 137 -50.5 219t-137.5 82 q-89 0 -140 -81.5t-51 -219.5z" />
<glyph unicode="&#xf3;" horiz-adv-x="1271" d="M59 569q0 169 75.5 301.5t207 204.5t295.5 72q163 0 294 -72t206 -204.5t75 -301.5q0 -274 -158 -435t-417 -161q-262 0 -420 160.5t-158 435.5zM446 567q0 -148 49 -231.5t142 -83.5q92 0 140 83.5t48 231.5q0 137 -50.5 219t-137.5 82q-89 0 -140 -81.5t-51 -219.5z M465 1233l229 387l250 -154l-248 -233h-231z" />
<glyph unicode="&#xf4;" horiz-adv-x="1271" d="M59 569q0 169 75.5 301.5t207 204.5t295.5 72q163 0 294 -72t206 -204.5t75 -301.5q0 -274 -158 -435t-417 -161q-262 0 -420 160.5t-158 435.5zM184 1233l226 328h446l227 -328h-292l-154 170h-8l-154 -170h-291zM446 567q0 -148 49 -231.5t142 -83.5q92 0 140 83.5 t48 231.5q0 137 -50.5 219t-137.5 82q-89 0 -140 -81.5t-51 -219.5z" />
<glyph unicode="&#xf5;" horiz-adv-x="1271" d="M59 569q0 169 75.5 301.5t207 204.5t295.5 72q163 0 294 -72t206 -204.5t75 -301.5q0 -274 -158 -435t-417 -161q-262 0 -420 160.5t-158 435.5zM240 1245q-15 155 54 240.5t195 85.5q46 0 88 -16.5t68 -36t58 -36t59 -16.5q74 0 65 88h201q15 -156 -54.5 -241.5 t-195.5 -85.5q-45 0 -86.5 15.5t-67.5 34.5t-57.5 34.5t-58.5 15.5q-39 0 -55 -19t-15 -63h-198zM446 567q0 -148 49 -231.5t142 -83.5q92 0 140 83.5t48 231.5q0 137 -50.5 219t-137.5 82q-89 0 -140 -81.5t-51 -219.5z" />
<glyph unicode="&#xf6;" horiz-adv-x="1271" d="M59 569q0 169 75.5 301.5t207 204.5t295.5 72q163 0 294 -72t206 -204.5t75 -301.5q0 -274 -158 -435t-417 -161q-262 0 -420 160.5t-158 435.5zM238 1264v270h282v-270h-282zM446 567q0 -148 49 -231.5t142 -83.5q92 0 140 83.5t48 231.5q0 137 -50.5 219t-137.5 82 q-89 0 -140 -81.5t-51 -219.5zM752 1264v270h276v-270h-276z" />
<glyph unicode="&#xf7;" horiz-adv-x="1259" d="M66 410v307h1126v-307h-1126zM481 12v256h297v-256h-297zM481 858v254h297v-254h-297z" />
<glyph unicode="&#xf8;" horiz-adv-x="1271" d="M59 569q0 169 75.5 301.5t207 204.5t295.5 72q155 0 281 -66l106 142l139 -109l-108 -135q157 -160 157 -410q0 -274 -158 -435t-417 -161q-176 0 -309 76l-119 -158l-141 103l129 162q-138 157 -138 413zM446 567q0 -48 7 -106l286 368q-45 39 -102 39q-89 0 -140 -81.5 t-51 -219.5zM512 309q48 -57 125 -57q92 0 140 83.5t48 231.5q0 73 -14 125z" />
<glyph unicode="&#xf9;" horiz-adv-x="1251" d="M94 385v735h385v-745q0 -123 107 -123q93 0 180 100v768h385v-1120h-360l-21 123q-60 -64 -147 -107t-179 -43q-184 0 -267 104t-83 308zM268 1466l254 154l226 -387h-230z" />
<glyph unicode="&#xfa;" horiz-adv-x="1251" d="M94 385v735h385v-745q0 -123 107 -123q93 0 180 100v768h385v-1120h-360l-21 123q-60 -64 -147 -107t-179 -43q-184 0 -267 104t-83 308zM473 1233l229 387l250 -154l-247 -233h-232z" />
<glyph unicode="&#xfb;" horiz-adv-x="1251" d="M94 385v735h385v-745q0 -123 107 -123q93 0 180 100v768h385v-1120h-360l-21 123q-60 -64 -147 -107t-179 -43q-184 0 -267 104t-83 308zM174 1233l225 328h447l227 -328h-293l-153 170h-9l-153 -170h-291z" />
<glyph unicode="&#xfc;" horiz-adv-x="1251" d="M94 385v735h385v-745q0 -123 107 -123q93 0 180 100v768h385v-1120h-360l-21 123q-60 -64 -147 -107t-179 -43q-184 0 -267 104t-83 308zM229 1264v270h283v-270h-283zM743 1264v270h277v-270h-277z" />
<glyph unicode="&#xfd;" horiz-adv-x="1200" d="M14 -387l99 291q99 -35 153 -35q60 0 90 22t50 84l18 45l-406 1100h381l207 -653h4l207 653h367l-381 -1089q-50 -138 -102.5 -228t-114.5 -141.5t-129.5 -71.5t-159.5 -20q-142 0 -283 43zM438 1233l230 387l250 -154l-248 -233h-232z" />
<glyph unicode="&#xfe;" horiz-adv-x="1269" d="M106 -410v1956h383v-553q120 152 302 152q194 0 306.5 -146t112.5 -430t-113.5 -439t-291.5 -155q-182 0 -316 134v-519h-383zM489 338q75 -78 173 -78q83 0 125 85t42 224q0 291 -167 291q-94 0 -173 -82v-440z" />
<glyph unicode="&#xff;" horiz-adv-x="1200" d="M14 -387l99 291q99 -35 153 -35q60 0 90 22t50 84l18 45l-406 1100h381l207 -653h4l207 653h367l-381 -1089q-50 -138 -102.5 -228t-114.5 -141.5t-129.5 -71.5t-159.5 -20q-142 0 -283 43zM205 1264v270h282v-270h-282zM719 1264v270h276v-270h-276z" />
<glyph unicode="&#x152;" horiz-adv-x="2357" d="M66 729q0 143 53 275t146.5 233.5t232.5 162t301 60.5q227 0 383 -143v117h1077v-340h-682v-213h602v-308h-602v-233h692v-340h-1087v113q-150 -140 -383 -140q-168 0 -307.5 59.5t-232 162.5t-143 240.5t-50.5 293.5zM467 729q0 -187 92.5 -305.5t265.5 -118.5 q115 0 197.5 57.5t121 151.5t38.5 215q0 167 -96.5 283t-260.5 116q-166 0 -262 -115.5t-96 -283.5z" />
<glyph unicode="&#x153;" horiz-adv-x="1982" d="M59 571q0 128 44 236t121.5 182.5t185 116t231.5 41.5q248 0 375 -172q136 172 383 172q240 0 383 -138.5t143 -371.5q0 -89 -14 -164h-694q10 -102 63 -151.5t150 -49.5q153 0 303 88l155 -231q-208 -156 -479 -156q-259 0 -391 170q-131 -170 -377 -170 q-263 0 -422.5 162t-159.5 436zM449 569q0 -149 47.5 -233t140.5 -84q92 0 139 84t47 233q0 138 -49 219.5t-137 81.5t-138 -81.5t-50 -219.5zM1214 672h351q0 96 -38 152.5t-120 56.5q-69 0 -121.5 -52.5t-71.5 -156.5z" />
<glyph unicode="&#x178;" horiz-adv-x="1474" d="M6 1434h451l280 -467h4l279 467h448l-530 -863v-571h-401v571zM332 1561v268h280v-268h-280zM868 1561v268h277v-268h-277z" />
<glyph unicode="&#x2c6;" horiz-adv-x="1239" d="M203 1233l225 328h446l228 -328h-293l-154 170h-8l-153 -170h-291z" />
<glyph unicode="&#x2dc;" horiz-adv-x="1212" d="M227 1245q-15 155 54.5 240.5t195.5 85.5q46 0 88 -16.5t68 -36t58 -36t59 -16.5q74 0 65 88h201q15 -156 -54.5 -241.5t-195.5 -85.5q-45 0 -86.5 15.5t-67.5 34.5t-57.5 34.5t-58.5 15.5q-39 0 -55 -19t-15 -63h-199z" />
<glyph unicode="&#x2000;" horiz-adv-x="934" />
<glyph unicode="&#x2001;" horiz-adv-x="1868" />
<glyph unicode="&#x2002;" horiz-adv-x="934" />
<glyph unicode="&#x2003;" horiz-adv-x="1868" />
<glyph unicode="&#x2004;" horiz-adv-x="622" />
<glyph unicode="&#x2005;" horiz-adv-x="467" />
<glyph unicode="&#x2006;" horiz-adv-x="311" />
<glyph unicode="&#x2007;" horiz-adv-x="311" />
<glyph unicode="&#x2008;" horiz-adv-x="233" />
<glyph unicode="&#x2009;" horiz-adv-x="373" />
<glyph unicode="&#x200a;" horiz-adv-x="103" />
<glyph unicode="&#x2010;" horiz-adv-x="782" d="M66 408v313h651v-313h-651z" />
<glyph unicode="&#x2011;" horiz-adv-x="782" d="M66 408v313h651v-313h-651z" />
<glyph unicode="&#x2012;" horiz-adv-x="782" d="M66 408v313h651v-313h-651z" />
<glyph unicode="&#x2013;" horiz-adv-x="1316" d="M66 408v313h1185v-313h-1185z" />
<glyph unicode="&#x2014;" horiz-adv-x="1832" d="M78 408v313h1677v-313h-1677z" />
<glyph unicode="&#x2018;" horiz-adv-x="540" d="M86 745v279q0 176 76 278.5t235 143.5l66 -139q-81 -23 -123.5 -74.5t-42.5 -118.5h158v-369h-369z" />
<glyph unicode="&#x2019;" horiz-adv-x="540" d="M78 872q81 23 123.5 74.5t42.5 118.5h-158v369h369v-279q0 -176 -76.5 -278t-235.5 -144z" />
<glyph unicode="&#x201a;" horiz-adv-x="540" d="M78 -193q81 23 123.5 74.5t42.5 118.5h-158v369h369v-279q0 -176 -76.5 -278t-235.5 -144z" />
<glyph unicode="&#x201c;" horiz-adv-x="1077" d="M86 745v279q0 176 76 278.5t235 143.5l66 -139q-81 -23 -123.5 -74.5t-42.5 -118.5h158v-369h-369zM623 745v279q0 176 76 278.5t235 143.5l65 -139q-81 -23 -123 -74.5t-42 -118.5h157v-369h-368z" />
<glyph unicode="&#x201d;" horiz-adv-x="1077" d="M78 872q81 23 123.5 74.5t42.5 118.5h-158v369h369v-279q0 -176 -76.5 -278t-235.5 -144zM616 872q81 23 123.5 74.5t42.5 118.5h-157v369h368v-279q0 -176 -76 -278.5t-235 -143.5z" />
<glyph unicode="&#x201e;" horiz-adv-x="1077" d="M78 -193q81 23 123.5 74.5t42.5 118.5h-158v369h369v-279q0 -176 -76.5 -278t-235.5 -144zM616 -193q81 23 123.5 74.5t42.5 118.5h-157v369h368v-279q0 -176 -76 -278.5t-235 -143.5z" />
<glyph unicode="&#x2022;" horiz-adv-x="1150" d="M233 565q0 140 100.5 240t241.5 100t242 -100t101 -240q0 -142 -101 -243t-242 -101t-241.5 101t-100.5 243z" />
<glyph unicode="&#x2026;" horiz-adv-x="1746" d="M86 0v369h369v-369h-369zM690 0v369h369v-369h-369zM1296 0v369h369v-369h-369z" />
<glyph unicode="&#x202f;" horiz-adv-x="373" />
<glyph unicode="&#x2039;" horiz-adv-x="800" d="M68 567l411 555l240 -174l-303 -381l301 -391l-238 -176z" />
<glyph unicode="&#x203a;" horiz-adv-x="800" d="M82 948l240 174l411 -555l-411 -567l-238 176l301 391z" />
<glyph unicode="&#x205f;" horiz-adv-x="467" />
<glyph unicode="&#x20ac;" horiz-adv-x="1314" d="M43 365v176h158v43q0 39 2 57h-160v180h197q61 177 209.5 281t355.5 104q279 0 452 -184l-210 -217q-93 100 -220 100q-151 0 -219 -108h240v-156h-287q-2 -18 -2 -57q0 -31 2 -43h287v-154h-234q79 -111 230 -111q130 0 205 84l213 -206q-175 -181 -443 -181 q-206 0 -361 108t-220 284h-195z" />
<glyph unicode="&#x2122;" horiz-adv-x="1824" d="M61 1245v189h738v-189h-246v-569h-240v569h-252zM895 676v758h223l193 -238l192 238h228v-758h-236v401l-178 -215l-184 219v-405h-238z" />
<glyph unicode="&#x25fc;" horiz-adv-x="1116" d="M0 0v1116h1116v-1116h-1116z" />
</font>
</defs>
</svg>
