<svg xmlns="http://www.w3.org/2000/svg" viewBox="0 0 150.09 21.91"><title>word_only_smoother_vector-on-trans</title><path d="M96.42,8.82c0.62,0,.85-0.69,1.38-0.9,0.2-.08.47,0,0.72-0.12s0.44-.29.66-0.36a4.81,4.81,0,0,1,3.12.3,9.07,9.07,0,0,1,.9.24c1.89,1,1.32,4.36,1.32,7.56,0,0.32.12,0.62,0.12,0.9s-0.14.74-.12,1.08,0.22,0.87.24,1.32a5.76,5.76,0,0,1-.48,3.3,26,26,0,0,1-4.38-.06c-0.68-1-.24-2.38-0.36-3.78,0-.24-0.11-0.48-0.12-0.72-0.1-2.29.7-5.38-.78-6.24a2.19,2.19,0,0,0-2.34,1.08,10.31,10.31,0,0,0,0,2.28c0,0.31-.15.63-0.18,1-0.19,2.05.29,4.21-.06,6.18-0.4.54-1.25,0.19-1.92,0.3-0.35.06-.69,0.41-1,0.42s-0.42-.27-0.72-0.3a8,8,0,0,1-1,.12C90.61,22,91,19.76,91,18.6c0-.27-0.1-0.52-0.12-0.84-0.19-2.69.32-6.82,0-9.3,0-.39-0.28-0.73-0.3-1.08s0.22-.81.24-1.26a4.17,4.17,0,0,0-.36-1.74,7.65,7.65,0,0,1,.42-1c0.19-1-.16-1.9,1-2a7.44,7.44,0,0,1,1.14.18c1,0,2.3-.39,2.82,0s0.24,2.15.24,2.94C96.12,6.3,96,7.67,96.42,8.82Z" transform="translate(-1.77 -1.37)" style="fill-rule:evenodd"/><path d="M112.5,22.14c-2,0-3.85.32-5.46-.06-0.35-1-.07-2.34-0.18-3.66a13.74,13.74,0,0,1-.18-1.8c0-.31.23-0.79,0.24-1.08s-0.12-.63-0.12-1c0-1.69.18-3.62,0.18-5.46,0-1.43-.18-3.09-0.12-4.5a10,10,0,0,1,.42-2.82,7.76,7.76,0,0,1,2-.24c0.54,0,1.48.1,2,.12a3,3,0,0,1,1.32.06c0.61,0.4.3,3.06,0.3,4.14,0,2.24.13,3.8,0.12,5.46,0,2.06-.28,4.4-0.12,6.54A8.54,8.54,0,0,1,112.5,22.14Z" transform="translate(-1.77 -1.37)" style="fill-rule:evenodd"/><path d="M38.94,2.1a26,26,0,0,1,0,4c-0.41.35-1.23,0.29-1.62,0.66-1.17-.31-2.77.42-3.42-0.54s0.15-2.53.06-3.9a1.8,1.8,0,0,1,1-.54A11.06,11.06,0,0,1,36.54,2c0.28,0,.55-0.27.84-0.3A2.21,2.21,0,0,1,38.94,2.1Z" transform="translate(-1.77 -1.37)" style="fill-rule:evenodd"/><path d="M19.26,8.64a3.67,3.67,0,0,1-2.4.84c-1,.09-2.37.28-2.82-0.12a2.88,2.88,0,0,1-.42-1.14,2.87,2.87,0,0,0-3.24-1.86A4,4,0,0,0,8.82,7.62c-0.73,1.16-.61,2.75-0.66,4.74a20,20,0,0,0,0,2.76,10,10,0,0,0,.36,1c0.35,1.09.72,2.05,1.74,2.4A3.9,3.9,0,0,0,14.58,17c0.28-.5.25-1.26,0.78-1.5a5.87,5.87,0,0,1,2.22.12c0.83,0.09,1.57.21,1.74,0.66a4.25,4.25,0,0,1-.48,2.22c-0.73,1.72-2.57,4-4.68,4.32-0.28,0-.58,0-0.84,0-0.55.07-1,.37-1.44,0.42a9.2,9.2,0,0,1-2.22,0C9.34,23.16,9,22.87,8.76,22.8A8.7,8.7,0,0,1,7,22.5a8.78,8.78,0,0,1-2.64-2.1,10.2,10.2,0,0,1-2-3.6A5.56,5.56,0,0,1,2,15.18a18.32,18.32,0,0,1-.24-3.36c0-.4.2-0.78,0.24-1.2A11.83,11.83,0,0,1,2.4,8.16,7.94,7.94,0,0,1,4.26,5a10.08,10.08,0,0,1,2.88-2C7.38,2.84,7.7,2.81,8,2.7s0.58-.43.84-0.48A23.73,23.73,0,0,1,11.88,2a6.19,6.19,0,0,1,1.92.24c0.28,0.09.55,0.37,0.9,0.54a8.73,8.73,0,0,1,2.7,1.74A11.26,11.26,0,0,1,19.26,8.64Z" transform="translate(-1.77 -1.37)" style="fill-rule:evenodd"/><path d="M79.92,11.1c-0.88,0-1.33.19-1.86-.24a2.31,2.31,0,0,1-.42-1.92c0.06-1.67.65-1.78,2.4-1.74,0.87-.77.55-2.54,0.78-3.66a1.75,1.75,0,0,1,.84-1.32,5.49,5.49,0,0,1,1.26.12c0.79,0,1.68-.33,2.16,0s0.61,1.83.54,2.76c0,0.57-.37,1.57.18,2S88,7,88.56,7.74s0.25,3-.42,3.3-1.6-.08-2,0.12c-0.62.28-.37,1.38-0.42,2.1-0.08,1.22-.44,3.89.24,4.62a3.06,3.06,0,0,0,1.44.66,4.54,4.54,0,0,1,1.26.06c0.8,0.39.47,3.16-.3,3.48a12.19,12.19,0,0,1-1.86.06c-0.29,0-.52.17-0.72,0.18a10.15,10.15,0,0,1-3.6-.72,3.37,3.37,0,0,1-1.26-1.32,14.86,14.86,0,0,1-.24-1.74c-0.05-.24-0.2-0.43-0.24-0.66a24.09,24.09,0,0,1-.06-3.3C80.31,13.34,80.73,11.61,79.92,11.1Z" transform="translate(-1.77 -1.37)" style="fill-rule:evenodd"/><path d="M57.12,11.4c-2.38-.14-2.14,1.62-2.28,4a29,29,0,0,0,0,4,5.69,5.69,0,0,1-.18,2.76c-1.27,0-4.33.95-4.92-.12-0.3-.54,0-2.25-0.06-3.3,0-.34-0.15-0.62-0.18-1-0.15-1.85.37-3.57,0-5a1.37,1.37,0,0,0-2.34-.78,2.63,2.63,0,0,0-.84.84c-0.34.83,0,2,0,3.06,0,0.26-.22.52-0.24,0.78s0.11,0.42.12,0.66-0.13.59-.12,0.78,0.2,0.55.24,0.9c0.13,1,.13,2.91-0.24,3.24s-1.78.15-2.94,0.24a3.4,3.4,0,0,1-1.8,0c-0.66-.44-0.19-2-0.24-2.76,0-.54-0.27-1.15-0.3-1.8,0-1,.06-2.12.06-3.24s-0.08-2.26,0-3.18A13.44,13.44,0,0,0,41,9.24a2.35,2.35,0,0,1-.06-1c0.33-.64,1.46-0.31,2.64-0.42,0.85-.08,1.7-0.36,2.28.12,0.34,0.28.32,1,.66,1.14a3.32,3.32,0,0,0,1.5-.78c0.56-.37,1-0.62,1.5-0.9A5.57,5.57,0,0,1,53.7,8.64a3.7,3.7,0,0,0,.78.72,2.73,2.73,0,0,0,1.08-.72,10.75,10.75,0,0,1,1.26-.72c0.19-.08.42,0,0.66-0.12,0.45-.15.71-0.47,1.08-0.54a5,5,0,0,1,1.74,0A8.55,8.55,0,0,1,61.5,8a3.66,3.66,0,0,1,1.86,3.36c0.19,2.23-.34,4.91,0,6.84,0.05,0.3.22,0.58,0.24,0.84a12.2,12.2,0,0,1-.24,1.5,3.36,3.36,0,0,1-.12,1.32c-0.3.42-1.54,0.31-2.34,0.3-1,0-2.34.19-2.64-.42a3.15,3.15,0,0,1,.06-1.32,16.51,16.51,0,0,0-.18-2.22C57.94,15.4,58.84,12.57,57.12,11.4Z" transform="translate(-1.77 -1.37)" style="fill-rule:evenodd"/><path d="M78.06,15.72c-1.66.13-3.59,0-4.92,0.42-0.27-.35-0.87,0-1.38,0s-1.64-.65-2,0.18a1.85,1.85,0,0,0,.42,1.56,2.6,2.6,0,0,0,3.42.48c0.52-.34.64-1,1.38-1.14a2.65,2.65,0,0,1,1.26.18,4.15,4.15,0,0,1,1.86,1.26c0.2,0.89-1.3,2.3-2,2.76a9.6,9.6,0,0,1-1.56.6c-0.35.14-.61,0.36-0.84,0.42a11.82,11.82,0,0,1-2.76.12c-1-.08-1.44-0.75-2.7-0.66a10.06,10.06,0,0,1-2.94-2.76c-0.13-.22-0.19-0.56-0.36-0.84A3.5,3.5,0,0,1,64.2,17a10.49,10.49,0,0,1,1-6.3,7.54,7.54,0,0,1,1.86-2.16c0.18-.12.51-0.2,0.78-0.36a9.72,9.72,0,0,1,1.08-.84,12.93,12.93,0,0,1,4.5,0,10.21,10.21,0,0,1,1,.6c0.38,0.18.81,0.23,1,.36,1.38,0.88,2.74,3.48,3,5.46A2.25,2.25,0,0,1,78.06,15.72Zm-5.82-5.1A1.74,1.74,0,0,0,70,12.36c0.12,0.84,2.13.42,2.94,0.48A1.55,1.55,0,0,0,72.24,10.62Z" transform="translate(-1.77 -1.37)" style="fill-rule:evenodd"/><path d="M128.16,22.14c-1.43-.09-4.74,1-5-0.54a4.94,4.94,0,0,1,.3-1c0-.25-0.18-0.59-0.18-1s0.19-.63.18-0.9-0.2-.46-0.24-0.72c-0.39-2.34.79-5.43-.66-6.66a2.45,2.45,0,0,0-2.7,1.5c-0.11,1.71.08,3.89,0.12,5.64a7.85,7.85,0,0,0-.12.78c0,0.87.08,2.64-.6,2.94a9.51,9.51,0,0,1-2.46-.06c-0.48,0-1.76.33-2.1-.3a6.35,6.35,0,0,1,0-1.8c0-2-.07-3.91,0-6.3,0-1.29-.16-2.55-0.06-3.54,0.07-.69.24-1.77,0.24-2.52,0.56-.48,1.52-0.3,2.28-0.3a7.91,7.91,0,0,1,2.34.06c0.48,0.22.47,1.17,0.84,1.32s0.83-.46,1.08-0.66a4.72,4.72,0,0,1,1.08-.72A8.91,8.91,0,0,1,126,7.26a5,5,0,0,1,2.34,2.1,11.58,11.58,0,0,1,.3,1.68c0.2,2-.32,5.05-0.06,7,0.05,0.4.24,0.66,0.24,1a6,6,0,0,1-.24,1A4.47,4.47,0,0,1,128.16,22.14Z" transform="translate(-1.77 -1.37)" style="fill-rule:evenodd"/><path d="M135.84,7.26a15.92,15.92,0,0,1,3.54.12A6,6,0,0,1,142,8.7a7,7,0,0,1,1.38,2.46,3.12,3.12,0,0,1,.3,1c-0.15.79-1.39,0.68-2.22,0.72s-1.62.35-2.1,0-0.22-.7-0.42-1.14a1.76,1.76,0,0,0-1.62-.84,2.53,2.53,0,0,0-1.8,2c-0.05.31,0.08,0.66,0.06,1.14,0,0.31-.18.72-0.18,1,0,1.76.5,3.85,2.22,4a2.61,2.61,0,0,0,1.92-.66c0.36-.38.22-1.08,0.84-1.44s1.32,0.08,1.92.24,1.21,0,1.26.84c0.07,1.1-1.23,2.55-2.16,3.24a6.85,6.85,0,0,1-5.28,1.32c-0.35-.06-0.68-0.37-1.08-0.48a4.51,4.51,0,0,1-1.86-.66c-0.22-.16-0.41-0.51-0.66-0.72s-0.6-.34-0.78-0.54a7.06,7.06,0,0,1-1.08-1.68c-0.1-.25-0.12-0.63-0.24-1a10.76,10.76,0,0,1-.48-1,9.11,9.11,0,0,1,0-2.34,13.94,13.94,0,0,1,.54-1.68c0.09-.39,0-0.66.12-0.9a7.88,7.88,0,0,1,.9-1.5,7.48,7.48,0,0,1,2.76-2.34A2.93,2.93,0,0,1,135.84,7.26Z" transform="translate(-1.77 -1.37)" style="fill-rule:evenodd"/><path d="M34.32,22.26a18.51,18.51,0,0,1-.06-2.7c0-.47-0.25-1.25-0.3-1.8-0.12-1.46,0-3.29,0-5,0-1.26-.31-4.26.24-4.74s1.94,0,3.06-.18c0.47-.07,1.39-0.3,1.74.18a5.63,5.63,0,0,1,.12,1.8c0,0.53.2,1,.18,1.5a35.9,35.9,0,0,0-.18,3.72c0,0.72.33,1.43,0.3,2,0,0.27-.24.53-0.24,0.78s0.32,0.8.36,1.26a8.75,8.75,0,0,1-.12,1.08c-0.08,1,.16,1.68-0.3,2.1s-2.09.17-2.94,0.18C35.54,22.51,34.73,22.79,34.32,22.26Z" transform="translate(-1.77 -1.37)" style="fill-rule:evenodd"/><path d="M21.84,22.68c-0.72-1.06-.39-2.7-0.42-4.2-0.07-3.1-.09-6.79-0.06-10,0.42-.43,3.77-0.88,4.62-0.36,0.64,0.39.23,1.12,0.72,1.56,0.77-.13,1.48-0.94,2.34-1.38A2.74,2.74,0,0,1,31.38,8c0.81,0.42.49,1.42,0.54,2.52s0.32,1.6-.54,2a10.43,10.43,0,0,0-3.66.12c-1.58.67-1.46,3.17-1.26,6a13.33,13.33,0,0,1,0,2.16,4.49,4.49,0,0,1-.12,1.56C25.75,23.16,22.8,22.25,21.84,22.68Z" transform="translate(-1.77 -1.37)" style="fill-rule:evenodd"/><path d="M146.64,15.66a16.43,16.43,0,0,1,4.68.06c0.43,0.29.52,2.32,0.54,2.94a4.32,4.32,0,0,1-.36,2.28,4.19,4.19,0,0,1-1.74.42c-1.26.13-3.42,0.06-3.72-.78a4,4,0,0,1,.06-1.14C146.23,17.65,145.38,16,146.64,15.66Z" transform="translate(-1.77 -1.37)" style="fill-rule:evenodd"/></svg>