<?xml version="1.0" encoding="UTF-8" standalone="no"?>
<!-- Created with Inkscape (http://www.inkscape.org/) -->

<svg
   width="1000"
   height="1000"
   viewBox="0 0 264.58333 264.58333"
   version="1.1"
   id="svg230"
   xmlns="http://www.w3.org/2000/svg"
   xmlns:svg="http://www.w3.org/2000/svg">
  <defs
     id="defs227" />
  <g
     id="layer1">
    <circle
       style="fill:#ffffff;stroke-width:0.264583"
       id="path286"
       cx="132.29167"
       cy="132.29167"
       r="127.14516" />
    <g
       transform="matrix(0.02592942,0,0,-0.02592942,43.003736,221.48886)"
       fill="#000000"
       stroke="none"
       id="g61"
       style="fill:#4ac4e4;fill-opacity:1">
      <path
         d="m 2024,5146 c -92,-171 -176,-325 -186,-343 -9,-18 -34,-63 -54,-100 -20,-37 -45,-81 -54,-98 -10,-16 -40,-73 -67,-125 -42,-78 -194,-360 -391,-720 -19,-36 -47,-87 -62,-115 -28,-54 -34,-64 -268,-495 -85,-157 -171,-316 -192,-355 -20,-38 -95,-176 -165,-305 -70,-129 -144,-264 -163,-300 -19,-36 -47,-87 -62,-115 -15,-27 -47,-86 -70,-130 -24,-44 -52,-96 -63,-115 -11,-19 -42,-78 -70,-130 -28,-52 -70,-131 -94,-175 -25,-44 -45,-84 -46,-90 -1,-7 782,-10 2331,-11 h 2333 l 18,25 c 10,14 54,94 98,176 45,83 92,170 105,195 14,25 42,77 62,115 21,39 51,93 66,120 15,28 47,86 70,130 24,44 55,103 70,130 54,99 283,522 323,595 22,41 50,93 62,115 12,22 38,69 57,105 30,55 364,672 463,855 18,33 90,166 160,295 125,230 165,305 230,425 18,33 106,195 195,360 90,165 173,319 186,343 13,23 24,44 24,46 0,1 -1053,2 -2339,2 H 2192 Z"
         id="path59"
         style="fill:#4ac4e4;fill-opacity:1" />
    </g>
  </g>
</svg>
