<?xml version="1.0" encoding="UTF-8"?>
<svg width="30px" height="30px" viewBox="0 0 30 30" version="1.1" xmlns="http://www.w3.org/2000/svg" xmlns:xlink="http://www.w3.org/1999/xlink">
  <g fill-rule="nonzero">
    <circle id="path2" fill="#1185FE" cx="15" cy="15" r="15"></circle>
    <path d="M9.7802289,8.6117106 C11.8930683,10.1978975 14.1655387,13.41417 15,15.1400016 C15.8344613,13.41417 18.1069317,10.1978975 20.2197711,8.6117106 C21.7442795,7.46716939 24.2144717,6.58160675 24.2144717,9.39954793 C24.2144717,9.9623445 23.891803,14.1272533 23.7025494,14.8034787 C23.0447205,17.1542397 20.64766,17.7538292 18.5153534,17.3909283 C22.2425099,18.0252668 23.1906271,20.1264259 21.1429703,22.227585 C17.2540739,26.2181002 15.5535497,21.2263548 15.117809,19.9472953 C15.0379286,19.7128129 15.0005516,19.6031153 15,19.6963956 C14.9994484,19.6031153 14.9620714,19.7128129 14.882191,19.9472953 C14.4464503,21.2263548 12.7459261,26.2181002 8.85702968,22.227585 C6.80937291,20.1264259 7.75749014,18.0252668 11.4846466,17.3909283 C9.35233998,17.7538292 6.95527953,17.1542397 6.29745061,14.8034787 C6.10819704,14.1272533 5.7855283,9.9623445 5.7855283,9.39954793 C5.7855283,6.58160675 8.25572052,7.46716939 9.7802289,8.6117106 Z" id="path1" fill="#FFFFFF"></path>
  </g>
</svg>
