<?xml version="1.0" encoding="UTF-8"?>
<svg width="30px" height="30px" viewBox="0 0 30 30" version="1.1" xmlns="http://www.w3.org/2000/svg" xmlns:xlink="http://www.w3.org/1999/xlink">
    <!-- Generator: Sketch 41.2 (35397) - http://www.bohemiancoding.com/sketch -->
    <title>facebook</title>
    <desc>Created with Sketch.</desc>
    <defs></defs>
    <g id="Page-1" stroke="none" stroke-width="1" fill="none" fill-rule="evenodd">
        <g id="facebook">
            <rect id="Rectangle" x="0" y="0" width="29.6909608" height="29.6637567"></rect>
            <path d="M14.8454804,29.6637567 C23.0444129,29.6637567 29.6909608,23.0232986 29.6909608,14.8318783 C29.6909608,6.64045812 23.0444129,0 14.8454804,0 C6.64654798,0 0,6.64045812 0,14.8318783 C0,23.0232986 6.64654798,29.6637567 14.8454804,29.6637567 Z" id="Oval" fill="#3B5998"></path>
            <path d="M12.4413505,23.5961701 L12.4413505,15.8421641 L10.796713,15.8421641 L10.796713,13.1703938 L12.4413505,13.1703938 L12.4413505,11.5663529 C12.4413505,9.38685381 13.3695073,8.09011546 16.0081675,8.09011546 L18.2043694,8.09011546 L18.2043694,10.7628645 L16.8317432,10.7628645 C15.8045361,10.7628645 15.736659,11.1362272 15.736659,11.8330406 L15.7321339,13.1703938 L18.2194532,13.1703938 L17.9283358,15.8421641 L15.7321339,15.8421641 L15.7321339,23.5961701 L12.4413505,23.5961701 Z" id="Shape" fill="#FFFFFF"></path>
        </g>
    </g>
</svg>