<?xml version="1.0" encoding="UTF-8"?>
<svg width="30px" height="30px" viewBox="0 0 30 30" version="1.1" xmlns="http://www.w3.org/2000/svg" xmlns:xlink="http://www.w3.org/1999/xlink">
    <!-- Generator: Sketch 41.2 (35397) - http://www.bohemiancoding.com/sketch -->
    <title>instagram</title>
    <desc>Created with Sketch.</desc>
    <defs></defs>
    <g id="Page-1" stroke="none" stroke-width="1" fill="none" fill-rule="evenodd">
        <g id="instagram">
            <rect id="Rectangle" x="0" y="0" width="29.6909608" height="29.6637567"></rect>
            <path d="M14.8454804,29.6637567 C23.0444129,29.6637567 29.6909608,23.0232986 29.6909608,14.8318783 C29.6909608,6.64045812 23.0444129,0 14.8454804,0 C6.64654798,0 0,6.64045812 0,14.8318783 C0,23.0232986 6.64654798,29.6637567 14.8454804,29.6637567 Z" id="Oval" fill="#4F7FA4"></path>
            <path d="M14.8454657,8.75217148 C16.8274324,8.75217148 17.062177,8.75970751 17.844875,8.7953859 C18.5685848,8.82838547 18.9616133,8.94919745 19.2232001,9.05072779 C19.5696451,9.1852577 19.8169416,9.34598709 20.0766721,9.60547968 C20.3364027,9.86497227 20.4972795,10.1120422 20.6319033,10.4581697 C20.7335562,10.7195169 20.854479,11.1121852 20.8875088,11.8352025 C20.9232199,12.6172128 20.9307629,12.8517423 20.9307629,14.8318931 C20.9307629,16.8120438 20.9232199,17.0465733 20.8875088,17.8285542 C20.854479,18.5516009 20.7335562,18.9442693 20.6319033,19.2056164 C20.4972795,19.5517439 20.3364027,19.7988139 20.0766721,20.0583064 C19.8169416,20.317799 19.5696451,20.4785284 19.2232001,20.6130289 C18.9616133,20.7145887 18.5685848,20.8354007 17.844875,20.8684002 C17.0622948,20.9040786 16.8275503,20.9116146 14.8454657,20.9116146 C12.8633811,20.9116146 12.6286366,20.9040786 11.8460564,20.8684002 C11.1223466,20.8354007 10.7293181,20.7145887 10.4677607,20.6130289 C10.1212863,20.4785284 9.87398982,20.317799 9.61425925,20.0583064 C9.35452868,19.7988139 9.19365189,19.5517439 9.05902807,19.2056164 C8.95737515,18.9442693 8.83645238,18.5516009 8.80342254,17.8285836 C8.76771143,17.0465733 8.76016849,16.8120438 8.76016849,14.8318931 C8.76016849,12.8517423 8.76771143,12.6172128 8.80342254,11.835232 C8.83645238,11.1121852 8.95737515,10.7195169 9.05902807,10.4581697 C9.19365189,10.1120422 9.35452868,9.86497227 9.61425925,9.60547968 C9.87398982,9.34598709 10.1212863,9.1852577 10.4677607,9.05072779 C10.7293181,8.94919745 11.1223466,8.82838547 11.8460269,8.7953859 C12.6287544,8.75970751 12.863499,8.75217148 14.8454657,8.75217148 M14.8454657,7.41593917 C12.8295558,7.41593917 12.5768083,7.42447608 11.7850941,7.4605666 C10.9950005,7.49659824 10.4554445,7.62194362 9.98327407,7.80528109 C9.49516328,7.99480047 9.08121492,8.2483761 8.66856301,8.66064993 C8.25591109,9.07292375 8.00210291,9.48649283 7.81240973,9.97415639 C7.62890411,10.4458942 7.50344379,10.9849558 7.4673791,11.7743255 C7.43125548,12.5652849 7.42274021,12.8178302 7.42274021,14.8318931 C7.42274021,16.8459559 7.43125548,17.0985013 7.4673791,17.8894606 C7.50344379,18.6788303 7.62890411,19.2178919 7.81240973,19.6896297 C8.00210291,20.1772639 8.25591109,20.5908624 8.66856301,21.0031362 C9.08121492,21.41541 9.49516328,21.6689857 9.98327407,21.858505 C10.4554445,22.0418425 10.9950005,22.1671879 11.7850941,22.2032195 C12.5768083,22.23931 12.8295558,22.2478175 14.8454657,22.2478175 C16.8613756,22.2478175 17.1141526,22.23931 17.9058373,22.2032195 C18.6959309,22.1671879 19.2354869,22.0418425 19.7076573,21.858505 C20.1957681,21.6689857 20.6097165,21.41541 21.0223684,21.0031362 C21.4350203,20.5908624 21.6888285,20.1772933 21.8785217,19.6896297 C22.0620273,19.2178919 22.1874876,18.6788303 22.2235523,17.8894606 C22.2596759,17.0985013 22.2682206,16.8459559 22.2682206,14.8318931 C22.2682206,12.8178302 22.2596759,12.5652849 22.2235523,11.7743255 C22.1874876,10.9849558 22.0620273,10.4458942 21.8785217,9.97415639 C21.6888285,9.48649283 21.4350203,9.07292375 21.0223684,8.66064993 C20.6097165,8.2483761 20.1957681,7.99480047 19.7076573,7.80528109 C19.2354869,7.62194362 18.6959309,7.49659824 17.9058373,7.4605666 C17.1141526,7.42447608 16.8613756,7.41593917 14.8454657,7.41593917 Z M14.8602081,11.0356238 C12.7535473,11.0356238 11.0457444,12.7418619 11.0457444,14.8465925 C11.0457444,16.9513231 12.7535473,18.6575613 14.8602081,18.6575613 C16.9668689,18.6575613 18.6746718,16.9513231 18.6746718,14.8465925 C18.6746718,12.7418619 16.9668689,11.0356238 14.8602081,11.0356238 Z M14.8602081,17.320386 C13.4927332,17.320386 12.384146,16.2128144 12.384146,14.8465925 C12.384146,13.4803706 13.4927332,12.3727991 14.8602081,12.3727991 C16.2276829,12.3727991 17.3362702,13.4803706 17.3362702,14.8465925 C17.3362702,16.2128144 16.2276829,17.320386 14.8602081,17.320386 Z M19.6761526,10.8590392 C19.6761526,11.3466283 19.2805439,11.7419037 18.7925077,11.7419037 C18.3044714,11.7419037 17.9088335,11.3466283 17.9088335,10.8590392 C17.9088335,10.3714501 18.3044714,9.97620389 18.7925077,9.97620389 C19.2805439,9.97620389 19.6761526,10.3714501 19.6761526,10.8590392 Z" id="Shape" fill="#FFFFFF"></path>
        </g>
    </g>
</svg>