<?xml version="1.0" encoding="UTF-8"?>
<svg width="120px" height="120px" viewBox="0 0 120 120" version="1.1" xmlns="http://www.w3.org/2000/svg" xmlns:xlink="http://www.w3.org/1999/xlink">
    <title>Mastodon logo icon</title>
    <!-- Generator: Version 68.1 (102560) - http://www.bohemiancoding.com/sketch -->
    <g id="Page-1" stroke="none" stroke-width="1" fill="none" fill-rule="evenodd">
        <g id="Group">
            <circle id="Oval" fill="#3088D4" cx="60" cy="60" r="60"></circle>
            <path d="M85.6395879,65.7704118 C84.8604981,69.8618022 78.6617597,74.3394262 71.5425016,75.2072022 C67.8301158,75.6593707 64.1749755,76.0749782 60.2773837,75.8924859 C53.9032354,75.5943734 48.8735909,74.3394262 48.8735909,74.3394262 C48.8735909,74.9728371 48.9118566,75.5759367 48.988388,76.1399755 C49.8170702,82.5612677 55.2260043,82.9459391 60.3496294,83.1253065 C65.52101,83.3059239 70.1257521,81.8237988 70.1257521,81.8237988 L70.3382033,86.596098 C70.3382033,86.596098 66.7210226,88.578827 60.2773837,88.9434992 C56.7241833,89.1428658 52.3123003,88.852253 47.1736751,87.4638739 C36.0288647,84.4527507 34.1122119,72.3260735 33.8189436,60.0215912 C33.7295549,56.3683075 33.7846575,52.9234524 33.7846575,50.0423237 C33.7846575,37.4603531 41.8605583,33.7723833 41.8605583,33.7723833 C45.9326418,31.8634012 52.9199598,31.0606224 60.1840154,31 L60.3624866,31 C67.6265422,31.0606224 74.6184521,31.8634012 78.6902294,33.7723833 C78.6902294,33.7723833 86.7658241,37.4603531 86.7658241,50.0423237 C86.7658241,50.0423237 86.8671517,59.3253705 85.6395879,65.7704118" id="Path" fill="#FFFFFF" fill-rule="nonzero"></path>
            <path d="M78.7678585,51.0182536 L78.7678585,66 L73.019554,66 L73.019554,51.458613 C73.019554,48.3933058 71.7704919,46.8374511 69.2720702,46.8374511 C66.5096698,46.8374511 65.1251959,48.6830887 65.1251959,52.3325712 L65.1251959,60.2919217 L59.4108188,60.2919217 L59.4108188,52.3325712 C59.4108188,48.6830887 58.0260473,46.8374511 55.2636469,46.8374511 C52.7652252,46.8374511 51.5161631,48.3933058 51.5161631,51.458613 L51.5161631,66 L45.7678585,66 L45.7678585,51.0182536 C45.7678585,47.9563267 46.5228908,45.5231335 48.0395028,43.7229761 C49.6034345,41.9228188 51.6515749,41 54.1940427,41 C57.1356032,41 59.3632014,42.1674288 60.836065,44.5025936 L62.2678585,46.9809598 L63.6999497,44.5025936 C65.1725157,42.1674288 67.4001139,41 70.341972,41 C72.8841422,41 74.9322826,41.9228188 76.4965119,43.7229761 C78.0128263,45.5231335 78.7678585,47.9563267 78.7678585,51.0182536" id="Path" fill="#3088D4" fill-rule="nonzero"></path>
        </g>
    </g>
</svg>