<?xml version="1.0" encoding="UTF-8"?>
<svg width="30px" height="30px" viewBox="0 0 30 30" version="1.1" xmlns="http://www.w3.org/2000/svg" xmlns:xlink="http://www.w3.org/1999/xlink">
    <!-- Generator: Sketch 41.2 (35397) - http://www.bohemiancoding.com/sketch -->
    <title>medium</title>
    <desc>Created with Sketch.</desc>
    <defs></defs>
    <g id="Page-1" stroke="none" stroke-width="1" fill="none" fill-rule="evenodd">
        <g id="medium">
            <rect id="Rectangle" x="0" y="0" width="29.6909608" height="29.6637567"></rect>
            <ellipse id="Oval" fill="#00B976" cx="14.8454804" cy="14.8318783" rx="14.8454804" ry="14.8318783"></ellipse>
            <path d="M22.2228277,11.0611963 C22.2199906,11.0589288 22.217721,11.0559526 22.2141747,11.0542519 L22.2090679,11.0517009 L17.7307698,8.81460341 C17.7005551,8.79943905 17.66878,8.789235 17.6365794,8.78101506 C17.5961513,8.77066928 17.5548721,8.76429175 17.513451,8.76429175 C17.3419508,8.76429175 17.1713017,8.85031761 17.0788135,9.00026054 L14.5006359,13.1861909 L17.7361602,18.439012 L22.2365874,11.1326247 C22.251482,11.1082484 22.2443893,11.0782031 22.2228277,11.0611963 Z M13.0805458,12.2326786 L13.0805458,16.9975474 L17.3196799,19.1151724 L13.0805458,12.2326786 Z M17.9565997,19.4333406 L21.4460408,21.1763917 C21.9001122,21.4032902 22.2682206,21.2444187 22.2682206,20.8218007 L22.2682206,12.4333584 L17.9565997,19.4333406 Z M12.3446126,11.067999 L7.97086008,8.88305562 C7.89184797,8.84365663 7.8166659,8.82494919 7.74857648,8.82494919 C7.55707497,8.82494919 7.42274021,8.97304972 7.42274021,9.22149013 L7.42274021,18.6559899 C7.42274021,18.9085403 7.60771648,19.2075758 7.83383011,19.320529 L11.6861311,21.2448439 C11.7848608,21.2941635 11.8789093,21.3175478 11.9638792,21.3175478 C12.2033271,21.3175478 12.371281,21.1324575 12.371281,20.8218007 L12.371281,11.1109411 C12.371281,11.0928006 12.3609257,11.0760772 12.3446126,11.067999 Z" id="Shape" fill="#FFFFFF"></path>
        </g>
    </g>
</svg>