<?xml version="1.0" encoding="UTF-8"?>
<svg width="30px" height="30px" viewBox="0 0 30 30" version="1.1" xmlns="http://www.w3.org/2000/svg" xmlns:xlink="http://www.w3.org/1999/xlink">
    <!-- Generator: Sketch 41.2 (35397) - http://www.bohemiancoding.com/sketch -->
    <title>periscope</title>
    <desc>Created with Sketch.</desc>
    <defs></defs>
    <g id="Page-1" stroke="none" stroke-width="1" fill="none" fill-rule="evenodd">
        <g id="periscope">
            <rect id="Rectangle" x="0" y="0" width="29.6909608" height="29.6637567"></rect>
            <ellipse id="Oval" fill="#009FC1" cx="14.8454804" cy="14.8318783" rx="14.8454804" ry="14.8318783"></ellipse>
            <path d="M20.9186315,12.8896084 C20.9186315,17.4610611 16.0621638,22.4846903 14.8455339,22.4846903 C13.6290109,22.4846903 8.77232934,17.4610611 8.77232934,12.8896084 C8.77232934,9.4942258 11.4913267,6.74176288 14.8455339,6.74176288 C18.199848,6.74176288 20.9186315,9.4942258 20.9186315,12.8896084 Z M14.8455339,9.1797483 C14.5534871,9.1797483 14.2697814,9.21514732 13.9974112,9.28020789 C14.4913563,9.52540291 14.8322736,10.0377685 14.8322736,10.6321905 C14.8322736,11.4642297 14.165945,12.1387596 13.344022,12.1387596 C12.5527901,12.1387596 11.9075282,11.5131605 11.8603686,10.7242063 C11.4206409,11.338547 11.1606754,12.093293 11.1606754,12.9099602 C11.1606754,14.9701396 12.810403,16.640172 14.8455339,16.640172 C16.8806648,16.640172 18.5303924,14.9701396 18.5303924,12.9099602 C18.5303924,10.8497808 16.8806648,9.1797483 14.8455339,9.1797483 Z" id="Shape" fill="#FFFFFF"></path>
        </g>
    </g>
</svg>