<?xml version="1.0" encoding="UTF-8"?>
<svg width="30px" height="30px" viewBox="0 0 30 30" version="1.1" xmlns="http://www.w3.org/2000/svg" xmlns:xlink="http://www.w3.org/1999/xlink">
    <!-- Generator: Sketch 41.2 (35397) - http://www.bohemiancoding.com/sketch -->
    <title>rss</title>
    <desc>Created with Sketch.</desc>
    <defs></defs>
    <g id="Page-1" stroke="none" stroke-width="1" fill="none" fill-rule="evenodd">
        <g id="rss">
            <rect id="Rectangle" x="0" y="0" width="29.6909608" height="29.6637567"></rect>
            <ellipse id="Oval" fill="#FF8A00" cx="14.8454804" cy="14.8318783" rx="14.8454804" ry="14.8318783"></ellipse>
            <path d="M8.77760613,8.09011546 L8.77760613,10.5347973 C14.4908641,10.538563 19.134441,15.1861697 19.1397178,20.8994649 L21.5934261,20.8994649 C21.5919184,17.36876 20.1551234,14.1694351 17.8333349,11.8482677 C15.5115465,9.52785348 12.3107952,8.09162173 8.77760613,8.09011546 L8.77760613,8.09011546 Z M8.773837,12.4462583 L8.773837,14.8916933 C10.3711973,14.8924464 11.8841289,15.5198093 13.0141162,16.6517738 C14.146365,17.7807257 14.7705341,19.2930243 14.7735494,20.8949461 L14.7735494,20.8994649 L17.2332883,20.8994649 C17.2310268,18.5692599 16.2827119,16.4589708 14.7501808,14.9270907 C13.2176496,13.3952106 11.1054252,12.4470114 8.773837,12.4462583 L8.773837,12.4462583 Z M9.27136309,20.387332 L9.27136309,20.3865788 L9.27060926,20.3865788 L9.27136309,20.387332 L9.27136309,20.387332 Z M11.6775802,17.991604 C11.9889109,18.3018964 12.1781216,18.7221467 12.1788754,19.1905977 C12.1781216,19.6575425 11.9889109,20.0785459 11.6790879,20.3865788 L11.6775802,20.387332 C11.368511,20.6953649 10.94486,20.8844022 10.4744717,20.8844022 C10.0033295,20.8844022 9.58118616,20.6946117 9.27136309,20.3865788 C8.96304768,20.0785459 8.77232934,19.6582956 8.77232934,19.1905977 C8.77232934,18.7221467 8.96304768,18.3011432 9.27136309,17.991604 C9.58118616,17.6835711 10.0033295,17.4930275 10.4744717,17.4930275 C10.94486,17.4930275 11.368511,17.6835711 11.6775802,17.991604 L11.6775802,17.991604 Z" id="Shape" fill="#FFFFFF"></path>
        </g>
    </g>
</svg>