<?xml version="1.0" encoding="UTF-8"?>
<svg width="30px" height="30px" viewBox="0 0 30 30" version="1.1" xmlns="http://www.w3.org/2000/svg" xmlns:xlink="http://www.w3.org/1999/xlink">
    <!-- Generator: Sketch 41.2 (35397) - http://www.bohemiancoding.com/sketch -->
    <title>snapchat</title>
    <desc>Created with Sketch.</desc>
    <defs></defs>
    <g id="Page-1" stroke="none" stroke-width="1" fill="none" fill-rule="evenodd">
        <g id="snapchat">
            <rect id="Rectangle" x="0" y="0" width="29.6909608" height="29.6637567"></rect>
            <ellipse id="Oval" fill="#FEFF00" cx="14.8454804" cy="14.8318783" rx="14.8454804" ry="14.8318783"></ellipse>
            <path d="M14.6960573,8.09279827 C14.3664993,8.09279827 13.707114,8.13917255 12.9988298,8.45060839 C12.5938651,8.6285553 12.2296046,8.86916497 11.9162052,9.16576871 C11.5425574,9.51917136 11.2381606,9.95489792 11.0116328,10.4610291 C10.6798818,11.2020977 10.7586356,12.4503322 10.8218849,13.4534346 C10.828887,13.5624333 10.8360044,13.6746131 10.8425063,13.7839184 C10.7938382,13.8061857 10.7149305,13.8296795 10.5986273,13.8296795 C10.4114956,13.8296795 10.1889689,13.7700828 9.93739527,13.6526524 C9.86337361,13.6183124 9.77888734,13.6009508 9.68566775,13.6009508 C9.53589315,13.6009508 9.37800078,13.6448722 9.24103762,13.7250882 C9.06871795,13.8258852 8.95737767,13.9683424 8.92713805,14.1262832 C8.90720914,14.2307595 8.90817096,14.4372592 9.13843066,14.6466716 C9.26508312,14.7619557 9.45113757,14.8682716 9.69128478,14.9628215 C9.75430322,14.9875417 9.82909435,15.0111504 9.90830984,15.0361772 C10.183198,15.1232152 10.5992428,15.2547112 10.7077361,15.5090798 C10.7627138,15.6380463 10.739053,15.8077532 10.6376002,16.0128731 C10.6045136,16.0886816 10.3679828,16.6224074 9.88280237,17.1852991 C9.6071063,17.5053966 9.3034405,17.772911 8.98073066,17.9806371 C8.58684615,18.2342392 8.16064448,18.4000369 7.71409071,18.4733159 C7.53873169,18.5019836 7.41350273,18.6576249 7.42327482,18.8344987 C7.4262757,18.8854721 7.43827921,18.9362921 7.459093,18.9854642 C7.53049851,19.1515684 7.69489278,19.2919177 7.96216331,19.4157102 C8.2887589,19.566829 8.77720956,19.6939558 9.41381896,19.7934114 C9.44598222,19.8543495 9.4793766,20.0074996 9.50249876,20.1123591 C9.52669815,20.2238107 9.5519363,20.338405 9.58790837,20.4601278 C9.62672742,20.5920071 9.72741074,20.749603 9.98606336,20.749603 C10.0840921,20.749603 10.1968174,20.7276039 10.3273556,20.7023855 C10.5185269,20.6650178 10.7799496,20.6140445 11.1062374,20.6140445 C11.2871365,20.6140445 11.4746144,20.6299114 11.6633235,20.6611469 C12.0270838,20.7214718 12.3406756,20.942152 12.7035126,21.1977088 C13.2345911,21.5716924 13.8357286,21.9950014 14.7541897,21.9950014 C14.7792355,21.9950014 14.8043582,21.9941966 14.8291732,21.9924719 C14.8595282,21.99389 14.8971546,21.9950014 14.9368585,21.9950014 C15.855589,21.9950014 16.4565725,21.5715391 16.987074,21.1978621 C17.3508343,20.9418454 17.6640798,20.7214718 18.0277247,20.6611469 C18.2163568,20.6299497 18.4037963,20.6140445 18.5847724,20.6140445 C18.896479,20.6140445 19.143282,20.6536351 19.3636542,20.696445 C19.5074655,20.7246528 19.619229,20.7382202 19.7049848,20.7382202 C19.9112375,20.7383735 20.0502397,20.634932 20.1032937,20.4539191 C20.1385348,20.334764 20.163696,20.2228525 20.188511,20.109523 C20.2101327,20.0112555 20.2446813,19.8537363 20.2768445,19.7921466 C20.9138771,19.6924994 21.4021354,19.5656409 21.7287695,19.4145604 C21.9954244,19.2913428 22.1596263,19.1511468 22.2309549,18.986614 C22.2523458,18.9372886 22.2648494,18.8861619 22.267658,18.8341154 C22.2776994,18.6575482 22.152278,18.5016004 21.9768036,18.4729326 C19.9921843,18.1470863 19.0981149,16.115663 19.0611425,16.0293532 C18.9518029,15.8073699 18.9283729,15.6378547 18.983389,15.5086582 C19.0916515,15.2545195 19.507427,15.1230236 19.7825075,15.0360239 C19.8621462,15.0110354 19.9372066,14.9872734 19.9997249,14.9626682 C20.270535,14.8561223 20.4640916,14.7405316 20.5917828,14.6092656 C20.744289,14.4527811 20.77399,14.3028504 20.7721433,14.2047362 C20.7674881,13.9673459 20.5853194,13.7564005 20.2955423,13.6531123 C20.1976675,13.6127935 20.0860579,13.5915227 19.9724093,13.5915227 C19.8950405,13.5915227 19.7804685,13.6021006 19.6720136,13.6525374 C19.4398303,13.7607696 19.2318464,13.8199447 19.0532941,13.8283764 C18.9583432,13.8235857 18.8917468,13.8030813 18.8486188,13.7834968 C18.8540435,13.6909016 18.8600452,13.5957768 18.8662393,13.4965895 L18.868817,13.4541245 C18.9324126,12.4503705 19.0114357,11.2011778 18.6795309,10.4595727 C18.4520412,9.95164023 18.1465672,9.51480221 17.7714189,9.16063305 C17.4567884,8.86383768 17.0912968,8.62326633 16.6848701,8.4454344 C15.9775862,8.13629811 15.3182394,8.09011546 14.9882197,8.09011546 C14.859836,8.09118858 14.7095612,8.09264497 14.6960573,8.09279827 Z" id="Shape" fill="#FFFFFF"></path>
        </g>
    </g>
</svg>