<?xml version="1.0" encoding="UTF-8"?>
<svg width="30px" height="30px" viewBox="0 0 792 792" version="1.1" xmlns="http://www.w3.org/2000/svg" xmlns:xlink="http://www.w3.org/1999/xlink">
  <title>telegram logo icon</title>
  <g>
    <path d="M579.8,240.3c2.9,2.5,4.2,5.8,4,9.8l-59.9,285.7c-2,9.8-7.9,14.7-17.7,14.7c-3.8,0-7.3-1.1-10.6-3.4
      l-87.5-64.1l-49,46c-2.8,2.3-5.7,3.4-8.7,3.4c-6.8,0-11.3-2.9-13.6-8.7L302.1,419l-86-26.8c-5.3-1.5-8.3-5.3-9-11.3
      c0-6,3-10.2,9-12.4c235.2-88,353.6-131.9,355.1-131.9C574,236.6,576.9,237.8,579.8,240.3z M516.1,295.9c0.1-0.6,0.2-1.1,0.2-1.3
      c0-2.3-1.6-3.4-4.9-3.4c-0.8,0-63.6,40-188.5,119.9l26.4,86.3l5.3-55C462.1,345.4,515.9,296.5,516.1,295.9z" fill="#FFFFFF"/>
    <path d="M740.7,253.5c18.7,45.2,28.1,92.7,28.1,142.5s-9.4,97.3-28.1,142.5c-18.7,45.2-45.8,85.6-81.2,121
      s-75.8,62.5-121,81.2c-45.2,18.7-92.7,28.1-142.5,28.1s-97.3-9.4-142.5-28.1c-45.2-18.7-85.6-45.8-121-81.2s-62.5-75.8-81.2-121
      C32.5,493.3,23.2,445.8,23.2,396s9.4-97.3,28.1-142.5c18.7-45.2,45.8-85.6,81.2-121s75.8-62.5,121-81.2
      c45.2-18.7,92.7-28.1,142.5-28.1s97.3,9.4,142.5,28.1c45.2,18.7,85.6,45.8,121,81.2S722,208.3,740.7,253.5z M583.7,250.1
      c0.3-4-1.1-7.3-4-9.8c-2.9-2.5-5.7-3.8-8.5-3.8c-1.5,0-119.9,44-355.1,131.9c-6,2.3-9,6.4-9,12.4c0.8,6,3.8,9.8,9,11.3l86,26.8
      l34.7,104.8c2.3,5.8,6.8,8.7,13.6,8.7c3,0,5.9-1.1,8.7-3.4l49-46l87.5,64.1c3.3,2.3,6.8,3.4,10.6,3.4c9.8,0,15.7-4.9,17.7-14.7
      L583.7,250.1z" fill="#2CA5E0"/>
    <path d="M516.3,294.6c0,0.3-0.1,0.7-0.2,1.3c-0.1,0.6-54,49.4-161.5,146.4l-5.3,55l-26.4-86.3
      c124.9-79.9,187.7-119.9,188.5-119.9C514.6,291.2,516.3,292.3,516.3,294.6z" fill="#2CA5E0"/>
  </g>
</svg>
