<?xml version="1.0" encoding="UTF-8"?>
<svg width="30px" height="30px" viewBox="0 0 30 30" version="1.1" xmlns="http://www.w3.org/2000/svg" xmlns:xlink="http://www.w3.org/1999/xlink">
  <circle fill="#000000" cx="15" cy="15" r="15"></circle>
  <path d="M19.2284543,14.2696146 C19.1433432,14.2283229 19.0568941,14.1885833 18.969313,14.1505313 C18.8167922,11.3060625 17.2811895,9.67760417 14.7027333,9.6609375 C14.6910524,9.66086458 14.6794332,9.66086458 14.6677523,9.66086458 C13.1255013,9.66086458 11.8428341,10.3271771 11.0533587,11.5396563 L12.4714319,12.52425 C13.0611996,11.6185729 13.9867808,11.4255 14.6684316,11.4255 C14.6763046,11.4255 14.6842085,11.4255 14.6919992,11.4255729 C15.5409907,11.4310521 16.1816399,11.6808958 16.5962866,12.168125 C16.8980349,12.5228437 17.0998523,13.0130208 17.1997833,13.6316458 C16.447059,13.5021563 15.6329971,13.4623438 14.7627434,13.5128438 C12.3112644,13.6557708 10.735257,15.1029062 10.8411057,17.11375 C10.8948173,18.13375 11.3968599,19.01125 12.2546917,19.5844792 C12.9799787,20.0690625 13.9141019,20.3060417 14.884935,20.2523958 C16.1670259,20.18125 17.1728194,19.6861458 17.8744975,18.7808333 C18.4073942,18.0933333 18.7444426,17.2023958 18.8932584,16.0797917 C19.504268,16.4530208 19.9570963,16.9441667 20.2071811,17.5345833 C20.6324281,18.5382292 20.6572307,20.1875 19.3276649,21.5320833 C18.1627639,22.71 16.7624952,23.2195833 14.6462944,23.2353125 C12.2988631,23.2177083 10.5235289,22.4557292 9.36925913,20.9705208 C8.28837841,19.5797917 7.72977346,17.5710417 7.70893307,15 C7.72977346,12.4289375 8.28837841,10.4201667 9.36925913,9.02944792 C10.5235289,7.54426042 12.2988322,6.78229167 14.6462636,6.76463542 C17.0107274,6.78242708 18.816998,7.5480625 20.0154494,9.04041667 C20.6030972,9.77225 21.0461485,10.6925833 21.3382228,11.7656562 L23,11.3168958 C22.6459706,9.9960625 22.0888888,8.85788542 21.3308129,7.91395833 C19.7943869,6.00069583 17.547329,5.02032792 14.6520577,5 L14.6404694,5 C11.7510849,5.02025729 9.52918987,6.00435417 8.03652351,7.92492708 C6.70825443,9.634 6.02309425,12.0120521 6,14.9929688 L6,15 L6,15.0070313 C6.02309425,17.9879167 6.70825443,20.3660417 8.03652351,22.0751042 C9.52918987,23.995625 11.7510849,24.9797917 14.6404694,25 L14.6520577,25 C17.220881,24.9819792 19.0315769,24.30125 20.5232347,22.7928125 C22.474822,20.819375 22.4160572,18.3457292 21.7728351,16.8271875 C21.3113619,15.7382292 20.431537,14.8537708 19.2284543,14.2696146 Z" fill="#FFFFFF"></path>
  <path d="M14.3925636,17.9952567 C13.2488694,18.0519985 12.0606873,17.5998006 12.0021004,16.6312323 C11.958675,15.9130809 12.5822951,15.1117467 14.4627518,15.0162892 C14.6781037,15.0053461 14.8894242,15 15.09702,15 C15.7800596,15 16.4190603,15.0584499 17,15.1703221 C16.7833116,17.5540597 15.5123212,17.9411203 14.3925636,17.9952567 Z" fill="#000000"></path>
</svg>
