<?xml version="1.0" encoding="utf-8"?>
<svg version="1.1" xmlns="http://www.w3.org/2000/svg" xmlns:xlink="http://www.w3.org/1999/xlink" x="0px" y="0px"  viewBox="-502 -3.2 577.2 562.2" style="enable-background:new -502 -3.2 577.2 562.2;" xml:space="preserve">
  <style type="text/css">st0{fill:#010101;} .st1{fill:#EE1D52;} .st2{fill:#FFFFFF;} .st3{fill:#69C9D0;} </style>
  <path class="st0" d="M-213.4,2.8L-213.4,2.8c151.9,0,275.1,123.2,275.1,275.1v0C61.7,429.8-61.4,553-213.4,553h0 c-151.9,0-275.1-123.2-275.1-275.1v0C-488.5,125.9-365.3,2.8-213.4,2.8z"/>
  <g>
    <path class="st1" d="M-133.8,226c24.1,17.2,53.6,27.3,85.5,27.3v-61.3c-6,0-12-0.6-17.9-1.9v48.3c-31.9,0-61.4-10.1-85.5-27.3 v125.1c0,62.6-50.8,113.3-113.4,113.3c-23.4,0-45.1-7.1-63.1-19.2c20.6,21,49.3,34.1,81.1,34.1c62.6,0,113.4-50.7,113.4-113.3 L-133.8,226L-133.8,226z M-111.6,164.2c-12.3-13.4-20.4-30.8-22.1-50v-7.9h-17C-146.5,130.7-131.9,151.5-111.6,164.2L-111.6,164.2z M-288.6,382.3c-6.9-9-10.6-20-10.6-31.4c0-28.6,23.2-51.8,51.9-51.8c5.3,0,10.6,0.8,15.7,2.4v-62.7c-5.9-0.8-11.9-1.2-17.9-1v48.8 c-5.1-1.6-10.4-2.4-15.7-2.4c-28.6,0-51.9,23.2-51.9,51.8C-317.1,356.2-305.5,373.8-288.6,382.3z"/>
    <path class="st2" d="M-151.7,211.1c24.1,17.2,53.6,27.3,85.5,27.3v-48.3c-17.8-3.8-33.5-13.1-45.4-26 c-20.3-12.6-34.9-33.5-39.1-57.9h-44.7v244.8c-0.1,28.5-23.3,51.7-51.9,51.7c-16.8,0-31.8-8-41.3-20.5 c-16.9-8.5-28.5-26.1-28.5-46.3c0-28.6,23.2-51.8,51.9-51.8c5.5,0,10.8,0.9,15.7,2.4v-48.8c-61.5,1.3-111,51.5-111,113.3 c0,30.8,12.3,58.8,32.3,79.2c18,12.1,39.7,19.2,63.1,19.2c62.6,0,113.4-50.7,113.4-113.3L-151.7,211.1L-151.7,211.1z"/>
    <path class="st3" d="M-66.3,190.2v-13c-16,0-31.8-4.5-45.4-13C-99.6,177.4-83.7,186.5-66.3,190.2z M-150.8,106.3 c-0.4-2.3-0.7-4.7-0.9-7v-7.9h-61.7v244.8c-0.1,28.5-23.3,51.6-51.9,51.6c-8.4,0-16.3-2-23.3-5.5c9.5,12.4,24.4,20.5,41.3,20.5 c28.6,0,51.8-23.1,51.9-51.7V106.3H-150.8z M-249.5,237.8v-13.9c-5.2-0.7-10.4-1.1-15.6-1.1c-62.6,0-113.4,50.7-113.4,113.3 c0,39.2,19.9,73.8,50.3,94.1c-20-20.4-32.3-48.4-32.3-79.2C-360.5,289.3-311,239.1-249.5,237.8z"/>
  </g>
</svg>
