<?xml version="1.0" encoding="UTF-8"?>
<svg width="30px" height="30px" viewBox="0 0 30 30" version="1.1" xmlns="http://www.w3.org/2000/svg" xmlns:xlink="http://www.w3.org/1999/xlink">
    <!-- Generator: Sketch 41.2 (35397) - http://www.bohemiancoding.com/sketch -->
    <title>tumblr</title>
    <desc>Created with Sketch.</desc>
    <defs></defs>
    <g id="Page-1" stroke="none" stroke-width="1" fill="none" fill-rule="evenodd">
        <g id="tumblr">
            <rect id="Rectangle" x="0" y="0" width="29.6909608" height="29.6637567"></rect>
            <ellipse id="Oval" fill="#36465D" cx="14.8454804" cy="14.8318783" rx="14.8454804" ry="14.8318783"></ellipse>
            <path d="M15.1709768,7.41593917 L15.1709768,10.9574621 L18.6363536,10.9574621 L18.6363536,13.1575241 L15.1709768,13.1575241 L15.1709768,16.7509586 C15.1709768,17.5642399 15.2156359,18.0858277 15.3049542,18.3148978 C15.3942724,18.5472639 15.5608854,18.7310144 15.8065106,18.8686212 C16.1285716,19.0548437 16.4978683,19.1471309 16.9144006,19.1471309 C17.6538527,19.1471309 18.3890107,18.9155888 19.1207334,18.4549766 L19.1207334,20.6665745 C18.4963644,20.9467322 17.9321135,21.1453146 17.4262629,21.2590256 C16.9195535,21.3735607 16.3724792,21.4295922 15.7850398,21.4295922 C15.1160117,21.4295922 14.5259959,21.3488409 14.0132747,21.1873382 C13.5005535,21.0241876 13.0625505,20.7951174 12.7009833,20.4951839 C12.3385573,20.1960743 12.0860614,19.876365 11.946931,19.5393517 C11.8069418,19.2023385 11.7373767,18.7137105 11.7373767,18.0726438 L11.7373767,13.1575241 L10.1219185,13.1575241 L10.1219185,11.1741723 C10.6973342,10.9953658 11.1877258,10.7382799 11.5973875,10.4053867 C12.0053314,10.0716694 12.335122,9.67038468 12.581606,9.20153253 C12.8289489,8.73432836 12.9998559,8.13858124 13.0934684,7.41593917 L15.1709768,7.41593917" id="Shape" fill="#FFFFFF"></path>
        </g>
    </g>
</svg>