<?xml version="1.0" encoding="UTF-8"?>
<svg width="30px" height="30px" viewBox="0 0 30 30" version="1.1" xmlns="http://www.w3.org/2000/svg" xmlns:xlink="http://www.w3.org/1999/xlink">
    <!-- Generator: Sketch 41.2 (35397) - http://www.bohemiancoding.com/sketch -->
    <title>twitter</title>
    <desc>Created with Sketch.</desc>
    <defs></defs>
    <g id="Page-1" stroke="none" stroke-width="1" fill="none" fill-rule="evenodd">
        <g id="twitter">
            <rect id="Rectangle" x="0" y="0" width="29.6909608" height="29.6637567"></rect>
            <ellipse id="Oval" fill="#00A1F2" cx="14.8454804" cy="14.8318783" rx="14.8454804" ry="14.8318783"></ellipse>
            <path d="M20.5988794,11.3569928 C21.1994097,10.9783712 21.6602045,10.3780106 21.8764619,9.6628364 C21.3141925,10.0142884 20.6928682,10.2684557 20.0299559,10.4060566 C19.5009569,9.81007814 18.7448876,9.43846804 17.9081376,9.43846804 C16.3028418,9.43846804 15.00197,10.8100949 15.00197,12.501622 C15.00197,12.7417663 15.026091,12.9757755 15.0759966,13.1992674 C12.6605672,13.0713073 10.5187866,11.8530572 9.08400149,9.9985125 C8.8336419,10.4525079 8.69057927,10.9783712 8.69057927,11.5392921 C8.69057927,12.6015361 9.20377485,13.5393257 9.98396522,14.0897293 C9.50736705,14.0739534 9.05904871,13.9345997 8.66645824,13.7067255 L8.66645824,13.7444124 C8.66645824,15.2290999 9.66789663,16.4675081 10.9995435,16.7479686 C10.7550062,16.8198366 10.4988243,16.8557706 10.2326613,16.8557706 C10.0455154,16.8557706 9.86252834,16.8373653 9.68619534,16.8014313 C10.0554965,18.0179286 11.129298,18.9048847 12.40189,18.9285486 C11.4062739,19.7506483 10.1528124,20.2397012 8.79122216,20.2397012 C8.556666,20.2397012 8.32460511,20.2265546 8.09753478,20.1976321 C9.38426666,21.0661831 10.9122088,21.5736412 12.5541019,21.5736412 C17.9023152,21.5736412 20.825118,16.9057276 20.825118,12.8574562 C20.825118,12.7242375 20.8234545,12.5918952 20.8176321,12.4613058 C21.3857239,12.0292215 21.879789,11.4893351 22.2682206,10.8749514 C21.7467075,11.1186014 21.1861016,11.2833719 20.5988794,11.3569928 Z" id="Shape" fill="#FFFFFF"></path>
        </g>
    </g>
</svg>