<?xml version="1.0" encoding="UTF-8"?>
<svg width="30px" height="30px" viewBox="0 0 30 30" version="1.1" xmlns="http://www.w3.org/2000/svg" xmlns:xlink="http://www.w3.org/1999/xlink">
    <!-- Generator: Sketch 41.2 (35397) - http://www.bohemiancoding.com/sketch -->
    <title>vimeo</title>
    <desc>Created with Sketch.</desc>
    <defs></defs>
    <g id="Page-1" stroke="none" stroke-width="1" fill="none" fill-rule="evenodd">
        <g id="vimeo">
            <rect id="Rectangle" x="0" y="0" width="29.6909608" height="29.6637567"></rect>
            <ellipse id="Oval" fill="#00AEF0" cx="14.8454804" cy="14.8318783" rx="14.8454804" ry="14.8318783"></ellipse>
            <path d="M18.8362846,17.8535894 C17.0016589,20.3341752 15.4471469,21.5736412 14.1767162,21.5736412 C13.3911282,21.5736412 12.7253623,20.8195432 12.1817988,19.3063858 C11.8175717,17.9180847 11.4557251,16.5297835 11.0922914,15.1456167 C10.6875946,13.6316325 10.2543309,12.8750538 9.79091335,12.8750538 C9.6901359,12.8750538 9.33860511,13.095826 8.73235336,13.5381971 L8.09753478,12.6857024 C8.76250724,12.0779589 9.41795743,11.4677348 10.0646789,10.8591645 C10.9502508,10.0604158 11.6160168,9.64119685 12.0603898,9.59737317 C13.1078404,9.49153485 13.7537684,10.2381912 13.99738,11.8348615 C14.2568621,13.5588686 14.4393724,14.6304817 14.5401499,15.0505275 C14.8432758,16.4793449 15.1749685,17.1920999 15.5384021,17.1920999 C15.8201028,17.1920999 16.2438443,16.730711 16.8088328,15.8071062 C17.3738213,14.8818477 17.6745666,14.1790151 17.7158298,13.694474 C17.7967692,12.8957254 17.4944369,12.4988317 16.8088328,12.4988317 C16.4858688,12.4988317 16.1525891,12.5699418 15.8105806,12.7187769 C16.4771401,10.4705394 17.7467772,9.3774279 19.6226662,9.44109627 C21.0121253,9.4816125 21.6683691,10.4176202 21.5866362,12.2441582 C21.5279154,13.6117878 20.6090155,15.4813226 18.8362846,17.8535894 Z" id="Shape" fill="#FFFFFF"></path>
        </g>
    </g>
</svg>