<?xml version="1.0" encoding="UTF-8"?>
<svg width="30px" height="30px" viewBox="0 0 30 30" version="1.1" xmlns="http://www.w3.org/2000/svg" xmlns:xlink="http://www.w3.org/1999/xlink">
    <!-- Generator: Sketch 41.2 (35397) - http://www.bohemiancoding.com/sketch -->
    <title>wordpress</title>
    <desc>Created with Sketch.</desc>
    <defs></defs>
    <g id="Page-1" stroke="none" stroke-width="1" fill="none" fill-rule="evenodd">
        <g id="wordpress">
            <rect id="Rectangle" x="0" y="0" width="29.6909608" height="29.6637567"></rect>
            <path d="M14.8454804,29.6637567 C23.0444129,29.6637567 29.6909608,23.0232986 29.6909608,14.8318783 C29.6909608,6.64045812 23.0444129,0 14.8454804,0 C6.64654798,0 0,6.64045812 0,14.8318783 C0,23.0232986 6.64654798,29.6637567 14.8454804,29.6637567 Z" id="Oval" fill="#00759C"></path>
            <path d="M21.358708,11.2700774 C21.3918764,11.5072479 21.4102063,11.7601136 21.4102063,12.033906 C21.4102063,12.7855274 21.2688042,13.6313194 20.8445977,14.6898673 L18.5786718,21.2373438 C20.7843709,19.9529607 22.2682206,17.5646882 22.2682206,14.8293794 C22.2682206,13.5388926 21.9382823,12.3277534 21.358708,11.2700774 L21.358708,11.2700774 Z M14.9764083,15.4781106 L12.748888,21.9427518 C13.413129,22.1389406 14.1157755,22.2444466 14.8463533,22.2444466 C15.7104775,22.2444466 16.5396877,22.0953431 17.3112896,21.8232945 C17.291214,21.7919043 17.2728841,21.7587702 17.2580456,21.7221483 L14.9764083,15.4781106 L14.9764083,15.4781106 Z M19.8574012,14.4544407 C19.8574012,13.5380207 19.52659,12.9023688 19.2446585,12.4088448 C18.868459,11.7984794 18.5158264,11.2814127 18.5158264,10.6701754 C18.5158264,9.98831013 19.0325553,9.35353015 19.7631331,9.35353015 C19.7945558,9.35353015 19.8259785,9.3578899 19.8582741,9.36050575 C18.5376478,8.15198233 16.7788494,7.41256829 14.8463533,7.41256829 C12.2522348,7.41256829 9.97059753,8.74316478 8.64386128,10.7556266 C8.81930469,10.7608583 8.98252817,10.765218 9.12131176,10.765218 C9.89815075,10.765218 11.1000691,10.6701754 11.1000691,10.6701754 C11.4989628,10.6475047 11.5469697,11.2334555 11.1463303,11.2814127 C11.1463303,11.2814127 10.744818,11.3284981 10.2970445,11.3520407 L13.0011425,19.383577 L14.6255215,14.5172211 L13.4681187,11.3520407 C13.0683521,11.3284981 12.6904069,11.2814127 12.6904069,11.2814127 C12.2897674,11.2578701 12.3369015,10.6475047 12.7375409,10.6701754 C12.7375409,10.6701754 13.9630262,10.765218 14.6927312,10.765218 C15.4678245,10.765218 16.6714885,10.6701754 16.6714885,10.6701754 C17.0703822,10.6475047 17.1175163,11.2334555 16.7177497,11.2814127 C16.7177497,11.2814127 16.3162374,11.3284981 15.8684639,11.3520407 L18.5516134,19.3225404 L19.2926654,16.8523046 C19.6679921,15.8879273 19.8574012,15.0900926 19.8574012,14.4544407 L19.8574012,14.4544407 Z M7.42274021,14.8293794 C7.42274021,17.7634929 9.13004029,20.3008689 11.6063237,21.5015448 L8.06603273,11.8106867 C7.65317335,12.7332104 7.42274021,13.7533925 7.42274021,14.8293794 L7.42274021,14.8293794 Z" id="Shape" fill="#FFFFFF"></path>
        </g>
    </g>
</svg>