<?xml version="1.0" standalone="no"?>
<!DOCTYPE svg PUBLIC "-//W3C//DTD SVG 1.1//EN" "http://www.w3.org/Graphics/SVG/1.1/DTD/svg11.dtd" >
<svg xmlns="http://www.w3.org/2000/svg" xmlns:xlink="http://www.w3.org/1999/xlink" version="1.1" viewBox="-1 -150 748 1000">
  <g transform="matrix(1 0 0 -1 0 850)">
   <path fill="currentColor"
d="M7 238q10 41 50 131t44 146q39 -72 45 -145q148 184 154 428q10 -6 25 -17t58 -45t74 -74t61 -96t34 -118q15 36 19 78t-9 81q15 -12 41 -40t56 -74t56 -99t31 -118t-9 -127t-72 -127t-152 -120q64 128 25 278t-154 229q10 -43 -11 -141t-65 -150q7 63 4 102t-12 58
l-10 18q-12 -70 -60 -141q-26 -37 -39 -68t-9 -80t30 -105q-135 76 -181 154t-24 181v1z" />
  </g>

</svg>
