<?xml version="1.0" standalone="no"?>
<!DOCTYPE svg PUBLIC "-//W3C//DTD SVG 1.1//EN" "http://www.w3.org/Graphics/SVG/1.1/DTD/svg11.dtd" >
<svg xmlns="http://www.w3.org/2000/svg" xmlns:xlink="http://www.w3.org/1999/xlink" version="1.1" viewBox="0 -150 940 1000">
  <g transform="matrix(1 0 0 -1 0 850)">
   <path fill="currentColor"
d="M868 112q72 -34 72 -112q0 -50 -35 -85t-85 -35t-85 35t-35 85q0 78 72 112v114q0 78 -76 78h-100q-44 0 -78 12v-204q72 -34 72 -112q0 -50 -35 -85t-85 -35t-85 35t-35 85q0 78 72 112v204q-30 -12 -76 -12h-100q-34 0 -53 -19t-22 -33t-3 -26v-114q72 -34 72 -112
q0 -50 -35 -85t-85 -35t-85 35t-35 85q0 78 72 112v114q0 64 43 118t131 54h100q76 0 76 52v140q-72 34 -72 110q0 50 35 85t85 35t85 -35t35 -85q0 -76 -72 -110v-140q0 -52 78 -52h100q86 0 129 -54t43 -118v-114zM190 0q0 30 -21 50t-49 20t-48 -20t-20 -49t20 -49
t48 -20t49 20t21 48zM402 700q0 -28 20 -48t48 -20t49 20t21 49t-21 49t-49 20t-48 -20t-20 -50zM540 0q0 30 -21 50t-49 20t-48 -20t-20 -49t20 -49t48 -20t49 20t21 48zM820 -68q28 0 49 20t21 49t-21 49t-49 20t-48 -20t-20 -49t20 -49t48 -20z" />
  </g>

</svg>
