<?xml version="1.0" standalone="no"?>
<!DOCTYPE svg PUBLIC "-//W3C//DTD SVG 1.1//EN" "http://www.w3.org/Graphics/SVG/1.1/DTD/svg11.dtd" >
<svg xmlns="http://www.w3.org/2000/svg" xmlns:xlink="http://www.w3.org/1999/xlink" version="1.1" viewBox="0 -150 857 1000">
  <g transform="matrix(1 0 0 -1 0 850)">
   <path fill="currentColor"
d="M0 -16v601l2 6q3 3 11 6l84 28v214l311 -110q1 0 90 31t176 60l90 30q11 0 11 -12v-233l82 -26v-602l-432 137l-209 -71q-201 -68 -205 -68q-8 0 -10 7q0 1 -1 2zM22 1l387 130v576l-387 -130v-576zM82 156q3 3 46 52q12 13 48 64t43 66q10 16 29 55t20 43q-5 1 -61 -18
q-5 -2 -16 -5l-19 -5q-8 -2 -9.5 -3t-1.5 -6v-5q-3 -5 -18 -8q-12 -4 -26 0q-10 2 -15 11q-3 4 -3 13l13 3l17 3q32 9 59 18q55 20 56 20q6 1 24 11t25 12q5 1 12 4t8 3h3q2 -7 0 -18q0 -2 -7 -16l-15 -29q-8 -15 -9 -19q-14 -28 -43 -73l35 -16l42 -18q35 -15 37.5 -15.5
t5.5 -14.5t3 -17q-1 -1 -7 1l-18 6l-11 5q-24 11 -48 28q-4 2 -23 17t-21 16q-38 -57 -75 -101q-45 -53 -59 -61q-2 -1 -11 -3t-10 0zM150 514v1q2 -1 11 -3t15 0t32 9q20 7 31 8q9 0 11 -9t-2 -16q-6 -13 -28 -21q-16 -7 -33 -7q-15 2 -27 15q-8 8 -10 22v1zM173 -72
q0 5 3 8t6 3t11 -5t17 -9t12 -6q40 -21 89 -34t87 -14q53 0 94 8t87 28q9 4 17 9t19 11l16 9l-24 41l88 -8l-30 -89l-22 37q-73 -46 -154 -60q-33 -7 -51 -7h-47q-44 0 -111 22t-103 47q-4 4 -4 9zM434 715l319 -103v212zM494 246l57 -18l25 62l118 -37l20 -75l57 -17
l-101 366l-56 18zM598 344l42 104l35 -127z" />
  </g>

</svg>
