<?xml version="1.0" standalone="no"?>
<!DOCTYPE svg PUBLIC "-//W3C//DTD SVG 1.1//EN" "http://www.w3.org/Graphics/SVG/1.1/DTD/svg11.dtd" >
<svg xmlns="http://www.w3.org/2000/svg" xmlns:xlink="http://www.w3.org/1999/xlink" version="1.1" viewBox="0 -150 1000 1000">
  <g transform="matrix(1 0 0 -1 0 850)">
   <path fill="currentColor"
d="M0 350q0 54 1 84t4 76t13 82q9 41 38 69t70 32q123 14 374 14t374 -14q40 -4 70 -32t39 -69q7 -36 12 -82t4 -76t1 -84t-1 -84t-4 -76t-13 -82q-9 -41 -38 -69t-70 -32q-123 -14 -374 -14t-374 14q-40 4 -70 32t-39 69q-7 36 -12 82t-4 76t-1 84zM357 171q0 -21 19 -31
q9 -4 17 -4q11 0 19 5l286 179q16 9 16 30t-16 30l-286 179q-17 11 -36 1t-19 -31v-358z" />
  </g>

</svg>
