<svg xmlns="http://www.w3.org/2000/svg" viewBox="0 0 150.14 21.88"><title>CrimethInc. logotype</title><path d="M94.7,7.4c0.6,0,.8-0.7,1.4-0.9,0.2-.1.5,0,0.7-0.1A4.35,4.35,0,0,1,97.5,6a4.77,4.77,0,0,1,3.1.3c0.3,0.1.6,0.1,0.9,0.2,1.9,1,1.3,4.4,1.3,7.6,0,0.3.1,0.6,0.1,0.9s-0.1.7-.1,1.1,0.2,0.9.2,1.3a5.38,5.38,0,0,1-.5,3.3,21.58,21.58,0,0,1-4.4-.1c-0.7-1-.2-2.4-0.4-3.8,0-.2-0.1-0.5-0.1-0.7-0.1-2.3.7-5.4-.8-6.2A2.15,2.15,0,0,0,94.5,11a8.85,8.85,0,0,0,0,2.3c0,0.3-.2.6-0.2,1-0.2,2,.3,4.2-0.1,6.2-0.4.5-1.2,0.2-1.9,0.3a4.18,4.18,0,0,1-1,.4,1.69,1.69,0,0,1-.6-0.3,3.75,3.75,0,0,1-1,.1c-0.8-.4-0.4-2.7-0.4-3.8,0-.3-0.1-0.5-0.1-0.8-0.2-2.7.3-6.8,0-9.3,0-.4-0.3-0.7-0.3-1.1s0.1-.8.1-1.2a3.29,3.29,0,0,0-.4-1.7c0.1-.3.3-0.7,0.4-1,0.2-1-.2-1.9,1-2a3.59,3.59,0,0,1,1.1.2c1,0,2.3-.4,2.8,0s0.2,2.2.2,2.9C94.4,4.9,94.2,6.3,94.7,7.4Z" transform="translate(0 -0.1)" style="fill:#fff"/><path d="M110.7,20.8c-2,0-3.8.3-5.5-.1A20.59,20.59,0,0,1,105,17a11,11,0,0,1-.2-1.8c0-.3.2-0.8,0.2-1.1s-0.1-.6-0.1-1c0-1.7.2-3.6,0.2-5.5,0-1.4-.2-3.1-0.1-4.5a8.63,8.63,0,0,1,.4-2.8,6.8,6.8,0,0,1,2-.2c0.5,0,1.5.1,2,.1a2,2,0,0,1,1.3.1c0.6,0.4.3,3.1,0.3,4.1,0,2.2.1,3.8,0.1,5.5,0,2.1-.3,4.4-0.1,6.5A7.34,7.34,0,0,1,110.7,20.8Z" transform="translate(0 -0.1)" style="fill:#fff"/><path d="M37.2,0.7a26.7,26.7,0,0,1,0,4,11.11,11.11,0,0,0-1.6.7c-1.2-.3-2.8.4-3.4-0.5s0.2-2.5.1-3.9a1.39,1.39,0,0,1,1-.5,8.75,8.75,0,0,1,1.6.2c0.3,0,.5-0.3.8-0.3A2.06,2.06,0,0,1,37.2.7Z" transform="translate(0 -0.1)" style="fill:#fff"/><path d="M17.5,7.3a3.07,3.07,0,0,1-2.4.8c-1,.1-2.4.3-2.8-0.1a2.1,2.1,0,0,1-.4-1.1A2.87,2.87,0,0,0,8.6,5,6.1,6.1,0,0,0,7,6.2C6.3,7.4,6.4,9,6.4,11a13.09,13.09,0,0,0,0,2.8,4.18,4.18,0,0,0,.4,1c0.4,1.1.7,2,1.7,2.4a3.79,3.79,0,0,0,4.3-1.5c0.3-.5.2-1.3,0.8-1.5a5.45,5.45,0,0,1,2.2.1c0.8,0.1,1.6.2,1.7,0.7a4.19,4.19,0,0,1-.5,2.2c-0.7,1.7-2.6,4-4.7,4.3H11.5a10.26,10.26,0,0,1-1.4.4,8.1,8.1,0,0,1-2.2,0A6.31,6.31,0,0,0,7,21.5a5.66,5.66,0,0,1-1.8-.3,7.55,7.55,0,0,1-2.6-2.1,10.68,10.68,0,0,1-2-3.6,9.36,9.36,0,0,1-.4-1.6A20,20,0,0,1,0,10.5c0-.4.2-0.8,0.2-1.2A10.86,10.86,0,0,1,.6,6.8,8,8,0,0,1,2.5,3.6a10,10,0,0,1,2.9-2,2.39,2.39,0,0,1,.9-0.3A5.58,5.58,0,0,0,7.1.8c1-.1,2-0.2,3-0.2A12.25,12.25,0,0,1,12,.8a7.26,7.26,0,0,0,.9.5A9.48,9.48,0,0,1,15.6,3,12.61,12.61,0,0,1,17.5,7.3Z" transform="translate(0 -0.1)" style="fill:#fff"/><path d="M78.2,9.7c-0.9,0-1.3.2-1.9-.2a2.12,2.12,0,0,1-.4-1.9c0.1-1.7.7-1.8,2.4-1.7,0.9-.8.6-2.5,0.8-3.7A2.22,2.22,0,0,1,79.9.9a6.15,6.15,0,0,1,1.3.1C82,1,82.9.7,83.4,1s0.6,1.8.5,2.8c0,0.6-.4,1.6.2,2s2.2-.1,2.8.6,0.2,3-.4,3.3-1.6-.1-2,0.1c-0.6.3-.4,1.4-0.4,2.1-0.1,1.2-.4,3.9.2,4.6a3.69,3.69,0,0,0,1.4.7,6.15,6.15,0,0,1,1.3.1c0.8,0.4.5,3.2-.3,3.5a11.48,11.48,0,0,1-1.9.1,6.37,6.37,0,0,0-.7.2,11,11,0,0,1-3.6-.7,4,4,0,0,1-1.3-1.3,11.14,11.14,0,0,1-.2-1.7,1.45,1.45,0,0,1-.2-0.7c-0.1-1.1-.1-2.2-0.1-3.3C78.5,12,79,10.2,78.2,9.7Z" transform="translate(0 -0.1)" style="fill:#fff"/><path d="M55.3,10c-2.4-.1-2.1,1.6-2.3,4a26.7,26.7,0,0,0,0,4,5.36,5.36,0,0,1-.2,2.8c-1.3,0-4.3,1-4.9-.1-0.3-.5,0-2.2-0.1-3.3,0-.3-0.2-0.6-0.2-1-0.2-1.8.4-3.6,0-5a1.34,1.34,0,0,0-1.5-1.2,1.23,1.23,0,0,0-.8.4,3,3,0,0,0-.8.8c-0.3.8,0,2,0,3.1,0,0.3-.2.5-0.2,0.8s0.1,0.4.1,0.7-0.1.6-.1,0.8a6.37,6.37,0,0,1,.2.9c0.1,1,.1,2.9-0.2,3.2s-1.8.1-2.9,0.2a2.77,2.77,0,0,1-1.8,0c-0.7-.4-0.2-2-0.2-2.8,0-.5-0.3-1.1-0.3-1.8,0-1,.1-2.1.1-3.2s-0.1-2.3,0-3.2a8.13,8.13,0,0,0,.1-2.2,3.4,3.4,0,0,1-.1-1c0.3-.6,1.5-0.3,2.6-0.4,0.8-.1,1.7-0.4,2.3.1,0.3,0.3.3,1,.7,1.1a2.75,2.75,0,0,0,1.5-.8c0.6-.4,1-0.6,1.5-0.9A5.79,5.79,0,0,1,52,7.2a2.7,2.7,0,0,0,.8.7,2.59,2.59,0,0,0,1.1-.7A10.91,10.91,0,0,1,55,6.6c0.2-.1.4,0,0.7-0.1A3.45,3.45,0,0,1,56.8,6a4.84,4.84,0,0,1,1.7,0c0.4,0.2.8,0.5,1.2,0.7a3.9,3.9,0,0,1,1.9,3.4c0.2,2.2-.3,4.9,0,6.8,0,0.3.2,0.6,0.2,0.8a7.72,7.72,0,0,1-.2,1.5,5.7,5.7,0,0,1-.1,1.3c-0.3.4-1.5,0.3-2.3,0.3-1,0-2.3.2-2.6-.4a2,2,0,0,1,.1-1.3,16.35,16.35,0,0,0-.2-2.2C56.2,14,57.1,11.2,55.3,10Z" transform="translate(0 -0.1)" style="fill:#fff"/><path d="M76.3,14.4a24.28,24.28,0,0,0-4.9.4c-0.3-.4-0.9,0-1.4,0s-1.6-.6-2,0.2a1.88,1.88,0,0,0,.4,1.6,2.62,2.62,0,0,0,3.4.5c0.5-.3.6-1,1.4-1.1a3,3,0,0,1,1.3.2,4.07,4.07,0,0,1,1.9,1.3c0.2,0.9-1.3,2.3-2,2.8-0.5.2-1,.4-1.6,0.6a5.9,5.9,0,0,1-.8.4,12.89,12.89,0,0,1-2.8.1c-1-.1-1.4-0.8-2.7-0.7a8.65,8.65,0,0,1-2.9-2.8,3,3,0,0,0-.4-0.8,3.29,3.29,0,0,1-.7-1.3,10.44,10.44,0,0,1,1-6.3,7.94,7.94,0,0,1,1.9-2.2,5.9,5.9,0,0,0,.8-0.4,4.44,4.44,0,0,1,1.1-.8,11.36,11.36,0,0,1,4.5,0c0.3,0.2.7,0.4,1,.6a5.13,5.13,0,0,1,1,.4c1.4,0.9,2.7,3.5,3,5.5A3.29,3.29,0,0,1,76.3,14.4ZM70.5,9.3a1.73,1.73,0,0,0-2.2,1.2,1.27,1.27,0,0,0-.1.6c0.1,0.8,2.1.4,2.9,0.5a1.58,1.58,0,0,0-.5-2.1C70.6,9.3,70.5,9.3,70.5,9.3Z" transform="translate(0 -0.1)" style="fill:#fff"/><path d="M126.4,20.8c-1.4-.1-4.7,1-5-0.5,0.1-.3.2-0.7,0.3-1a8.66,8.66,0,0,1-.2-1c0-.4.2-0.6,0.2-0.9a6.37,6.37,0,0,0-.2-0.7c-0.4-2.3.8-5.4-.7-6.7a2.43,2.43,0,0,0-2.7,1.5c-0.1,1.7.1,3.9,0.1,5.6a2.2,2.2,0,0,0-.1.8c0,0.9.1,2.6-.6,2.9a7.1,7.1,0,0,1-2.5-.1c-0.5,0-1.8.3-2.1-.3a5.44,5.44,0,0,1,0-1.8c0-2-.1-3.9,0-6.3,0-1.3-.2-2.6-0.1-3.5a21.05,21.05,0,0,0,.2-2.5c0.6-.5,1.5-0.3,2.3-0.3a5.86,5.86,0,0,1,2.3.1c0.5,0.2.5,1.2,0.8,1.3a2.27,2.27,0,0,0,1.1-.7,4.13,4.13,0,0,1,1.1-.7,8.22,8.22,0,0,1,3.5-.1A4.71,4.71,0,0,1,126.4,8c0.1,0.6.2,1.1,0.3,1.7,0.2,2-.3,5-0.1,7a4.4,4.4,0,0,1,.2,1c-0.1.3-.1,0.7-0.2,1A3.07,3.07,0,0,1,126.4,20.8Z" transform="translate(0 -0.1)" style="fill:#fff"/><path d="M134.1,5.9a13.55,13.55,0,0,1,3.5.1,5.82,5.82,0,0,1,2.6,1.3,7.68,7.68,0,0,1,1.4,2.5,1.93,1.93,0,0,1,.3,1c-0.1.8-1.4,0.7-2.2,0.7s-1.6.4-2.1,0-0.2-.7-0.4-1.1a1.55,1.55,0,0,0-1.6-.8,2.63,2.63,0,0,0-1.8,2,4.48,4.48,0,0,0,.1,1.1c0,0.3-.2.7-0.2,1,0,1.8.5,3.8,2.2,4a2.64,2.64,0,0,0,1.9-.7c0.4-.4.2-1.1,0.8-1.4a3.13,3.13,0,0,1,1.9.2c0.6,0.1,1.2,0,1.3.8,0.1,1.1-1.2,2.5-2.2,3.2a6.69,6.69,0,0,1-5.3,1.3c-0.4-.1-0.7-0.4-1.1-0.5a4.38,4.38,0,0,1-1.9-.7,4.62,4.62,0,0,0-.7-0.7,5.58,5.58,0,0,1-.8-0.5,9.91,9.91,0,0,1-1.1-1.7,8.66,8.66,0,0,1-.2-1c-0.2-.3-0.3-0.7-0.5-1a8.85,8.85,0,0,1,0-2.3,10.93,10.93,0,0,1,.5-1.7c0.1-.4,0-0.7.1-0.9a6,6,0,0,1,.9-1.5,7,7,0,0,1,2.8-2.3A6.54,6.54,0,0,1,134.1,5.9Z" transform="translate(0 -0.1)" style="fill:#fff"/><path d="M32.5,20.9a24.37,24.37,0,0,1-.1-2.7,13.49,13.49,0,0,0-.3-1.8c-0.1-1.5,0-3.3,0-5,0-1.3-.3-4.3.2-4.7s1.9,0,3.1-.2c0.5-.1,1.4-0.3,1.7.2a5.46,5.46,0,0,1,.1,1.8c0,0.5.2,1,.2,1.5-0.1,1.2-.2,2.5-0.2,3.7,0,0.7.3,1.4,0.3,2,0,0.3-.2.5-0.2,0.8s0.3,0.8.4,1.3-0.1.7-.1,1.1c-0.1,1,.2,1.7-0.3,2.1s-2.1.2-2.9,0.2C33.8,21.1,33,21.4,32.5,20.9Z" transform="translate(0 -0.1)" style="fill:#fff"/><path d="M20.1,21.3c-0.7-1.1-.4-2.7-0.4-4.2-0.1-3.1-.1-6.8-0.1-10,0.4-.4,3.8-0.9,4.6-0.4,0.6,0.4.2,1.1,0.7,1.6,0.8-.1,1.5-0.9,2.3-1.4a2.71,2.71,0,0,1,2.3-.3C30.3,7,30,8,30,9.1s0.3,1.6-.5,2a11.5,11.5,0,0,0-3.7.1c-1.6.7-1.5,3.2-1.3,6a8.09,8.09,0,0,1,0,2.2,4.33,4.33,0,0,1-.1,1.6C24,21.8,21,20.9,20.1,21.3Z" transform="translate(0 -0.1)" style="fill:#fff"/><path d="M144.9,14.3a14.83,14.83,0,0,1,4.7.1c0.4,0.3.5,2.3,0.5,2.9a3.66,3.66,0,0,1-.4,2.3,3.29,3.29,0,0,1-1.7.4c-1.3.1-3.4,0.1-3.7-.8a3.75,3.75,0,0,1,.1-1.1C144.5,16.3,143.6,14.6,144.9,14.3Z" transform="translate(0 -0.1)" style="fill:#fff"/></svg>