<?xml version="1.0" standalone="no"?>
<!DOCTYPE svg PUBLIC "-//W3C//DTD SVG 1.1//EN" "http://www.w3.org/Graphics/SVG/1.1/DTD/svg11.dtd" >
<svg xmlns="http://www.w3.org/2000/svg" xmlns:xlink="http://www.w3.org/1999/xlink" version="1.1" viewBox="0 -150 837 1000">
  <g transform="matrix(1 0 0 -1 0 850)">
   <path fill="currentColor"
d="M419 822q-30 -1 -50 -21t-20 -51t20 -51t50 -20t51.5 20t21.5 51t-21.5 51t-51.5 21zM371 600q-33 -88 -65.5 -121t-35.5 -31q-1 6 -33 83.5t-76 148.5q-16 -39 -38 -64t-58 -36q2 -39 25.5 -130.5t29.5 -159.5h601q5 67 28.5 161.5t26.5 126.5q-30 12 -58 38t-38 64
q-48 -71 -78 -148.5t-31 -83.5q-3 -2 -35.5 31t-65.5 121q-22 -10 -51.5 -10t-47.5 10zM74 822q-31 -1 -52 -21t-21 -51t21 -51t51.5 -20t50 20t19.5 51t-19.5 51t-49.5 21zM121 219v-119h600v119h-600zM765 822q-31 -1 -51 -21t-20 -51t20 -51t51 -20t51 20t20 51t-20 51
t-51 21z" />
  </g>

</svg>
