<?xml version="1.0" standalone="no"?>
<!DOCTYPE svg PUBLIC "-//W3C//DTD SVG 1.1//EN" "http://www.w3.org/Graphics/SVG/1.1/DTD/svg11.dtd" >
<svg xmlns="http://www.w3.org/2000/svg" xmlns:xlink="http://www.w3.org/1999/xlink" version="1.1" viewBox="0 -150 857 1000">
  <g transform="matrix(1 0 0 -1 0 850)">
   <path fill="currentColor"
d="M0 -96v892q0 23 16 38t38 16h500q22 0 49 -11t42 -27l174 -174q16 -16 27 -42t11 -50v-642q0 -23 -15 -38t-38 -16h-750q-23 0 -38 16t-16 38zM71 -79h715v572h-232q-23 0 -38 15t-16 38v233h-429v-858zM143 26q5 23 32 51t73 54q8 5 13 -3q1 -1 1 -2q29 47 60 110
q38 76 58 146q-13 46 -17 89t4 71q6 22 23 22h12q13 0 20 -8q10 -12 5 -38q-1 -3 -2 -4v-22q-1 -68 -8 -107q31 -91 82 -133q18 -14 47 -31q33 4 65 4q82 0 99 -27q9 -13 1 -29q0 -1 -1 -1l-1 -2q-3 -21 -39 -21q-27 0 -65 11t-72 29q-123 -13 -219 -46q-85 -146 -135 -146
q-8 0 -15 4l-14 7l-3 2q-6 6 -4 20zM177 23q30 13 77 88q-29 -22 -49 -47t-28 -41zM330 168q76 30 159 45q-1 0 -7 5l-9 8q-43 37 -71 98q-15 -48 -47 -110q-16 -31 -25 -46zM398 463q1 4 4 24q0 2 4 24q1 3 3 5q-1 0 -1 1v1l-1 1q0 12 -7 20v-3q-9 -23 -2 -73zM571 564h210
q-5 16 -12 23l-175 175q-6 7 -23 12v-210zM613 190q42 -16 69 -16q8 0 10 1l-1 1q-14 14 -78 14z" />
  </g>

</svg>
