<?xml version="1.0" standalone="no"?>
<!DOCTYPE svg PUBLIC "-//W3C//DTD SVG 1.1//EN" "http://www.w3.org/Graphics/SVG/1.1/DTD/svg11.dtd" >
<svg xmlns="http://www.w3.org/2000/svg" xmlns:xlink="http://www.w3.org/1999/xlink" version="1.1" viewBox="0 -150 960 1000">
  <g transform="matrix(1 0 0 -1 0 850)">
   <path fill="currentColor"
d="M480 830q200 0 340 -141t140 -340t-140 -339t-339 -140t-340 140t-141 339t141 340t339 141zM890 350q0 132 -78 239t-202 149q-18 -24 -16 -32q4 -38 18 -51t30 -7l32 12l20 2q22 -24 0 -47t-45 -56t-1 -77q34 -64 96 -64q28 -2 43 -36t17 -66q10 -80 -14 -140
q-22 -44 14 -76q86 112 86 250zM424 754q-112 -14 -199 -84t-127 -174q6 0 22 -2l28 -3q12 -1 26 -4t24 -8t12 -13q4 -12 -14 -45t-18 -62t38 -55t38 -46q0 -28 8 -68t8 -44q0 -12 36 -54t52 -42q10 0 11 22t-2 54t-3 40q0 32 13 74t60 70t55 46q16 34 9 61t-17 43t-34 28
t-41 17t-37 9t-22 4q-16 6 -42 7t-36 -3t-27 11t-17 29q0 10 15 27t35 37t28 30q8 14 17 21t22 16t27 21q4 4 25 17t27 23zM352 -40q66 -20 128 -20q128 0 226 68q-26 44 -118 34q-24 -2 -65 -17l-47 -17q-74 -16 -76 -16q-12 -2 -26 -14t-22 -18z" />
  </g>

</svg>
