<?xml version="1.0" standalone="no"?>
<!DOCTYPE svg PUBLIC "-//W3C//DTD SVG 1.1//EN" "http://www.w3.org/Graphics/SVG/1.1/DTD/svg11.dtd" >
<svg xmlns="http://www.w3.org/2000/svg" xmlns:xlink="http://www.w3.org/1999/xlink" version="1.1" viewBox="0 -150 969 1000">
  <g transform="matrix(1 0 0 -1 0 850)">
   <path fill="currentColor"
d="M0 366q0 201 142 342t342 142t343 -142t142 -342t-142 -343t-343 -142t-342 142t-142 343zM63 350q7 -166 125 -283q52 37 109 60q-43 106 -47 223h-187zM63 381h187q4 104 37 196q-62 25 -117 68q-102 -113 -107 -264zM191 668q51 -39 108 -62q43 101 117 176
q-131 -22 -225 -114zM211 45q88 -76 205 -95q-64 64 -105 148q-53 -19 -100 -53zM281 350q4 -111 45 -213q69 22 143 26v187h-188zM281 381h188v157q-78 3 -153 29q-31 -88 -35 -186zM328 596q69 -23 141 -27v218h-2q-90 -76 -139 -191zM340 110q49 -100 127 -166h2v187
q-69 -4 -129 -21zM500 -56h2q78 66 127 166q-61 17 -129 21v-187zM500 163q74 -4 143 -26q41 102 45 213h-188v-187zM500 381h188q-4 98 -36 186q-74 -26 -152 -29v-157zM500 569q72 4 141 27q-49 115 -139 191h-2v-218zM553 -50q117 19 205 95q-47 34 -100 53
q-41 -84 -105 -148zM553 782q74 -75 117 -176q57 23 107 62q-93 92 -224 114zM672 127q57 -23 109 -60q117 117 125 283h-187q-4 -117 -47 -223zM682 577q33 -92 37 -196h187q-6 151 -107 264q-55 -43 -117 -68z" />
  </g>

</svg>
