<?xml version="1.0" standalone="no"?>
<!DOCTYPE svg PUBLIC "-//W3C//DTD SVG 1.1//EN" "http://www.w3.org/Graphics/SVG/1.1/DTD/svg11.dtd" >
<svg xmlns="http://www.w3.org/2000/svg" xmlns:xlink="http://www.w3.org/1999/xlink" version="1.1" viewBox="0 -150 800 1000">
  <g transform="matrix(1 0 0 -1 0 850)">
   <path fill="currentColor"
d="M650 200q62 0 106 -43t44 -106t-44 -107t-106 -44t-106 44t-44 106q0 6 1 14t1 12l-260 156q-42 -32 -92 -32q-62 0 -106 44t-44 106t44 106t106 44q54 0 92 -30l260 156q0 4 -1 12t-1 12q0 62 44 106t106 44t106 -43t44 -106t-44 -107t-106 -44q-52 0 -90 32l-262 -156
q2 -8 2 -25t-2 -25l262 -156q36 30 90 30z" />
  </g>

</svg>
