<?xml version="1.0" encoding="utf-8"?>
<svg version="1.1" id="Layer_1" xmlns="http://www.w3.org/2000/svg" xmlns:xlink="http://www.w3.org/1999/xlink" x="0px" y="0px"
  viewBox="0 0 282 282" style="enable-background:new 0 0 282 282;" xml:space="preserve">
  <path d="M153.4,194.8c0.9,1.1,0.6,2.3-0.7,2.8c-1.7,0.7-3.5,1.4-5.3,2.1c0.2,0.3,0.2,0.4,0.3,0.6c0.6,0.9,0.4,1.2-0.6,1.5
    c-1.2,0.4-2.4,1-3.5,1.6c-0.1,0-0.2,0.1-0.2,0.2c-0.4,2-2.2,2.5-3.6,3.4c-1.5,1-3.3,1.1-5.1,1.3c-2.6,0.2-4.6-1-6.6-2.1
    c-2.2-1.2-4.2-2.5-6.5-3.6c-3.3-1.6-6.6-1.2-9.9,0c-3.3,1.3-6.5,2.8-9.8,4.2c-2.4,1-4.8,1.9-7.1,2.8c-0.8,0.3-1.5,0.8-2.3,1.2
    c-1.5,0.9-3,1.9-4.7,2.5c-2.1,0.8-4.2,2.1-5.5,4.1c-1,1.6-2,3.3-3,5c-1.3,2.1-2.4,4.4-4.1,6.2c-2.1,2.3-4.7,4.1-7.5,5.6
    c-4.5,2.5-9,1.8-13.7,1c-1.3-0.2-2.7-0.3-4-0.7c-3.2-1.1-5.3-3.4-6.6-6.5c-0.5-1.2-1.3-2.4-1.5-3.6c-1-4.8-1.3-9.7,0.1-14.5
    c0.5-1.9,1.6-3.6,2.7-5.3c2-2.9,4.5-5,7.6-6.4c2.2-1,4.7-1.3,7.1-1.2c4.5,0.1,9,0.4,13.5,0.7c1.8,0.1,3.6,0,5.3-0.6
    c4.3-1.7,8.5-3.5,12.8-5.2c5.7-2.3,10.8-5.8,16.4-8.5c2-1,3.9-2.1,5.9-3.1c0.7-0.4,0.9-0.8,0.7-1.6c-0.8-3-2.7-5.2-5.5-6.6
    c-3.7-1.8-7.5-3.2-11.2-4.8c-6-2.6-12-5.2-18.1-7.7c-5.6-2.3-11.2-4.7-17-6.8c-4.7-1.7-9.6-2.3-14.6-1.5c-1.9,0.3-3.9,0.8-5.7,1.4
    c-5.3,1.8-9.3-0.5-12-5.2c-0.2-0.3-0.4-0.7-0.7-1c-1.8-1.8-1.9-4-0.5-6c0.2-0.2,0.4-0.6,0.4-0.8c-0.3-1.7-0.5-3.4-1.1-4.9
    c-0.6-1.5-0.8-2.8-0.2-4.4c0.4-0.9,0.2-2.1,0-3.2c-0.1-1-0.6-2.1-0.7-3.1c-0.2-3.7,1.3-5.6,4.8-6.1c2-0.3,4-0.5,5.8-1.6
    c0.3-0.2,0.8-0.1,1.2-0.2c0.5-0.1,1-0.3,1.4-0.5c0.4-0.2,0.9-0.5,1.2-0.5c2,0.2,4-0.6,5.9,0.6c1.7,1.1,3.6,2,5.2,3.3
    c1.5,1.3,2.9,2.9,4,4.6c1.5,2.2,3.5,3.8,5.5,5.5c4.7,3.9,10,6.7,15.2,9.7c1.6,0.9,3.1,2,4.6,2.9c0.7,0.4,1.5,0.8,2.3,1.2
    c0.4,0.2,0.8,0.3,1,0.6c0.7,1,1.8,1.3,2.8,1.8c1.6,0.8,3.2,1.7,4.8,2.5c3.6,1.8,7.1,3.6,10.7,5.4c2.4,1.2,4.9,2.1,7.6,3.3
    c0.1-1.2,0.2-2.4,0.2-3.6c0-1.7-0.2-3.3-0.3-5c0-0.2,0-0.4-0.1-0.6c-0.7-1.5-1.3-3.2-2.1-4.6c-0.7-1.2-1.7-2.1-2.5-3.2
    c-1.1-1.4-2.2-2.9-3.3-4.4c-2-2.7-4-5.2-6.3-7.7c-2.3-2.4-4-5.4-5.8-8.2c-3.5-5.8-5.5-12.1-6.1-18.9c-0.4-4.8-0.7-9.6-0.3-14.5
    c0.6-7.5,2.9-14.5,6-21.3c2.1-4.5,5.5-7.8,9.3-10.8c1.9-1.5,4.1-2.3,6.4-2.9c2.4-0.6,4.8-1.6,7.1-2.5c5-1.9,10.1-2.7,15.4-3.2
    c4.6-0.4,9.3-0.8,13.9-1.1c8.5-0.5,16.1,2.1,22.9,7.2c3.8,2.8,6.6,6.4,9.2,10.3c1.5,2.2,3,4.3,4.3,6.6c1.4,2.5,1.8,5.3,2.3,8.1
    c0.6,3.5,1.4,7,2.1,10.5c1,4.9,1.7,9.8,1.1,14.9c-0.2,1.5-0.6,3-1,4.5c-0.5,1.9-1,3.8-1.6,5.7c-0.6,1.9-1.3,3.9-2.2,5.7
    c-0.5,1-1.3,2-2.2,2.8c-5.4,5.2-10.2,10.9-13.7,17.6c-2.8,5.3-4.4,10.9-5,16.8c-0.1,1-0.3,2-0.5,3.1c0.2,0,0.5,0,0.7-0.1
    c0.4-0.1,0.9-0.3,1.3-0.5c3.3-2.3,7.1-3.2,10.7-4.9c5.9-2.8,11.7-5.8,17.5-8.6c3.7-1.8,7.5-3.2,11.2-5c1.5-0.7,2.9-1.8,4.1-3
    c2.1-2.1,4.2-4.3,5.9-6.7c1.5-2.2,2.3-4.7,3.4-7.1c1.3-2.9,2.9-5.6,5.6-7.4c2.3-1.6,4.9-2.3,7.7-2.5c0.6,0,1.2,0,1.8-0.1
    c2.7-0.4,5.2,0.1,7.7,1c3,1.1,6.1,1.9,9.2,2.9c0.4,0.1,0.8,0.4,1.2,0.5c3.5,1.1,5.2,3.9,6.9,6.8c0.5,0.8-0.2,0.9-0.7,0.9
    c-1.9-0.1-3.9-0.2-5.8-0.3c-1.3-0.1-2.6-0.3-4-0.4c-0.2,0-0.4,0-0.6,0.1c-1.3,0.8-2.7,0.7-4.1,0.9c-2.6,0.3-5.2,0.8-7.8,1.1
    c-0.8,0.1-1.2,0.6-1.4,1.3c-1.1,3.8-2.2,7.7-2.5,11.7c-0.1,1,0.2,2.1,0.4,3c0.4,1.3,1.3,1.9,2.7,2c4.7,0.3,9.4,0.6,14.1,0.8
    c1.7,0.1,3.4,0,5.1,0c0.2,0,0.3,0,0.5,0c2.1,0.4,2.4,1,1.8,3c-1.2,3.9-4,6.4-7.4,8.2c-1.5,0.8-3.2,1.6-4.8,2.2
    c-2.4,0.9-4.9,1.8-7.4,2.3c-3.3,0.7-6.4,0.1-9.4-1.3c-3-1.3-6-2.7-9.3-2.2c-2.6,0.3-5.1,0.9-7.6,1.8c-5.8,2.2-11.6,4.6-17.3,7
    c-6.5,2.8-12.9,5.7-19.4,8.5c-1.4,0.6-2.5,1.5-3.6,2.8c0.6,0.4,1.1,0.8,1.7,1.1c5.8,3,11.5,6.2,17.4,9.1c2.2,1.1,4.7,1.7,7.1,2.5
    c1.5,0.5,3.1,1.3,4.7,1.4c3.2,0.3,6.5,0.4,9.7,0.3c1,0,2-0.6,3-1c1.8-0.9,3.5-0.7,5.2,0.4c1.2,0.8,1.7,1.8,1.5,3.3
    c-0.1,0.4,0.1,0.8,0.2,1.2c0,0.2,0.2,0.4,0.1,0.6c-0.3,0.8,0.1,1.2,0.7,1.6c0.7,0.4,1.4,0.8,2.1,1.2c0.8,0.5,1.2,1,0.9,2
    c-0.1,0.3,0,0.6,0.1,1.1c0.8-0.6,1.4-1.1,2-1.5c1.8-1.3,3.5-1.3,5.1,0.3c0.8,0.8,1.5,1.6,2.3,2.4c0.7,0.7,1.4,1.3,2.2,1.8
    c0.7,0.5,1,1,1.1,1.9c0.4,5.1-3.5,7.7-7.4,8.5c-1.6,0.3-3,1.3-4.5,2c-0.1,0.1-0.2,0.4-0.2,0.6c0.2,2.7-0.7,4.9-3.4,6.2
    c1,0.9,0.6,1.7,0,2.5c-1.8,2.8-4.2,4.6-7.8,4.9c-1.9,0.1-3.7,0.5-5.6,0.3c-3-0.3-5.4-1.7-7.1-4c-2.8-3.6-5.5-7.2-8.1-10.9
    c-3.2-4.6-7.2-8.5-11.6-11.9c-4.9-3.8-10.1-7.1-15.6-9.8c-1.3-0.7-2.9-0.9-4.4-1.2c-0.6-0.1-1.4-0.3-1.6,0.9
    C154.5,194.3,153.8,194.5,153.4,194.8z M56.9,229.6c1.3-0.7,2.3-1.2,3.4-1.7c0.8-0.4,1.5-0.5,2.4,0.2c1.3,1,1.6,0.9,2.5-0.6
    c0.2-0.3,0.4-0.7,0.6-1c0.8-1.4,1.7-2.3,3.6-1.8c1.1,0.3,1.8-0.5,1.5-1.6c-0.1-0.5-0.3-1-0.4-1.5c-0.1-1-0.4-2,0.5-2.7
    c0.8-0.7,0.7-1.4,0.4-2.2c-0.3-0.7-0.5-1.4-0.9-2.1c-1.8-3.2-4.7-5-8.1-6.2c-2.4-0.8-4.8-1-7.2,0c-1,0.4-1.5,0.9-1.4,2.1
    c0.1,1.9-0.5,2.5-2.3,2.7c-0.3,0-0.5,0.2-0.8,0.2c-1,0-1,0.6-0.6,1.3c0.4,0.8,0.9,1.5,1.3,2.2c0.1,0.3,0,1-0.1,1.1
    c-1.4,0.6-1.4,2.1-2.1,3.1c0.5,0.2,0.9,0.3,1.2,0.5c1.1,0.4,1.2,0.9,0.7,2c-0.2,0.5-0.1,1.2,0.1,1.7c0.1,0.2,0.8,0.3,1.2,0.4
    c0.5,0,1,0,1.5-0.1c0.5-0.1,0.7,0.1,1,0.6C55.3,227.1,56.1,228.3,56.9,229.6z"/>
  </svg>
